SplineFontDB: 3.2
FontName: Square-Regular
FullName: Square
FamilyName: Square
Weight: Book
Copyright: Wouter van Oortmerssen
Version: 1.000
ItalicAngle: 0
UnderlinePosition: -256
UnderlineWidth: 128
Ascent: 1792
Descent: 256
InvalidEm: 0
sfntRevision: 0x00010000
LayerCount: 2
Layer: 0 1 "Back" 1
Layer: 1 1 "Fore" 0
XUID: [1021 398 290377690 17495]
StyleMap: 0x0040
FSType: 0
OS2Version: 3
OS2_WeightWidthSlopeOnly: 0
OS2_UseTypoMetrics: 0
CreationTime: 1380047040
ModificationTime: 1642070316
PfmFamily: 81
TTFWeight: 400
TTFWidth: 5
LineGap: 0
VLineGap: 0
Panose: 0 0 5 4 0 0 0 0 0 4
OS2TypoAscent: 1792
OS2TypoAOffset: 0
OS2TypoDescent: -256
OS2TypoDOffset: 0
OS2TypoLinegap: 0
OS2WinAscent: 1856
OS2WinAOffset: 0
OS2WinDescent: 192
OS2WinDOffset: 0
HheadAscent: 1792
HheadAOffset: 0
HheadDescent: -256
HheadDOffset: 0
OS2SubXSize: 1351
OS2SubYSize: 1351
OS2SubXOff: 0
OS2SubYOff: 220
OS2SupXSize: 1351
OS2SupYSize: 1351
OS2SupXOff: 0
OS2SupYOff: 565
OS2StrikeYSize: 154
OS2StrikeYPos: 640
OS2CapHeight: 1664
OS2XHeight: 1664
OS2Vendor: '    '
OS2CodePages: 00000001.00000000
OS2UnicodeRanges: 00000001.00000000.00000000.00000000
DEI: 91125
ShortTable: maxp 16
  1
  0
  99
  465
  18
  0
  0
  0
  0
  0
  0
  0
  0
  0
  0
  0
EndShort
LangName: 1033 "" "" "Modern" "Square-Regular-2013:9:25" "" "Version 1.000"
GaspTable: 1 65535 2 0
Encoding: UnicodeBmp
UnicodeInterp: none
NameList: AGL For New Fonts
DisplaySize: -48
AntiAlias: 1
FitToEm: 0
WinInfo: 18 18 6
BeginChars: 65540 99

StartChar: .notdef
Encoding: 65536 -1 0
Width: 2048
Flags: W
LayerCount: 2
Fore
SplineSet
190 0 m 1,0,-1
 190 1664 l 1,1,-1
 1856 1664 l 1,2,-1
 1856 0 l 1,3,-1
 190 0 l 1,0,-1
352 160 m 1,4,-1
 1696 160 l 1,5,-1
 1696 1504 l 1,6,-1
 352 1504 l 1,7,-1
 352 160 l 1,4,-1
352 1504 m 1,8,-1
 912 832 l 1,9,-1
 352 160 l 1,10,-1
 560 160 l 1,11,-1
 1024 720 l 1,12,-1
 1488 160 l 1,13,-1
 1696 160 l 1,14,-1
 1136 832 l 1,15,-1
 1696 1504 l 1,16,-1
 1488 1504 l 1,17,-1
 1024 944 l 1,18,-1
 560 1504 l 1,19,-1
 352 1504 l 1,8,-1
EndSplineSet
Validated: 5
EndChar

StartChar: exclam
Encoding: 33 33 4
Width: 2048
GlyphClass: 2
Flags: W
LayerCount: 2
Fore
SplineSet
652 1769 m 1,0,-1
 652 1792 l 1,1,-1
 721 1792 l 1,2,-1
 791 1792 l 1,3,-1
 791 1769 l 1,4,-1
 791 1745 l 1,5,-1
 815 1745 l 1,6,-1
 838 1745 l 1,7,-1
 838 1769 l 1,8,-1
 838 1792 l 1,9,-1
 884 1792 l 1,10,-1
 931 1792 l 1,11,-1
 931 1769 l 1,12,-1
 931 1745 l 1,13,-1
 954 1745 l 1,14,-1
 977 1745 l 1,15,-1
 977 1769 l 1,16,-1
 977 1792 l 1,17,-1
 1024 1792 l 1,18,-1
 1071 1792 l 1,19,-1
 1071 1769 l 1,20,-1
 1071 1745 l 1,21,-1
 1094 1745 l 1,22,-1
 1117 1745 l 1,23,-1
 1117 1699 l 1,24,-1
 1117 1652 l 1,25,-1
 1140 1652 l 1,26,-1
 1164 1652 l 1,27,-1
 1164 1536 l 1,28,-1
 1164 1420 l 1,29,-1
 1140 1420 l 1,30,-1
 1117 1420 l 1,31,-1
 1117 1071 l 1,32,-1
 1117 721 l 1,33,-1
 1164 721 l 1,34,-1
 1210 721 l 1,35,-1
 1210 698 l 1,36,-1
 1210 675 l 1,37,-1
 1233 675 l 1,38,-1
 1257 675 l 1,39,-1
 1257 538 l 1,40,-1
 1257 400 l 1,41,-1
 1303 400 l 1,42,-1
 1350 400 l 1,43,-1
 1350 282 l 1,44,-1
 1350 163 l 1,45,-1
 1187 163 l 1,46,-1
 1024 163 l 1,47,-1
 1024 -47 l 1,48,-1
 1024 -256 l 1,49,-1
 815 -256 l 1,50,-1
 605 -256 l 1,51,-1
 605 -233 l 1,52,-1
 605 -209 l 1,53,-1
 582 -209 l 1,54,-1
 559 -209 l 1,55,-1
 559 -233 l 1,56,-1
 559 -256 l 1,57,-1
 419 -256 l 1,58,-1
 279 -256 l 1,59,-1
 279 -189 l 1,60,-1
 279 -121 l 1,61,-1
 305 -121 l 1,62,-1
 330 -121 l 1,63,-1
 330 -93 l 1,64,-1
 330 -65 l 1,65,-1
 305 -65 l 1,66,-1
 279 -65 l 1,67,-1
 279 5 l 1,68,-1
 279 74 l 1,69,-1
 256 74 l 1,70,-1
 233 74 l 1,71,-1
 233 119 l 1,72,-1
 233 163 l 1,73,-1
 116 163 l 1,74,-1
 0 163 l 1,75,-1
 0 442 l 1,76,-1
 0 721 l 1,77,-1
 23 721 l 1,78,-1
 47 721 l 1,79,-1
 47 745 l 1,80,-1
 47 768 l 1,81,-1
 93 768 l 1,82,-1
 140 768 l 1,83,-1
 140 815 l 1,84,-1
 140 861 l 1,85,-1
 93 861 l 1,86,-1
 47 861 l 1,87,-1
 47 884 l 1,88,-1
 47 908 l 1,89,-1
 23 908 l 1,90,-1
 0 908 l 1,91,-1
 0 1024 l 1,92,-1
 0 1140 l 1,93,-1
 23 1140 l 1,94,-1
 47 1140 l 1,95,-1
 47 1187 l 1,96,-1
 47 1233 l 1,97,-1
 23 1233 l 1,98,-1
 0 1233 l 1,99,-1
 0 1373 l 1,100,-1
 0 1513 l 1,101,-1
 23 1513 l 1,102,-1
 47 1513 l 1,103,-1
 47 1536 l 1,104,-1
 47 1559 l 1,105,-1
 70 1559 l 1,106,-1
 93 1559 l 1,107,-1
 93 1606 l 1,108,-1
 93 1652 l 1,109,-1
 116 1652 l 1,110,-1
 140 1652 l 1,111,-1
 140 1676 l 1,112,-1
 140 1699 l 1,113,-1
 256 1699 l 1,114,-1
 372 1699 l 1,115,-1
 372 1676 l 1,116,-1
 372 1652 l 1,117,-1
 396 1652 l 1,118,-1
 419 1652 l 1,119,-1
 419 1676 l 1,120,-1
 419 1699 l 1,121,-1
 465 1699 l 1,122,-1
 512 1699 l 1,123,-1
 512 1676 l 1,124,-1
 512 1652 l 1,125,-1
 535 1652 l 1,126,-1
 559 1652 l 1,127,-1
 559 1699 l 1,128,-1
 559 1745 l 1,129,-1
 605 1745 l 1,130,-1
 652 1745 l 1,131,-1
 652 1769 l 1,0,-1
698 1396 m 1,132,-1
 698 1420 l 1,133,-1
 628 1420 l 1,134,-1
 559 1420 l 1,135,-1
 559 1396 l 1,136,-1
 559 1373 l 1,137,-1
 582 1373 l 1,138,-1
 605 1373 l 1,139,-1
 605 1350 l 1,140,-1
 605 1327 l 1,141,-1
 628 1327 l 1,142,-1
 652 1327 l 1,143,-1
 652 1280 l 1,144,-1
 652 1233 l 1,145,-1
 605 1233 l 1,146,-1
 559 1233 l 1,147,-1
 559 1257 l 1,148,-1
 559 1280 l 1,149,-1
 442 1280 l 1,150,-1
 326 1280 l 1,151,-1
 326 1303 l 1,152,-1
 326 1327 l 1,153,-1
 303 1327 l 1,154,-1
 279 1327 l 1,155,-1
 279 1164 l 1,156,-1
 279 1001 l 1,157,-1
 233 1001 l 1,158,-1
 186 1001 l 1,159,-1
 187 862 l 1,160,-1
 189 724 l 1,161,-1
 210 722 l 1,162,-1
 232 721 l 1,163,-1
 234 699 l 1,164,-1
 235 677 l 1,165,-1
 628 677 l 1,166,-1
 1022 677 l 1,167,-1
 1023 699 l 1,168,-1
 1024 721 l 1,169,-1
 1046 722 l 1,170,-1
 1068 724 l 1,171,-1
 1070 1072 l 1,172,-1
 1071 1420 l 1,173,-1
 1047 1420 l 1,174,-1
 1024 1420 l 1,175,-1
 1024 1350 l 1,176,-1
 1024 1280 l 1,177,-1
 931 1280 l 1,178,-1
 838 1280 l 1,179,-1
 838 1257 l 1,180,-1
 838 1233 l 1,181,-1
 791 1233 l 1,182,-1
 745 1233 l 1,183,-1
 745 1280 l 1,184,-1
 745 1327 l 1,185,-1
 768 1327 l 1,186,-1
 791 1327 l 1,187,-1
 791 1350 l 1,188,-1
 791 1373 l 1,189,-1
 815 1373 l 1,190,-1
 838 1373 l 1,191,-1
 838 1396 l 1,192,-1
 838 1420 l 1,193,-1
 815 1420 l 1,194,-1
 791 1420 l 1,195,-1
 791 1396 l 1,196,-1
 791 1373 l 1,197,-1
 745 1373 l 1,198,-1
 698 1373 l 1,199,-1
 698 1396 l 1,132,-1
93 1071 m 1,200,-1
 93 1094 l 1,201,-1
 70 1094 l 1,202,-1
 47 1094 l 1,203,-1
 47 1001 l 1,204,-1
 47 908 l 1,205,-1
 93 908 l 1,206,-1
 140 908 l 1,207,-1
 140 931 l 1,208,-1
 140 954 l 1,209,-1
 116 954 l 1,210,-1
 93 954 l 1,211,-1
 93 977 l 1,212,-1
 93 1001 l 1,213,-1
 116 1001 l 1,214,-1
 140 1001 l 1,215,-1
 140 1024 l 1,216,-1
 140 1047 l 1,217,-1
 116 1047 l 1,218,-1
 93 1047 l 1,219,-1
 93 1071 l 1,200,-1
605 489 m 1,220,-1
 605 535 l 1,221,-1
 559 535 l 1,222,-1
 512 535 l 1,223,-1
 512 512 l 1,224,-1
 512 489 l 1,225,-1
 489 489 l 1,226,-1
 465 489 l 1,227,-1
 465 372 l 1,228,-1
 465 256 l 1,229,-1
 512 256 l 1,230,-1
 559 256 l 1,231,-1
 559 349 l 1,232,-1
 559 442 l 1,233,-1
 582 442 l 1,234,-1
 605 442 l 1,235,-1
 605 489 l 1,220,-1
791 512 m 1,236,-1
 791 535 l 1,237,-1
 745 535 l 1,238,-1
 698 535 l 1,239,-1
 698 489 l 1,240,-1
 698 442 l 1,241,-1
 721 442 l 1,242,-1
 745 442 l 1,243,-1
 745 349 l 1,244,-1
 745 256 l 1,245,-1
 791 256 l 1,246,-1
 838 256 l 1,247,-1
 838 372 l 1,248,-1
 838 489 l 1,249,-1
 815 489 l 1,250,-1
 791 489 l 1,251,-1
 791 512 l 1,236,-1
330 396 m 1,252,-1
 330 447 l 1,253,-1
 303 447 l 1,254,-1
 275 447 l 1,255,-1
 275 396 l 1,256,-1
 275 344 l 1,257,-1
 303 344 l 1,258,-1
 330 344 l 1,259,-1
 330 396 l 1,252,-1
140 419 m 1,260,-1
 140 442 l 1,261,-1
 116 442 l 1,262,-1
 93 442 l 1,263,-1
 93 419 l 1,264,-1
 93 396 l 1,265,-1
 70 396 l 1,266,-1
 47 396 l 1,267,-1
 47 303 l 1,268,-1
 47 209 l 1,269,-1
 163 209 l 1,270,-1
 279 209 l 1,271,-1
 279 256 l 1,272,-1
 279 303 l 1,273,-1
 256 303 l 1,274,-1
 233 303 l 1,275,-1
 233 372 l 1,276,-1
 233 442 l 1,277,-1
 209 442 l 1,278,-1
 186 442 l 1,279,-1
 186 419 l 1,280,-1
 186 396 l 1,281,-1
 163 396 l 1,282,-1
 140 396 l 1,283,-1
 140 419 l 1,260,-1
1117 419 m 1,284,-1
 1117 442 l 1,285,-1
 1094 442 l 1,286,-1
 1071 442 l 1,287,-1
 1071 419 l 1,288,-1
 1071 396 l 1,289,-1
 1047 396 l 1,290,-1
 1024 396 l 1,291,-1
 1024 326 l 1,292,-1
 1024 256 l 1,293,-1
 1047 256 l 1,294,-1
 1071 256 l 1,295,-1
 1071 233 l 1,296,-1
 1071 209 l 1,297,-1
 1187 209 l 1,298,-1
 1303 209 l 1,299,-1
 1303 279 l 1,300,-1
 1303 349 l 1,301,-1
 1280 349 l 1,302,-1
 1257 349 l 1,303,-1
 1257 372 l 1,304,-1
 1257 396 l 1,305,-1
 1233 396 l 1,306,-1
 1210 396 l 1,307,-1
 1210 419 l 1,308,-1
 1210 442 l 1,309,-1
 1187 442 l 1,310,-1
 1164 442 l 1,311,-1
 1164 419 l 1,312,-1
 1164 396 l 1,313,-1
 1140 396 l 1,314,-1
 1117 396 l 1,315,-1
 1117 419 l 1,284,-1
372 1210 m 1,316,-1
 372 1233 l 1,317,-1
 465 1233 l 1,318,-1
 559 1233 l 1,319,-1
 559 1210 l 1,320,-1
 559 1187 l 1,321,-1
 582 1187 l 1,322,-1
 605 1187 l 1,323,-1
 605 1094 l 1,324,-1
 605 1001 l 1,325,-1
 582 1001 l 1,326,-1
 559 1001 l 1,327,-1
 559 977 l 1,328,-1
 559 954 l 1,329,-1
 465 954 l 1,330,-1
 372 954 l 1,331,-1
 372 977 l 1,332,-1
 372 1001 l 1,333,-1
 349 1001 l 1,334,-1
 326 1001 l 1,335,-1
 326 1094 l 1,336,-1
 326 1187 l 1,337,-1
 349 1187 l 1,338,-1
 372 1187 l 1,339,-1
 372 1210 l 1,316,-1
465 1164 m 1,340,-1
 465 1187 l 1,341,-1
 419 1187 l 1,342,-1
 372 1187 l 1,343,-1
 372 1094 l 1,344,-1
 372 1001 l 1,345,-1
 419 1001 l 1,346,-1
 465 1001 l 1,347,-1
 465 1024 l 1,348,-1
 465 1047 l 1,349,-1
 442 1047 l 1,350,-1
 419 1047 l 1,351,-1
 419 1094 l 1,352,-1
 419 1140 l 1,353,-1
 442 1140 l 1,354,-1
 465 1140 l 1,355,-1
 465 1164 l 1,340,-1
559 1117 m 1,356,-1
 559 1140 l 1,357,-1
 535 1140 l 1,358,-1
 512 1140 l 1,359,-1
 512 1117 l 1,360,-1
 512 1094 l 1,361,-1
 535 1094 l 1,362,-1
 559 1094 l 1,363,-1
 559 1117 l 1,356,-1
838 1210 m 1,364,-1
 838 1233 l 1,365,-1
 908 1233 l 1,366,-1
 977 1233 l 1,367,-1
 977 1210 l 1,368,-1
 977 1187 l 1,369,-1
 1001 1187 l 1,370,-1
 1024 1187 l 1,371,-1
 1024 1094 l 1,372,-1
 1024 1001 l 1,373,-1
 1001 1001 l 1,374,-1
 977 1001 l 1,375,-1
 977 977 l 1,376,-1
 977 954 l 1,377,-1
 908 954 l 1,378,-1
 838 954 l 1,379,-1
 838 977 l 1,380,-1
 838 1001 l 1,381,-1
 815 1001 l 1,382,-1
 791 1001 l 1,383,-1
 791 1094 l 1,384,-1
 791 1187 l 1,385,-1
 815 1187 l 1,386,-1
 838 1187 l 1,387,-1
 838 1210 l 1,364,-1
884 1164 m 1,388,-1
 884 1187 l 1,389,-1
 861 1187 l 1,390,-1
 838 1187 l 1,391,-1
 838 1164 l 1,392,-1
 838 1140 l 1,393,-1
 861 1140 l 1,394,-1
 884 1140 l 1,395,-1
 884 1164 l 1,388,-1
977 1117 m 1,396,-1
 977 1140 l 1,397,-1
 954 1140 l 1,398,-1
 931 1140 l 1,399,-1
 931 1117 l 1,400,-1
 931 1094 l 1,401,-1
 954 1094 l 1,402,-1
 977 1094 l 1,403,-1
 977 1117 l 1,396,-1
884 1024 m 1,404,-1
 884 1047 l 1,405,-1
 861 1047 l 1,406,-1
 838 1047 l 1,407,-1
 838 1024 l 1,408,-1
 838 1001 l 1,409,-1
 861 1001 l 1,410,-1
 884 1001 l 1,411,-1
 884 1024 l 1,404,-1
652 1071 m 1,412,-1
 652 1094 l 1,413,-1
 675 1094 l 1,414,-1
 698 1094 l 1,415,-1
 698 1071 l 1,416,-1
 698 1047 l 1,417,-1
 721 1047 l 1,418,-1
 745 1047 l 1,419,-1
 745 1024 l 1,420,-1
 745 1001 l 1,421,-1
 721 1001 l 1,422,-1
 698 1001 l 1,423,-1
 698 977 l 1,424,-1
 698 954 l 1,425,-1
 675 954 l 1,426,-1
 652 954 l 1,427,-1
 652 977 l 1,428,-1
 652 1001 l 1,429,-1
 675 1001 l 1,430,-1
 698 1001 l 1,431,-1
 698 1024 l 1,432,-1
 698 1047 l 1,433,-1
 675 1047 l 1,434,-1
 652 1047 l 1,435,-1
 652 1071 l 1,412,-1
465 838 m 1,436,-1
 465 908 l 1,437,-1
 675 908 l 1,438,-1
 884 908 l 1,439,-1
 884 838 l 1,440,-1
 884 768 l 1,441,-1
 862 767 l 1,442,-1
 841 766 l 1,443,-1
 839 745 l 2,444,445
 837 724 837 724 836 723 c 0,446,447
 836 722 836 722 765.5 721.5 c 128,-1,448
 695 721 695 721 625.5 721 c 128,-1,449
 556 721 556 721 523 721 c 0,450,451
 516 721 516 721 514 725 c 128,-1,452
 512 729 512 729 511 744 c 2,453,-1
 510 766 l 1,454,-1
 488 767 l 1,455,-1
 465 768 l 1,456,-1
 465 838 l 1,436,-1
838 815 m 1,457,-1
 838 861 l 1,458,-1
 675 861 l 1,459,-1
 512 861 l 1,460,-1
 512 815 l 1,461,-1
 512 768 l 1,462,-1
 675 768 l 1,463,-1
 838 768 l 1,464,-1
 838 815 l 1,457,-1
EndSplineSet
Validated: 5
EndChar

StartChar: quotedbl
Encoding: 34 34 5
Width: 2048
GlyphClass: 2
Flags: W
LayerCount: 2
Fore
SplineSet
1152 1664 m 1,0,-1
 1536 1664 l 1,1,-1
 1536 1280 l 1,2,-1
 1344 960 l 1,3,-1
 1152 1280 l 1,4,-1
 1152 1664 l 1,0,-1
1152 1664 m 1,5,-1
 1536 1664 l 1,6,-1
 1536 1280 l 1,7,-1
 1344 960 l 1,8,-1
 1152 1280 l 1,9,-1
 1152 1664 l 1,5,-1
512 1664 m 1,10,-1
 896 1664 l 1,11,-1
 896 1280 l 1,12,-1
 704 960 l 1,13,-1
 512 1280 l 1,14,-1
 512 1664 l 1,10,-1
512 1664 m 1,15,-1
 896 1664 l 1,16,-1
 896 1280 l 1,17,-1
 704 960 l 1,18,-1
 512 1280 l 1,19,-1
 512 1664 l 1,15,-1
EndSplineSet
Validated: 5
EndChar

StartChar: numbersign
Encoding: 35 35 6
Width: 2048
GlyphClass: 2
Flags: W
LayerCount: 2
Fore
SplineSet
1103.87207031 1789.44042969 m 128,-1,1
 1103.87207031 1787.91077124 1103.87207031 1787.91077124 1118.71972656 1788.18066406 c 2,2,-1
 1129.23817786 1789.04942776 l 1,3,4
 1127.81117434 1789.65890004 1127.81117434 1789.65890004 1114.62402344 1790.38183594 c 0,5,0
 1103.87207031 1790.97837759 1103.87207031 1790.97837759 1103.87207031 1789.44042969 c 128,-1,1
922.112304688 1788.46191406 m 2,6,7
 929.791992188 1787.65221753 929.791992188 1787.65221753 937.471679688 1788.46191406 c 1,8,9
 933.968823519 1789.02319118 933.968823519 1789.02319118 929.791992188 1789.265625 c 2,10,-1
 920.846754319 1788.62940788 l 1,11,-1
 922.112304688 1788.46191406 l 2,6,7
972.799804688 1777.5 m 0,12,13
 1039.01316124 1780.1812633 1039.01316124 1780.1812633 1102.84765625 1775.62109375 c 0,14,15
 1182.21810554 1769.95096463 1182.21810554 1769.95096463 1192.95996094 1765.49414062 c 0,16,17
 1197.06349718 1763.78655727 1197.06349718 1763.78655727 1210.36816406 1761.47949219 c 0,18,19
 1279.47354547 1749.47006878 1279.47354547 1749.47006878 1329.15234375 1731.53808594 c 0,20,21
 1336.31258039 1728.95210005 1336.31258039 1728.95210005 1345.53613281 1726.53027344 c 128,-1,22
 1354.73960959 1724.11325247 1354.73960959 1724.11325247 1360.54785156 1721.19042969 c 128,-1,23
 1366.33769721 1718.27246094 1366.33769721 1718.27246094 1370.31640625 1718.27246094 c 128,-1,24
 1374.28147241 1718.27246094 1374.28147241 1718.27246094 1385.79980469 1712.12792969 c 128,-1,25
 1397.31453074 1705.984375 1397.31453074 1705.984375 1399.95117188 1705.984375 c 128,-1,26
 1402.59269102 1705.984375 1402.59269102 1705.984375 1415.86914062 1699.83984375 c 128,-1,27
 1429.14525577 1693.69628906 1429.14525577 1693.69628906 1431.39355469 1693.69628906 c 0,28,29
 1433.92087528 1693.69628906 1433.92087528 1693.69628906 1475.23191476 1672.85059319 c 128,-1,30
 1516.54295424 1652.00489733 1516.54295424 1652.00489733 1519.11914062 1649.42871094 c 0,31,32
 1522.07688328 1646.47096828 1522.07688328 1646.47096828 1530.32226562 1642.25488281 c 128,-1,33
 1538.52842924 1638.07398394 1538.52842924 1638.07398394 1546.80273438 1632.08691406 c 128,-1,34
 1555.03867837 1626.11230469 1555.03867837 1626.11230469 1556.8125 1626.11230469 c 128,-1,35
 1558.57603557 1626.11230469 1558.57603557 1626.11230469 1570.57519531 1617.91992188 c 128,-1,36
 1582.57435505 1609.72753906 1582.57435505 1609.72753906 1584.58886719 1609.72753906 c 128,-1,37
 1586.60096828 1609.72753906 1586.60096828 1609.72753906 1591.91503906 1605.12011719 c 128,-1,38
 1597.21116213 1600.52211138 1597.21116213 1600.52211138 1609.75390625 1591.29589844 c 128,-1,39
 1622.30738691 1582.05571057 1622.30738691 1582.05571057 1633.3828125 1573.37597656 c 128,-1,40
 1644.4875557 1564.671875 1644.4875557 1564.671875 1645.87988281 1564.671875 c 128,-1,41
 1647.27644361 1564.671875 1647.27644361 1564.671875 1650.51367188 1561.61035156 c 128,-1,42
 1653.81917576 1558.48547631 1653.81917576 1558.48547631 1662.85351562 1550.85839844 c 0,43,44
 1721.23857026 1501.48833961 1721.23857026 1501.48833961 1759.57519531 1459.98339844 c 0,45,46
 1806.92552253 1408.72948172 1806.92552253 1408.72948172 1829.82128906 1377.28027344 c 0,47,48
 1838.75245164 1365.0134395 1838.75245164 1365.0134395 1842.51855469 1360.66601562 c 0,49,50
 1847.31503489 1355.14319097 1847.31503489 1355.14319097 1855.73925781 1341.95214844 c 0,51,52
 1859.98263938 1335.29589844 1859.98263938 1335.29589844 1861.69824219 1335.29589844 c 128,-1,53
 1863.40319763 1335.29589844 1863.40319763 1335.29589844 1864.82714844 1330.68847656 c 128,-1,54
 1866.24018145 1326.11461909 1866.24018145 1326.11461909 1875.20507812 1312.66015625 c 128,-1,55
 1884.16015625 1299.24706838 1884.16015625 1299.24706838 1884.16015625 1297.57714844 c 128,-1,56
 1884.16015625 1295.90018352 1884.16015625 1295.90018352 1890.97949219 1286.42089844 c 128,-1,57
 1897.79935343 1276.91787137 1897.79935343 1276.91787137 1902.39257812 1267.71191406 c 128,-1,58
 1906.9902768 1258.49876497 1906.9902768 1258.49876497 1909.39648438 1256.44824219 c 0,59,60
 1911.52699098 1254.63621337 1911.52699098 1254.63621337 1931.69246187 1213.66342914 c 128,-1,61
 1951.85793275 1172.6906449 1951.85793275 1172.6906449 1951.80078125 1170.29394531 c 0,62,63
 1951.74417564 1168.11462933 1951.74417564 1168.11462933 1957.88769531 1156.09570312 c 128,-1,64
 1964.03222656 1144.08004652 1964.03222656 1144.08004652 1964.03222656 1141.17089844 c 128,-1,65
 1964.03222656 1138.25497762 1964.03222656 1138.25497762 1969.15234375 1128.06445312 c 128,-1,66
 1974.27246094 1117.86861796 1974.27246094 1117.86861796 1974.27246094 1113.32910156 c 128,-1,67
 1974.27246094 1108.78790902 1974.27246094 1108.78790902 1976.47851562 1106.58007812 c 128,-1,68
 1978.68059208 1104.37977325 1978.68059208 1104.37977325 1980.39550781 1097.46679688 c 0,69,70
 1982.97830928 1087.03516618 1982.97830928 1087.03516618 1988.76171875 1072.12792969 c 0,71,72
 1990.36119706 1067.98651952 1990.36119706 1067.98651952 1991.35742188 1062.91210938 c 128,-1,73
 1992.37719479 1057.76145246 1992.37719479 1057.76145246 1995.85839844 1048.57617188 c 0,74,75
 2001.82366483 1032.79762219 2001.82366483 1032.79762219 2014.39746094 970.751953125 c 0,76,77
 2019.60644124 945.084462357 2019.60644124 945.084462357 2021.36621094 939.0078125 c 128,-1,78
 2023.13762167 932.884854339 2023.13762167 932.884854339 2025.375 909.311523438 c 128,-1,79
 2027.60116244 885.839489563 2027.60116244 885.839489563 2029.63476562 873.471679688 c 0,80,81
 2034.08138274 846.504490815 2034.08138274 846.504490815 2034.04040527 769.601928711 c 128,-1,82
 2033.99942781 692.699366607 2033.99942781 692.699366607 2029.52148438 661.50390625 c 0,83,84
 2027.29485605 645.994597384 2027.29485605 645.994597384 2024.53027344 622.591796875 c 0,85,86
 2018.73376221 573.612267382 2018.73376221 573.612267382 2010.40917969 544.168945312 c 0,87,88
 2007.41791014 533.631039749 2007.41791014 533.631039749 2003.9375 517.120117188 c 0,89,90
 1998.20039639 489.866049809 1998.20039639 489.866049809 1988.67480469 463.872070312 c 0,91,92
 1982.65612501 447.444867765 1982.65612501 447.444867765 1980.41601562 439.295898438 c 0,93,94
 1976.47801031 424.970275174 1976.47801031 424.970275174 1968.85546875 408.192382812 c 0,95,96
 1964.03222656 397.567398274 1964.03222656 397.567398274 1964.03222656 394.33203125 c 128,-1,97
 1964.03222656 391.080474604 1964.03222656 391.080474604 1958.16992188 380.108398438 c 128,-1,98
 1952.29628249 369.091317399 1952.29628249 369.091317399 1950.84277344 363.249023438 c 0,99,100
 1949.16171124 356.519649438 1949.16171124 356.519649438 1929.32021056 317.084134278 c 128,-1,101
 1909.47870989 277.648619117 1909.47870989 277.648619117 1905.37207031 272.870117188 c 0,102,103
 1900.55284769 267.270166308 1900.55284769 267.270166308 1900.54394531 265.010742188 c 128,-1,104
 1900.54394531 262.763701548 1900.54394531 262.763701548 1893.99511719 253.747070312 c 128,-1,105
 1887.46451258 244.76771015 1887.46451258 244.76771015 1881.72265625 232.959960938 c 128,-1,106
 1875.99783601 221.18359375 1875.99783601 221.18359375 1874.28320312 221.18359375 c 128,-1,107
 1872.57019346 221.18359375 1872.57019346 221.18359375 1867.77636719 210.944335938 c 128,-1,108
 1862.9829149 200.704101562 1862.9829149 200.704101562 1861.62695312 200.704101562 c 128,-1,109
 1860.2786365 200.704101562 1860.2786365 200.704101562 1853.36816406 190.048828125 c 128,-1,110
 1846.4387241 179.355401878 1846.4387241 179.355401878 1843.68652344 176.225585938 c 128,-1,111
 1840.87926874 173.014215885 1840.87926874 173.014215885 1830.91210938 159.744140625 c 128,-1,112
 1820.95489 146.487299278 1820.95489 146.487299278 1817.72265625 142.84765625 c 128,-1,113
 1814.52832031 139.262467194 1814.52832031 139.262467194 1814.52832031 137.57421875 c 128,-1,114
 1814.52832031 135.885140262 1814.52832031 135.885140262 1809.40820312 131.072265625 c 128,-1,115
 1804.28808594 126.259284455 1804.28808594 126.259284455 1804.28808594 124.318359375 c 128,-1,116
 1804.28808594 122.377828689 1804.28808594 122.377828689 1792.51171875 110.454101562 c 128,-1,117
 1780.71738649 98.5103839104 1780.71738649 98.5103839104 1764.3515625 80.5732421875 c 0,118,119
 1739.09932551 52.9006744871 1739.09932551 52.9006744871 1711.42675781 27.6484375 c 0,120,121
 1693.48961609 11.2826135116 1693.48961609 11.2826135116 1681.54589844 -0.51171875 c 128,-1,122
 1669.62217131 -12.2880859375 1669.62217131 -12.2880859375 1667.68164062 -12.2880859375 c 128,-1,123
 1665.74071555 -12.2880859375 1665.74071555 -12.2880859375 1660.92773438 -17.408203125 c 128,-1,124
 1656.11485974 -22.5283203125 1656.11485974 -22.5283203125 1654.42578125 -22.5283203125 c 128,-1,125
 1652.73753281 -22.5283203125 1652.73753281 -22.5283203125 1649.15234375 -25.72265625 c 128,-1,126
 1645.51270072 -28.9548900038 1645.51270072 -28.9548900038 1632.25585938 -38.912109375 c 128,-1,127
 1618.98578411 -48.879268744 1618.98578411 -48.879268744 1615.77441406 -51.6865234375 c 128,-1,128
 1612.64459812 -54.4387240991 1612.64459812 -54.4387240991 1601.95117188 -61.3681640625 c 128,-1,129
 1591.29589844 -68.2786364986 1591.29589844 -68.2786364986 1591.29589844 -69.626953125 c 128,-1,130
 1591.29589844 -70.9829148968 1591.29589844 -70.9829148968 1581.05566406 -75.7763671875 c 128,-1,131
 1570.81640625 -80.5701934566 1570.81640625 -80.5701934566 1570.81640625 -82.283203125 c 128,-1,132
 1570.81640625 -83.9978360129 1570.81640625 -83.9978360129 1559.04003906 -89.72265625 c 128,-1,133
 1547.23228985 -95.4645125843 1547.23228985 -95.4645125843 1538.25292969 -101.995117188 c 128,-1,134
 1529.23629845 -108.543945312 1529.23629845 -108.543945312 1526.98925781 -108.543945312 c 128,-1,135
 1524.72983369 -108.552847693 1524.72983369 -108.552847693 1519.12988281 -113.372070312 c 0,136,137
 1514.35138088 -117.478709889 1514.35138088 -117.478709889 1474.91586572 -137.320210562 c 128,-1,138
 1435.48035056 -157.161711235 1435.48035056 -157.161711235 1428.75097656 -158.842773438 c 0,139,140
 1422.9086826 -160.296282485 1422.9086826 -160.296282485 1411.89160156 -166.169921875 c 128,-1,141
 1400.9195254 -172.032226562 1400.9195254 -172.032226562 1397.66796875 -172.032226562 c 128,-1,142
 1394.43260173 -172.032226562 1394.43260173 -172.032226562 1383.80761719 -176.85546875 c 0,143,144
 1367.02972483 -184.478010311 1367.02972483 -184.478010311 1352.70410156 -188.416015625 c 0,145,146
 1344.55513223 -190.656125005 1344.55513223 -190.656125005 1328.12792969 -196.674804688 c 0,147,148
 1302.13395019 -206.20039639 1302.13395019 -206.20039639 1274.87988281 -211.9375 c 0,149,150
 1258.36896025 -215.417910142 1258.36896025 -215.417910142 1247.83105469 -218.409179688 c 0,151,152
 1218.38773262 -226.733762208 1218.38773262 -226.733762208 1169.40820312 -232.530273438 c 0,153,154
 1146.00540262 -235.294856053 1146.00540262 -235.294856053 1130.49609375 -237.521484375 c 0,155,156
 1099.30063339 -241.999427807 1099.30063339 -241.999427807 1022.39807129 -242.040405273 c 128,-1,157
 945.495509185 -242.081382739 945.495509185 -242.081382739 918.528320312 -237.634765625 c 0,158,159
 906.160510437 -235.601162441 906.160510437 -235.601162441 882.688476562 -233.375 c 128,-1,160
 859.115145661 -231.137621666 859.115145661 -231.137621666 852.9921875 -229.366210938 c 128,-1,161
 846.915537643 -227.606441239 846.915537643 -227.606441239 821.248046875 -222.397460938 c 0,162,163
 759.202377811 -209.823664826 759.202377811 -209.823664826 743.423828125 -203.858398438 c 0,164,165
 734.238547541 -200.377194794 734.238547541 -200.377194794 729.087890625 -199.357421875 c 128,-1,166
 724.013480484 -198.361197061 724.013480484 -198.361197061 719.872070312 -196.76171875 c 0,167,168
 704.964833824 -190.978309276 704.964833824 -190.978309276 694.533203125 -188.395507812 c 0,169,170
 687.620226746 -186.680592078 687.620226746 -186.680592078 685.419921875 -184.478515625 c 128,-1,171
 683.212090976 -182.272460938 683.212090976 -182.272460938 678.670898438 -182.272460938 c 128,-1,172
 674.131382037 -182.272460938 674.131382037 -182.272460938 663.935546875 -177.15234375 c 128,-1,173
 653.745022376 -172.032226562 653.745022376 -172.032226562 650.829101562 -172.032226562 c 128,-1,174
 647.919953477 -172.032226562 647.919953477 -172.032226562 635.904296875 -165.887695312 c 128,-1,175
 623.885370672 -159.74417564 623.885370672 -159.74417564 621.706054688 -159.80078125 c 0,176,177
 619.309355103 -159.857932753 619.309355103 -159.857932753 578.336570864 -139.692461867 c 128,-1,178
 537.363786626 -119.52699098 537.363786626 -119.52699098 535.551757812 -117.396484375 c 0,179,180
 533.501235026 -114.990276803 533.501235026 -114.990276803 524.288085938 -110.392578125 c 128,-1,181
 515.082128634 -105.799353425 515.082128634 -105.799353425 505.579101562 -98.9794921875 c 128,-1,182
 496.099816478 -92.16015625 496.099816478 -92.16015625 494.422851562 -92.16015625 c 128,-1,183
 492.752931624 -92.16015625 492.752931624 -92.16015625 479.33984375 -83.205078125 c 128,-1,184
 465.885380912 -74.2401814478 465.885380912 -74.2401814478 461.311523438 -72.8271484375 c 128,-1,185
 456.704101562 -71.4031976307 456.704101562 -71.4031976307 456.704101562 -69.6982421875 c 128,-1,186
 456.704101562 -67.9826393809 456.704101562 -67.9826393809 450.047851562 -63.7392578125 c 0,187,188
 436.856809034 -55.3150348889 436.856809034 -55.3150348889 431.333984375 -50.5185546875 c 0,189,190
 426.986560496 -46.7524516385 426.986560496 -46.7524516385 414.719726562 -37.8212890625 c 0,191,192
 383.270518283 -14.9255225305 383.270518283 -14.9255225305 332.016601562 32.4248046875 c 0,193,194
 290.511660386 70.7614297438 290.511660386 70.7614297438 241.141601562 129.146484375 c 0,195,196
 233.514523694 138.180824241 233.514523694 138.180824241 230.389648438 141.486328125 c 128,-1,197
 227.328125 144.723556386 227.328125 144.723556386 227.328125 146.120117188 c 128,-1,198
 227.328125 147.512444299 227.328125 147.512444299 218.624023438 158.6171875 c 128,-1,199
 209.944289426 169.69261309 209.944289426 169.69261309 200.704101562 182.24609375 c 128,-1,200
 191.477888625 194.788837865 191.477888625 194.788837865 186.879882812 200.084960938 c 128,-1,201
 182.272460938 205.399031717 182.272460938 205.399031717 182.272460938 207.411132812 c 128,-1,202
 182.272460938 209.425644946 182.272460938 209.425644946 174.080078125 221.424804688 c 128,-1,203
 165.887695312 233.423964429 165.887695312 233.423964429 165.887695312 235.1875 c 128,-1,204
 165.887695312 236.961321626 165.887695312 236.961321626 159.913085938 245.197265625 c 128,-1,205
 153.926016061 253.471570765 153.926016061 253.471570765 149.745117188 261.677734375 c 128,-1,206
 145.529031716 269.923116722 145.529031716 269.923116722 142.571289062 272.880859375 c 0,207,208
 139.995102674 275.457045764 139.995102674 275.457045764 119.149406806 316.768085242 c 128,-1,209
 98.3037109375 358.079124721 98.3037109375 358.079124721 98.3037109375 360.606445312 c 0,210,211
 98.3037109375 362.854744231 98.3037109375 362.854744231 92.16015625 376.130859375 c 128,-1,212
 86.015625 389.407308978 86.015625 389.407308978 86.015625 392.048828125 c 128,-1,213
 86.015625 394.685469258 86.015625 394.685469258 79.8720703125 406.200195312 c 128,-1,214
 73.7275390625 417.718527592 73.7275390625 417.718527592 73.7275390625 421.68359375 c 128,-1,215
 73.7275390625 425.662302789 73.7275390625 425.662302789 70.8095703125 431.452148438 c 128,-1,216
 67.886747535 437.26039041 67.886747535 437.26039041 65.4697265625 446.463867188 c 128,-1,217
 63.0478999499 455.687419606 63.0478999499 455.687419606 60.4619140625 462.84765625 c 0,218,219
 42.5299312197 512.526454531 42.5299312197 512.526454531 30.5205078125 581.631835938 c 0,220,221
 28.2134427268 594.93650282 28.2134427268 594.93650282 26.505859375 599.040039062 c 0,222,223
 23.0115961475 607.469252634 23.0115961475 607.469252634 16.1435546875 688.127929688 c 0,224,225
 14.369111532 708.99196408 14.369111532 708.99196408 14.3758544922 767.027099609 c 128,-1,226
 14.3825974524 825.062235139 14.3825974524 825.062235139 16.1640625 846.84765625 c 0,227,228
 22.7784257528 927.79980567 22.7784257528 927.79980567 26.1220703125 935.935546875 c 0,229,230
 27.6187309043 939.577087278 27.6187309043 939.577087278 34.6416015625 976.896484375 c 0,231,232
 40.0740598981 1005.72315054 40.0740598981 1005.72315054 55.720703125 1058.81640625 c 0,233,234
 57.8342040397 1065.9863249 57.8342040397 1065.9863249 60.662109375 1072.71191406 c 128,-1,235
 63.48828125 1079.42695521 63.48828125 1079.42695521 63.48828125 1083.34082031 c 128,-1,236
 63.48828125 1087.24645171 63.48828125 1087.24645171 65.5361328125 1088.51171875 c 128,-1,237
 67.583984375 1089.77808316 67.583984375 1089.77808316 67.583984375 1095.40820312 c 128,-1,238
 67.583984375 1101.03676694 67.583984375 1101.03676694 70.58984375 1105.01855469 c 128,-1,239
 73.5948179196 1108.99264634 73.5948179196 1108.99264634 73.60546875 1113.08789062 c 128,-1,240
 73.6143439834 1117.18292332 73.6143439834 1117.18292332 79.611328125 1129.47167969 c 128,-1,241
 85.6115259417 1141.77244067 85.6115259417 1141.77244067 87.654296875 1147.90429688 c 0,242,243
 92.7064592217 1163.09812598 92.7064592217 1163.09812598 114.501314192 1208.85553148 c 128,-1,244
 136.296169163 1254.61293697 136.296169163 1254.61293697 139.391601562 1256.53027344 c 0,245,246
 141.420445506 1257.78180986 141.420445506 1257.78180986 148.556640625 1271.96191406 c 128,-1,247
 155.699496864 1286.14637242 155.699496864 1286.14637242 157.209960938 1286.17480469 c 128,-1,248
 158.715251008 1286.21203801 158.715251008 1286.21203801 163.732421875 1296.41503906 c 128,-1,249
 168.740167471 1306.62402344 168.740167471 1306.62402344 170.05078125 1306.62402344 c 128,-1,250
 171.363411694 1306.62402344 171.363411694 1306.62402344 177.21875 1318.40039062 c 128,-1,251
 183.097983926 1330.20513764 183.097983926 1330.20513764 186.875 1335.29589844 c 0,252,253
 208.800577881 1364.88345094 208.800577881 1364.88345094 213.98046875 1370.28613281 c 0,254,255
 217.086655088 1373.5218175 217.086655088 1373.5218175 217.124023438 1375.40625 c 128,-1,256
 217.161390852 1377.28173833 217.161390852 1377.28173833 222.244140625 1382.10351562 c 128,-1,257
 227.328125 1386.92637292 227.328125 1386.92637292 227.328125 1389.32714844 c 128,-1,258
 227.328125 1391.72871732 227.328125 1391.72871732 230.912109375 1395.05175781 c 128,-1,259
 234.493724155 1398.36359784 234.493724155 1398.36359784 239.206054688 1404.2109375 c 0,260,261
 263.659423828 1434.52807617 263.659423828 1434.52807617 310.565673828 1481.43432617 c 128,-1,262
 357.471923828 1528.34057617 357.471923828 1528.34057617 387.7890625 1552.79394531 c 0,263,264
 393.636402158 1557.50627584 393.636402158 1557.50627584 396.948242188 1561.08789062 c 128,-1,265
 400.271282678 1564.671875 400.271282678 1564.671875 402.672851562 1564.671875 c 128,-1,266
 405.07362708 1564.671875 405.07362708 1564.671875 409.896484375 1569.75585938 c 128,-1,267
 414.718261666 1574.83860915 414.718261666 1574.83860915 416.59375 1574.87597656 c 128,-1,268
 418.478182505 1574.91334491 418.478182505 1574.91334491 421.713867188 1578.01953125 c 0,269,270
 427.116549062 1583.19942212 427.116549062 1583.19942212 456.704101562 1605.125 c 0,271,272
 461.794862358 1608.90201607 461.794862358 1608.90201607 473.599609375 1614.78125 c 128,-1,273
 485.375976562 1620.63658831 485.375976562 1620.63658831 485.375976562 1621.94921875 c 128,-1,274
 485.375976562 1623.25983253 485.375976562 1623.25983253 495.584960938 1628.26757812 c 128,-1,275
 505.787961989 1633.28474899 505.787961989 1633.28474899 505.825195312 1634.79003906 c 128,-1,276
 505.853627577 1636.30050314 505.853627577 1636.30050314 520.038085938 1643.44335938 c 128,-1,277
 534.21819014 1650.57955449 534.21819014 1650.57955449 535.469726562 1652.60839844 c 0,278,279
 537.387063034 1655.70383084 537.387063034 1655.70383084 583.144468524 1677.49868581 c 128,-1,280
 628.901874015 1699.29354078 628.901874015 1699.29354078 644.095703125 1704.34570312 c 0,281,282
 650.227559326 1706.38847406 650.227559326 1706.38847406 662.528320312 1712.38867188 c 128,-1,283
 674.817076682 1718.38565602 674.817076682 1718.38565602 678.912109375 1718.39453125 c 128,-1,284
 683.007353661 1718.40518208 683.007353661 1718.40518208 686.981445312 1721.41015625 c 128,-1,285
 690.963233056 1724.41601562 690.963233056 1724.41601562 696.591796875 1724.41601562 c 128,-1,286
 702.221916841 1724.41601562 702.221916841 1724.41601562 703.48828125 1726.46386719 c 128,-1,287
 704.75354829 1728.51171875 704.75354829 1728.51171875 708.659179688 1728.51171875 c 128,-1,288
 712.561791678 1728.51171875 712.561791678 1728.51171875 719.288085938 1731.41015625 c 0,289,290
 727.070985793 1734.76625366 727.070985793 1734.76625366 762.879882812 1744.95703125 c 0,291,292
 789.540714587 1752.54034875 789.540714587 1752.54034875 815.103515625 1757.35839844 c 0,293,294
 852.417632662 1764.37909901 852.417632662 1764.37909901 856.064453125 1765.87792969 c 0,295,296
 859.137541306 1767.14446834 859.137541306 1767.14446834 883.711914062 1769.36914062 c 128,-1,297
 908.332134787 1771.60863617 908.332134787 1771.60863617 920.576171875 1773.7421875 c 128,-1,298
 932.841671601 1775.8797876 932.841671601 1775.8797876 972.799804688 1777.5 c 0,12,13
2.734375 862.208007812 m 2,299,-1
 3.37059211992 871.153245681 l 1,300,-1
 3.5380859375 869.887695312 l 2,301,302
 4.34778246929 862.208007812 4.34778246929 862.208007812 3.5380859375 854.528320312 c 1,303,304
 2.97680882264 858.031176481 2.97680882264 858.031176481 2.734375 862.208007812 c 2,299,-1
1.6181640625 677.375976562 m 0,305,306
 1.02162240959 688.127929688 1.02162240959 688.127929688 2.5595703125 688.127929688 c 128,-1,307
 4.0892287562 688.127929688 4.0892287562 688.127929688 3.8193359375 673.280273438 c 2,308,-1
 2.95057223839 662.761822145 l 1,309,310
 2.34109996249 664.18882566 2.34109996249 664.18882566 1.6181640625 677.375976562 c 0,305,306
3.9375 637.440429688 m 0,311,312
 3.79407865944 635.961823962 3.79407865944 635.961823962 3.1484375 632.663085938 c 128,-1,313
 2.50808785861 629.416992188 2.50808785861 629.416992188 5.421875 629.416992188 c 128,-1,314
 8.330078125 629.416992188 8.330078125 629.416992188 6.3740234375 631.373046875 c 128,-1,315
 4.41773361046 633.329336702 4.41773361046 633.329336702 5.4990234375 636.155273438 c 128,-1,316
 6.57884081785 638.975585938 6.57884081785 638.975585938 5.33984375 638.975585938 c 128,-1,317
 4.09545249277 638.975585938 4.09545249277 638.975585938 3.9375 637.440429688 c 1024,318,-1
943.196289062 1789.80371094 m 1,319,-1
 995.81200573 1791.93839929 l 2,320,321
 1007.69821313 1792 1007.69821313 1792 1022.85351562 1792 c 0,322,323
 1103.87207031 1792 1103.87207031 1792 1103.87207031 1789.81347656 c 128,-1,324
 1103.87207031 1787.62698946 1103.87207031 1787.62698946 1129.96875 1788.50292969 c 128,-1,325
 1156.06037334 1789.38190688 1156.06037334 1789.38190688 1158.7890625 1786.08105469 c 2,326,-1
 1160.22265625 1785.34375 l 1,327,328
 1158.92817728 1787.90429688 1158.92817728 1787.90429688 1160.92382812 1787.90429688 c 128,-1,329
 1162.91711371 1787.90429688 1162.91711371 1787.90429688 1163.60742188 1785.91699219 c 128,-1,330
 1164.28768669 1783.92962168 1164.28768669 1783.92962168 1175.9921875 1783.55664062 c 128,-1,331
 1187.69515523 1783.18144216 1187.69515523 1783.18144216 1186.44238281 1780.93554688 c 1,332,-1
 1187.94726562 1781.24804688 l 2,333,334
 1190.80444336 1783.89809879 1190.80444336 1783.89809879 1194.44226074 1783.71459961 c 128,-1,335
 1198.08007812 1783.53110042 1198.08007812 1783.53110042 1198.08007812 1780.73632812 c 0,336,337
 1198.08007812 1777.31788681 1198.08007812 1777.31788681 1222.14355469 1777.14160156 c 0,338,339
 1230.84765625 1777.08144486 1230.84765625 1777.08144486 1230.84765625 1774.29980469 c 128,-1,340
 1230.84765625 1771.51953125 1230.84765625 1771.51953125 1242.11230469 1771.51953125 c 128,-1,341
 1253.37597656 1771.51953125 1253.37597656 1771.51953125 1253.37597656 1768.44824219 c 128,-1,342
 1253.37597656 1765.37597656 1253.37597656 1765.37597656 1267.71191406 1765.37597656 c 128,-1,343
 1282.04785156 1765.37597656 1282.04785156 1765.37597656 1282.04785156 1762.5859375 c 128,-1,344
 1282.04785156 1759.79196584 1282.04785156 1759.79196584 1289.21582031 1760.58886719 c 128,-1,345
 1296.38472947 1761.37657999 1296.38472947 1761.37657999 1296.41503906 1758.765625 c 128,-1,346
 1296.44475101 1756.15521775 1296.44475101 1756.15521775 1298.43164062 1759.23242188 c 128,-1,347
 1300.41944043 1762.31145048 1300.41944043 1762.31145048 1300.44921875 1758.71972656 c 0,348,349
 1300.46826152 1756.28957653 1300.46826152 1756.28957653 1305.99777043 1755.0816721 c 128,-1,350
 1311.52727933 1753.87376766 1311.52727933 1753.87376766 1317.60644531 1754.97167969 c 0,351,352
 1319.37851572 1755.29015419 1319.37851572 1755.29015419 1321.70214844 1752.25878906 c 128,-1,353
 1324.02511987 1749.23059823 1324.02511987 1749.23059823 1331.20019531 1748.3828125 c 128,-1,354
 1338.36457878 1747.53289056 1338.36457878 1747.53289056 1337.85644531 1745.19335938 c 0,355,356
 1337.63458345 1744.17669043 1337.63458345 1744.17669043 1340.00198929 1743.40306713 c 128,-1,357
 1342.36939514 1742.62944383 1342.36939514 1742.62944383 1345.87170862 1742.45305266 c 128,-1,358
 1349.3740221 1742.2766615 1349.3740221 1742.2766615 1353.24707031 1742.70507812 c 0,359,360
 1354.31852075 1742.84285698 1354.31852075 1742.84285698 1354.91981209 1742.2166519 c 128,-1,361
 1355.52110342 1741.59044681 1355.52110342 1741.59044681 1355.29492188 1740.56933594 c 128,-1,362
 1355.05235978 1739.46278377 1355.05235978 1739.46278377 1356.60040361 1738.72770817 c 128,-1,363
 1358.14844745 1737.99263257 1358.14844745 1737.99263257 1360.89648438 1737.91210938 c 0,364,365
 1367.03967913 1737.72568294 1367.03967913 1737.72568294 1368.54492188 1735.6796875 c 128,-1,366
 1370.04332131 1733.63611517 1370.04332131 1733.63611517 1370.14746094 1736.70410156 c 128,-1,367
 1370.24234104 1739.77616551 1370.24234104 1739.77616551 1373.265625 1735.77246094 c 128,-1,368
 1376.2930325 1731.77422781 1376.2930325 1731.77422781 1383.6953125 1732.27050781 c 0,369,370
 1388.14721334 1732.57013385 1388.14721334 1732.57013385 1389.37858066 1732.04242819 c 128,-1,371
 1390.60994798 1731.51472253 1390.60994798 1731.51472253 1389.87988281 1729.61816406 c 128,-1,372
 1389.17387608 1727.76745969 1389.17387608 1727.76745969 1390.39294885 1727.11566344 c 128,-1,373
 1391.61202163 1726.46386719 1391.61202163 1726.46386719 1395.77832031 1726.46386719 c 0,374,375
 1402.87988281 1726.46386719 1402.87988281 1726.46386719 1402.87988281 1723.39160156 c 128,-1,376
 1402.87988281 1720.3203125 1402.87988281 1720.3203125 1409.31054688 1720.3203125 c 128,-1,377
 1415.74033967 1720.3203125 1415.74033967 1720.3203125 1418.01464844 1717.25292969 c 128,-1,378
 1420.28420651 1714.18308179 1420.28420651 1714.18308179 1425.91992188 1713.73535156 c 128,-1,379
 1431.55175781 1713.27905212 1431.55175781 1713.27905212 1431.55175781 1710.94042969 c 128,-1,380
 1431.55175781 1708.6028925 1431.55175781 1708.6028925 1436.38574219 1709.52148438 c 128,-1,381
 1441.21967571 1710.44756143 1441.21967571 1710.44756143 1442.23730469 1706.546875 c 128,-1,382
 1443.26136927 1702.64481502 1443.26136927 1702.64481502 1450.71582031 1703.51074219 c 128,-1,383
 1458.17578125 1704.38582187 1458.17578125 1704.38582187 1458.17578125 1701.08886719 c 0,384,385
 1458.17578125 1695.84722341 1458.17578125 1695.84722341 1468.92773438 1697.55175781 c 0,386,387
 1470.46386719 1697.79327696 1470.46386719 1697.79327696 1470.46386719 1694.71972656 c 128,-1,388
 1470.46386719 1691.64794922 1470.46386719 1691.64794922 1476.60839844 1691.6484375 c 128,-1,389
 1482.75195312 1691.6484375 1482.75195312 1691.6484375 1482.75195312 1689.59960938 c 128,-1,390
 1482.75195312 1687.55175781 1482.75195312 1687.55175781 1487.03710938 1687.55175781 c 128,-1,391
 1491.32707581 1687.55175781 1491.32707581 1687.55175781 1492.33691406 1683.69140625 c 128,-1,392
 1493.34383983 1679.83382937 1493.34383983 1679.83382937 1497.56933594 1680.94238281 c 128,-1,393
 1501.79958235 1682.04428744 1501.79958235 1682.04428744 1504.35839844 1678.54101562 c 128,-1,394
 1506.91617414 1675.04314206 1506.91617414 1675.04314206 1511.07617188 1674.7265625 c 0,395,396
 1512.79260346 1674.59616352 1512.79260346 1674.59616352 1513.69483767 1673.98709113 c 128,-1,397
 1514.59707188 1673.37801875 1514.59707188 1673.37801875 1514.14746094 1672.65234375 c 128,-1,398
 1513.69855443 1671.92735608 1513.69855443 1671.92735608 1514.600978 1671.09139772 c 128,-1,399
 1515.50340157 1670.25543937 1515.50340157 1670.25543937 1517.21972656 1669.80566406 c 0,400,401
 1521.37998599 1668.71389264 1521.37998599 1668.71389264 1520.33300781 1665.98632812 c 0,402,403
 1519.79528113 1664.58486881 1519.79528113 1664.58486881 1521.19920815 1663.76309751 c 128,-1,404
 1522.60313517 1662.94132621 1522.60313517 1662.94132621 1526.10839844 1662.60742188 c 0,405,406
 1532.92423848 1661.95153913 1532.92423848 1661.95153913 1532.44140625 1659.46386719 c 0,407,408
 1532.23036494 1658.38814275 1532.23036494 1658.38814275 1532.95556641 1658.01464844 c 128,-1,409
 1533.68076787 1657.64115412 1533.68076787 1657.64115412 1535.00195312 1658.14746094 c 0,410,411
 1538.04785156 1659.31592379 1538.04785156 1659.31592379 1538.04785156 1656.16113281 c 128,-1,412
 1538.04785156 1653.01108191 1538.04785156 1653.01108191 1543.6796875 1652.36230469 c 128,-1,413
 1549.30997787 1651.70940608 1549.30997787 1651.70940608 1549.09179688 1648.52734375 c 128,-1,414
 1548.87942777 1645.33787448 1548.87942777 1645.33787448 1554.72363281 1646.19824219 c 128,-1,415
 1560.57617188 1647.05429692 1560.57617188 1647.05429692 1560.57617188 1643.75 c 128,-1,416
 1560.57617188 1640.44824219 1560.57617188 1640.44824219 1563.6484375 1640.44824219 c 128,-1,417
 1566.71972656 1640.44824219 1566.71972656 1640.44824219 1566.71972656 1637.77050781 c 128,-1,418
 1566.71972656 1635.09117281 1566.71972656 1635.09117281 1572.86425781 1635.51757812 c 128,-1,419
 1579.0078125 1635.94565459 1579.0078125 1635.94565459 1579.0078125 1633.07519531 c 128,-1,420
 1579.0078125 1630.20800781 1579.0078125 1630.20800781 1583.29296875 1630.20800781 c 128,-1,421
 1587.58047925 1630.20800781 1587.58047925 1630.20800781 1588.68457031 1625.99414062 c 128,-1,422
 1589.78919675 1621.78306102 1589.78919675 1621.78306102 1592.59179688 1622.86035156 c 128,-1,423
 1595.39160156 1623.93547656 1595.39160156 1623.93547656 1595.39160156 1620.92578125 c 128,-1,424
 1595.39160156 1617.91992188 1595.39160156 1617.91992188 1601.53613281 1617.91992188 c 128,-1,425
 1607.6796875 1617.91992188 1607.6796875 1617.91992188 1607.6796875 1615.72363281 c 128,-1,426
 1607.6796875 1613.6003418 1607.6796875 1613.6003418 1610.64001465 1610.64001465 c 128,-1,427
 1613.6003418 1607.6796875 1613.6003418 1607.6796875 1615.72363281 1607.6796875 c 128,-1,428
 1617.91992188 1607.6796875 1617.91992188 1607.6796875 1617.91992188 1604.828125 c 128,-1,429
 1617.91992188 1602.15233991 1617.91992188 1602.15233991 1621.00622559 1600.88977051 c 128,-1,430
 1624.0925293 1599.62720111 1624.0925293 1599.62720111 1627.46386719 1600.921875 c 0,431,432
 1629.4564181 1601.68564957 1629.4564181 1601.68564957 1629.9354248 1601.0880127 c 128,-1,433
 1630.41443151 1600.49037582 1630.41443151 1600.49037582 1629.77246094 1598.04394531 c 128,-1,434
 1629.12326934 1595.55950102 1629.12326934 1595.55950102 1629.67980957 1594.91455078 c 128,-1,435
 1630.2363498 1594.26960054 1630.2363498 1594.26960054 1632.51757812 1594.86425781 c 0,436,437
 1636.3515625 1595.86846568 1636.3515625 1595.86846568 1636.3515625 1592.56054688 c 128,-1,438
 1636.3515625 1589.24804688 1636.3515625 1589.24804688 1638.40039062 1589.24804688 c 128,-1,439
 1640.44824219 1589.24804688 1640.44824219 1589.24804688 1640.44824219 1585.93554688 c 128,-1,440
 1640.44824219 1582.62806936 1640.44824219 1582.62806936 1644.93847656 1583.80078125 c 0,441,442
 1648.33718656 1584.68781526 1648.33718656 1584.68781526 1655.65638625 1578.62964797 c 128,-1,443
 1662.97558594 1572.57148067 1662.97558594 1572.57148067 1662.97558594 1568.87011719 c 0,444,445
 1662.97558594 1566.71972656 1662.97558594 1566.71972656 1669.12011719 1566.71972656 c 128,-1,446
 1675.26367188 1566.71972656 1675.26367188 1566.71972656 1675.26367188 1563.6484375 c 128,-1,447
 1675.26367188 1560.57617188 1675.26367188 1560.57617188 1677.39941406 1560.57617188 c 0,448,449
 1680.07936939 1560.57617188 1680.07936939 1560.57617188 1683.89942114 1556.41747277 c 128,-1,450
 1687.71947289 1552.25877366 1687.71947289 1552.25877366 1686.640625 1550.515625 c 1,451,-1
 1688.46875 1549.55273438 l 2,452,453
 1691.6484375 1550.77615413 1691.6484375 1550.77615413 1691.6484375 1547.484375 c 128,-1,454
 1691.6484375 1544.19238281 1691.6484375 1544.19238281 1694.71972656 1544.19238281 c 128,-1,455
 1697.79199219 1544.19238281 1697.79199219 1544.19238281 1697.79199219 1541.19140625 c 0,456,457
 1697.79199219 1538.5302371 1697.79199219 1538.5302371 1701.63487899 1536.24119277 c 128,-1,458
 1705.4777658 1533.95214844 1705.4777658 1533.95214844 1709.94726562 1533.95214844 c 0,459,460
 1714.17578125 1533.95214844 1714.17578125 1533.95214844 1714.17578125 1530.87988281 c 128,-1,461
 1714.17578125 1527.80761719 1714.17578125 1527.80761719 1717.18164062 1527.80761719 c 128,-1,462
 1720.19307299 1527.80761719 1720.19307299 1527.80761719 1719.01464844 1524.73632812 c 0,463,464
 1718.21183158 1522.64724631 1718.21183158 1522.64724631 1719.87684952 1521.75187755 c 128,-1,465
 1721.54186746 1520.85650879 1721.54186746 1520.85650879 1725.08203125 1521.47460938 c 1,466,-1
 1725.38378906 1519.52929688 l 2,467,468
 1724.00772904 1517.29341516 1724.00772904 1517.29341516 1728.30761719 1516.16503906 c 128,-1,469
 1732.60839844 1515.04811445 1732.60839844 1515.04811445 1732.60839844 1512.20703125 c 128,-1,470
 1732.60839844 1509.37597656 1732.60839844 1509.37597656 1734.8046875 1509.37597656 c 128,-1,471
 1736.99511719 1509.37597656 1736.99511719 1509.37597656 1740.06738281 1506.30371094 c 128,-1,472
 1743.14044719 1503.23242188 1743.14044719 1503.23242188 1741.72167969 1503.23242188 c 128,-1,473
 1740.29555644 1503.23242188 1740.29555644 1503.23242188 1742.82714844 1500.18066406 c 128,-1,474
 1745.36278352 1497.13114502 1745.36278352 1497.13114502 1747.49707031 1498.45507812 c 0,475,476
 1748.80667632 1499.26121124 1748.80667632 1499.26121124 1748.87188585 1497.77141399 c 0,477,478
 1748.90668713 1496.9763329 1748.90668713 1496.9763329 1748.55175781 1495.61816406 c 0,479,480
 1747.8874113 1493.08016995 1747.8874113 1493.08016995 1748.48901367 1492.48449707 c 128,-1,481
 1749.09061604 1491.88882419 1749.09061604 1491.88882419 1751.64453125 1492.55664062 c 128,-1,482
 1754.09057446 1493.19836984 1754.09057446 1493.19836984 1754.68774414 1492.71960449 c 128,-1,483
 1755.28491382 1492.24083914 1755.28491382 1492.24083914 1754.52148438 1490.24804688 c 0,484,485
 1753.21779866 1486.84765625 1753.21779866 1486.84765625 1757.25097656 1486.84765625 c 128,-1,486
 1761.28027344 1486.84765625 1761.28027344 1486.84765625 1761.28027344 1483.65332031 c 128,-1,487
 1761.28027344 1480.46227202 1761.28027344 1480.46227202 1763.328125 1481.72753906 c 128,-1,488
 1765.37597656 1482.99567958 1765.37597656 1482.99567958 1765.37597656 1479.80273438 c 128,-1,489
 1765.37597656 1476.60839844 1765.37597656 1476.60839844 1768.66796875 1476.60839844 c 128,-1,490
 1771.9587471 1476.60839844 1771.9587471 1476.60839844 1770.77734375 1473.53613281 c 0,491,492
 1769.94826736 1471.37408908 1769.94826736 1471.37408908 1771.52950002 1470.5262671 c 128,-1,493
 1773.11073269 1469.67844511 1773.11073269 1469.67844511 1776.63964844 1470.39257812 c 0,494,495
 1777.48546058 1470.5611542 1777.48546058 1470.5611542 1777.64086914 1470.23669434 c 128,-1,496
 1777.7962777 1469.91223447 1777.7962777 1469.91223447 1777.16699219 1469.28613281 c 0,497,498
 1775.69250139 1467.8079796 1775.69250139 1467.8079796 1777.94862161 1465.07261581 c 128,-1,499
 1780.20474184 1462.33725203 1780.20474184 1462.33725203 1781.99023438 1463.43945312 c 0,500,501
 1782.73947571 1463.90379233 1782.73947571 1463.90379233 1783.27354645 1463.29591337 c 128,-1,502
 1783.80761719 1462.68803441 1783.80761719 1462.68803441 1783.80761719 1461.37109375 c 0,503,504
 1783.80761719 1458.17578125 1783.80761719 1458.17578125 1787.11035156 1458.17578125 c 128,-1,505
 1790.4144903 1458.17578125 1790.4144903 1458.17578125 1789.53222656 1452.13964844 c 2,506,-1
 1790.3359375 1447.14746094 l 1,507,508
 1792.02871474 1448.19967991 1792.02871474 1448.19967991 1793.25976562 1444.9921875 c 128,-1,509
 1794.487335 1441.79199219 1794.487335 1441.79199219 1797.33984375 1441.79199219 c 128,-1,510
 1800.19238281 1441.79199219 1800.19238281 1441.79199219 1800.19238281 1438.71972656 c 128,-1,511
 1800.19238281 1435.6484375 1800.19238281 1435.6484375 1803.26367188 1435.6484375 c 128,-1,512
 1806.3359375 1435.6484375 1806.3359375 1435.6484375 1806.3359375 1432.453125 c 0,513,514
 1806.3359375 1431.13615989 1806.3359375 1431.13615989 1806.8307071 1430.50449283 c 128,-1,515
 1807.32547669 1429.87282577 1807.32547669 1429.87282577 1808.02050781 1430.30273438 c 0,516,517
 1809.43028987 1431.17468897 1809.43028987 1431.17468897 1813.00323087 1427.41093762 c 128,-1,518
 1816.57617188 1423.64718626 1816.57617188 1423.64718626 1816.57617188 1421.28613281 c 0,519,520
 1816.57617188 1419.26367188 1816.57617188 1419.26367188 1819.6484375 1419.26367188 c 128,-1,521
 1822.72021484 1419.26367188 1822.72021484 1419.26367188 1822.71972656 1413.12011719 c 128,-1,522
 1822.71972656 1406.97558594 1822.71972656 1406.97558594 1825.57226562 1406.97558594 c 128,-1,523
 1828.42446833 1406.97558594 1828.42446833 1406.97558594 1829.65234375 1403.77636719 c 128,-1,524
 1830.88316144 1400.56770374 1830.88316144 1400.56770374 1832.94433594 1401.84570312 c 128,-1,525
 1835.0078125 1403.11853489 1835.0078125 1403.11853489 1835.0078125 1399.93066406 c 128,-1,526
 1835.0078125 1396.73632812 1835.0078125 1396.73632812 1838.3203125 1396.73632812 c 128,-1,527
 1841.62828589 1396.73632812 1841.62828589 1396.73632812 1840.61914062 1391.45214844 c 128,-1,528
 1839.6123745 1386.17392725 1839.6123745 1386.17392725 1842.42675781 1385.09277344 c 128,-1,529
 1845.24804688 1384.00438439 1845.24804688 1384.00438439 1845.24804688 1381.22265625 c 128,-1,530
 1845.24804688 1378.43106294 1845.24804688 1378.43106294 1848.3203125 1379.609375 c 128,-1,531
 1851.39160156 1380.7870555 1851.39160156 1380.7870555 1851.39160156 1376.53808594 c 128,-1,532
 1851.39160156 1372.28830674 1851.39160156 1372.28830674 1854.46386719 1373.46582031 c 0,533,534
 1856.20673997 1374.13733894 1856.20673997 1374.13733894 1856.87143639 1373.01574868 c 128,-1,535
 1857.53613281 1371.89415842 1857.53613281 1371.89415842 1857.53613281 1368.28417969 c 0,536,537
 1857.53613281 1361.91992188 1857.53613281 1361.91992188 1860.60839844 1361.91992188 c 128,-1,538
 1863.6796875 1361.91992188 1863.6796875 1361.91992188 1863.6796875 1359.60058594 c 128,-1,539
 1863.6796875 1357.27239511 1863.6796875 1357.27239511 1868.63085938 1352.94433594 c 128,-1,540
 1873.58352659 1348.60609069 1873.58352659 1348.60609069 1874.30957031 1343.48828125 c 0,541,542
 1874.6127374 1341.37636364 1874.6127374 1341.37636364 1875.5648189 1340.02263513 c 128,-1,543
 1876.51690039 1338.66890662 1876.51690039 1338.66890662 1877.54980469 1338.87988281 c 128,-1,544
 1878.58704541 1339.09084703 1878.58704541 1339.09084703 1879.32574927 1338.05776948 c 128,-1,545
 1880.06445312 1337.02469194 1880.06445312 1337.02469194 1880.06445312 1335.36230469 c 128,-1,546
 1880.06445312 1333.53510779 1880.06445312 1333.53510779 1880.78167471 1332.70747081 c 128,-1,547
 1881.4988963 1331.87983384 1881.4988963 1331.87983384 1882.68554688 1332.33691406 c 128,-1,548
 1883.94534079 1332.81666116 1883.94534079 1332.81666116 1884.74513383 1331.62741666 c 128,-1,549
 1885.54492687 1330.43817215 1885.54492687 1330.43817215 1885.76757812 1327.75390625 c 0,550,551
 1886.23287238 1322.15794372 1886.23287238 1322.15794372 1888.56835938 1320.02832031 c 1,552,553
 1888.01767294 1323.0078125 1888.01767294 1323.0078125 1890.18066406 1323.0078125 c 128,-1,554
 1892.3515625 1323.0078125 1892.3515625 1323.0078125 1892.3515625 1315.88574219 c 128,-1,555
 1892.3515625 1308.76750327 1892.3515625 1308.76750327 1897.47167969 1305.41015625 c 128,-1,556
 1902.59179688 1302.0600657 1902.59179688 1302.0600657 1902.59179688 1298.41699219 c 128,-1,557
 1902.59179688 1294.77648347 1902.59179688 1294.77648347 1905.6640625 1293.59375 c 128,-1,558
 1908.73632812 1292.41989591 1908.73632812 1292.41989591 1908.73632812 1287.234375 c 128,-1,559
 1908.73632812 1282.04785156 1908.73632812 1282.04785156 1911.80761719 1282.04785156 c 128,-1,560
 1914.87988281 1282.04785156 1914.87988281 1282.04785156 1914.87988281 1278.97558594 c 128,-1,561
 1914.87988281 1275.90429688 1914.87988281 1275.90429688 1916.92773438 1275.90429688 c 0,562,563
 1917.77292792 1275.90429688 1917.77292792 1275.90429688 1918.30394568 1275.45301091 c 128,-1,564
 1918.83496345 1275.00172495 1918.83496345 1275.00172495 1918.73535156 1274.36816406 c 0,565,566
 1918.29399939 1271.22432502 1918.29399939 1271.22432502 1918.54423466 1268.93909144 c 128,-1,567
 1918.79446994 1266.65385785 1918.79446994 1266.65385785 1919.74092159 1265.52737992 c 128,-1,568
 1920.68737323 1264.40090199 1920.68737323 1264.40090199 1922.04785156 1264.921875 c 0,569,570
 1925.12011719 1266.10173605 1925.12011719 1266.10173605 1925.12011719 1262.8125 c 128,-1,571
 1925.12011719 1259.51765987 1925.12011719 1259.51765987 1928.70410156 1259.48925781 c 128,-1,572
 1932.29489907 1259.45768502 1932.29489907 1259.45768502 1929.41015625 1257.63574219 c 128,-1,573
 1926.53657156 1255.81479694 1926.53657156 1255.81479694 1931.97070312 1250.77539062 c 128,-1,574
 1937.40820312 1245.73744565 1937.40820312 1245.73744565 1937.40820312 1241.36425781 c 128,-1,575
 1937.40820312 1236.9921875 1937.40820312 1236.9921875 1940.70996094 1236.9921875 c 128,-1,576
 1944.0147971 1236.9921875 1944.0147971 1236.9921875 1943.13183594 1230.97070312 c 128,-1,577
 1942.25487568 1224.95186543 1942.25487568 1224.95186543 1944.4375 1225.33886719 c 128,-1,578
 1946.62263426 1225.72906973 1946.62263426 1225.72906973 1947.27441406 1220.09570312 c 128,-1,579
 1947.91722428 1214.46386719 1947.91722428 1214.46386719 1950.85839844 1214.46386719 c 128,-1,580
 1953.7924884 1214.46386719 1953.7924884 1214.46386719 1953.82226562 1206.78417969 c 0,581,582
 1953.86559543 1195.77976244 1953.86559543 1195.77976244 1957.0456083 1193.99278813 c 1,583,-1
 1958.12890625 1196.03222656 l 2,584,585
 1958.25434303 1197.33166152 1958.25434303 1197.33166152 1958.75037678 1196.04207959 c 128,-1,586
 1959.22143606 1194.81742593 1959.22143606 1194.81742593 1959.75683594 1191.93554688 c 0,587,588
 1961.09696677 1184.77094098 1961.09696677 1184.77094098 1963.83789062 1185.36230469 c 0,589,590
 1965.1202314 1185.6420615 1965.1202314 1185.6420615 1965.53564453 1184.9744873 c 128,-1,591
 1965.95105766 1184.30691311 1965.95105766 1184.30691311 1965.39355469 1182.86328125 c 0,592,593
 1964.20419409 1179.76846216 1964.20419409 1179.76846216 1967.19140625 1176.78125 c 128,-1,594
 1970.17578125 1173.796875 1970.17578125 1173.796875 1970.17578125 1168.53222656 c 128,-1,595
 1970.17578125 1163.26367188 1970.17578125 1163.26367188 1973.37109375 1163.26367188 c 0,596,597
 1974.6883727 1163.26367188 1974.6883727 1163.26367188 1975.33704758 1162.79861033 c 128,-1,598
 1975.98572246 1162.33354879 1975.98572246 1162.33354879 1975.58300781 1161.67675781 c 0,599,600
 1974.25822224 1159.53835324 1974.25822224 1159.53835324 1976.25033422 1152.75548001 c 128,-1,601
 1978.2424462 1145.97260678 1978.2424462 1145.97260678 1980.078125 1146.36816406 c 0,602,603
 1982.46386719 1146.88088233 1982.46386719 1146.88088233 1982.46386719 1139.77832031 c 0,604,605
 1982.46386719 1135.61202163 1982.46386719 1135.61202163 1983.11566344 1134.39294885 c 128,-1,606
 1983.76745969 1133.17387608 1983.76745969 1133.17387608 1985.61816406 1133.87988281 c 128,-1,607
 1987.52186901 1134.61354141 1987.52186901 1134.61354141 1988.04467381 1133.34667046 c 128,-1,608
 1988.56747861 1132.0797995 1988.56747861 1132.0797995 1988.25976562 1127.48535156 c 0,609,610
 1987.74413807 1119.87614286 1987.74413807 1119.87614286 1991.37304688 1117.84960938 c 128,-1,611
 1995.0031533 1115.81966239 1995.0031533 1115.81966239 1994.64941406 1111.3828125 c 0,612,613
 1994.05954544 1098.34889148 1994.05954544 1098.34889148 1996.79980469 1098.75195312 c 2,614,-1
 1998.79986074 1093.70527359 l 1,615,-1
 1998.84765625 1091.70703125 l 2,616,617
 1998.84765625 1083.39160156 1998.84765625 1083.39160156 2001.91992188 1083.39160156 c 128,-1,618
 2004.9921875 1083.39160156 2004.9921875 1083.39160156 2004.9921875 1075.36914062 c 128,-1,619
 2004.9921875 1067.35084497 2004.9921875 1067.35084497 2007.46972656 1066.52148438 c 128,-1,620
 2009.94618772 1065.69717659 2009.94618772 1065.69717659 2010.39355469 1057.87890625 c 0,621,622
 2012.11895575 1041.22174375 2012.11895575 1041.22174375 2015.09375 1042.20703125 c 0,623,624
 2015.8348597 1043.40513354 2015.8348597 1043.40513354 2016.29012912 1041.57726314 c 128,-1,625
 2016.72167969 1039.84462201 2016.72167969 1039.84462201 2016.72167969 1036.05273438 c 0,626,627
 2016.72167969 1027.25491633 2016.72167969 1027.25491633 2019.046875 1026.48339844 c 128,-1,628
 2021.37597656 1025.70386886 2021.37597656 1025.70386886 2021.37597656 1011.54296875 c 128,-1,629
 2021.37597656 997.375976562 2021.37597656 997.375976562 2024.44824219 997.375976562 c 128,-1,630
 2027.51953125 997.375976562 2027.51953125 997.375976562 2027.51953125 986.112304688 c 128,-1,631
 2027.51953125 974.84765625 2027.51953125 974.84765625 2030.59179688 974.84765625 c 128,-1,632
 2033.6640625 974.84765625 2033.6640625 974.84765625 2033.6640625 958.463867188 c 128,-1,633
 2033.6640625 942.080078125 2033.6640625 942.080078125 2036.3828125 942.080078125 c 128,-1,634
 2039.09334827 942.080078125 2039.09334827 942.080078125 2039.62402344 925.18359375 c 0,635,636
 2039.66109966 923.992470193 2039.66109966 923.992470193 2039.72867109 921.798261224 c 2,637,-1
 2041.47595408 904.125447698 l 1,638,-1
 2042.4070597 904.815550381 l 1,639,-1
 2042.78320312 905.133789062 l 2,640,641
 2044.71053525 906.734234784 2044.71053525 906.734234784 2045.09422494 902.85585791 c 0,642,643
 2045.80280841 895.693419459 2045.80280841 895.693419459 2047.17578125 794.112304688 c 0,644,645
 2048.61697924 688.127929688 2048.61697924 688.127929688 2046.77148438 688.127929688 c 128,-1,646
 2044.92516177 688.136730081 2044.92516177 688.136730081 2045.4140625 660.9921875 c 128,-1,647
 2045.90448826 633.855295291 2045.90448826 633.855295291 2042.97753906 631.669921875 c 128,-1,648
 2040.05281095 629.486045542 2040.05281095 629.486045542 2039.63867188 616.309570312 c 128,-1,649
 2039.23936639 603.144912247 2039.23936639 603.144912247 2037.26855469 599.306640625 c 128,-1,650
 2035.31137865 595.485289105 2035.31137865 595.485289105 2037.55566406 596.864257812 c 128,-1,651
 2039.80761719 598.260184592 2039.80761719 598.260184592 2039.80761719 596.090820312 c 128,-1,652
 2039.80761719 593.919921875 2039.80761719 593.919921875 2036.73632812 593.919921875 c 128,-1,653
 2033.6640625 593.919921875 2033.6640625 593.919921875 2033.6640625 577.536132812 c 128,-1,654
 2033.6640625 561.15234375 2033.6640625 561.15234375 2030.59179688 561.15234375 c 128,-1,655
 2027.51953125 561.15234375 2027.51953125 561.15234375 2027.51953125 549.887695312 c 128,-1,656
 2027.51953125 538.624023438 2027.51953125 538.624023438 2024.44824219 538.624023438 c 128,-1,657
 2021.37597656 538.624023438 2021.37597656 538.624023438 2021.37597656 524.45703125 c 128,-1,658
 2021.37597656 510.296791223 2021.37597656 510.296791223 2018.97460938 509.491210938 c 128,-1,659
 2016.57515742 508.691393619 2016.57515742 508.691393619 2016.91601562 500.106445312 c 128,-1,660
 2017.24618077 491.51953125 2017.24618077 491.51953125 2014.19238281 491.51953125 c 0,661,662
 2010.77461857 491.51953125 2010.77461857 491.51953125 2010.64453125 476.502929688 c 0,663,664
 2010.58771148 470.703761476 2010.58771148 470.703761476 2007.79296875 469.626953125 c 128,-1,665
 2004.9921875 468.558613885 2004.9921875 468.558613885 2004.9921875 460.580078125 c 128,-1,666
 2004.9921875 452.608398438 2004.9921875 452.608398438 2001.91992188 452.608398438 c 128,-1,667
 1998.84765625 452.608398438 1998.84765625 452.608398438 1998.84765625 444.584960938 c 128,-1,668
 1998.84765625 436.561404666 1998.84765625 436.561404666 1996.48242188 435.778320312 c 128,-1,669
 1994.12207031 434.986196296 1994.12207031 434.986196296 1994.12207031 426.388671875 c 128,-1,670
 1994.12207031 417.791992188 1994.12207031 417.791992188 1991.36230469 417.791992188 c 0,671,672
 1987.75004549 417.791992188 1987.75004549 417.791992188 1988.3515625 406.809570312 c 0,673,674
 1988.53255236 403.459426103 1988.53255236 403.459426103 1987.93640899 402.457405088 c 128,-1,675
 1987.34026563 401.455384072 1987.34026563 401.455384072 1985.56640625 402.134765625 c 0,676,677
 1984.19858131 402.660962431 1984.19858131 402.660962431 1983.2140842 401.173828125 c 128,-1,678
 1982.22958709 399.686693819 1982.22958709 399.686693819 1981.98220486 396.9453125 c 128,-1,679
 1981.73482263 394.203931181 1981.73482263 394.203931181 1982.22363281 390.65625 c 0,680,681
 1982.46515196 389.120117188 1982.46515196 389.120117188 1979.39160156 389.120117188 c 128,-1,682
 1976.3203125 389.120117188 1976.3203125 389.120117188 1976.3203125 380.927734375 c 128,-1,683
 1976.3203125 372.736328125 1976.3203125 372.736328125 1973.24804688 372.736328125 c 128,-1,684
 1970.17578125 372.736328125 1970.17578125 372.736328125 1970.17578125 366.372070312 c 0,685,686
 1970.17578125 362.746288267 1970.17578125 362.746288267 1969.51091497 361.632815063 c 128,-1,687
 1968.84604869 360.519341859 1968.84604869 360.519341859 1967.08398438 361.1953125 c 128,-1,688
 1965.24018635 361.902211623 1965.24018635 361.902211623 1964.8326416 360.913208008 c 128,-1,689
 1964.42509685 359.924204392 1964.42509685 359.924204392 1965.06640625 356.295898438 c 0,690,691
 1966.13712105 350.208007812 1966.13712105 350.208007812 1963.0390625 350.208007812 c 128,-1,692
 1959.93554688 350.208007812 1959.93554688 350.208007812 1959.93554688 342.015625 c 128,-1,693
 1959.93554688 333.82421875 1959.93554688 333.82421875 1956.86425781 333.82421875 c 0,694,695
 1951.84498054 333.82421875 1951.84498054 333.82421875 1953.55175781 323.072265625 c 0,696,697
 1953.79327696 321.536132812 1953.79327696 321.536132812 1950.71972656 321.536132812 c 128,-1,698
 1947.6484375 321.536132812 1947.6484375 321.536132812 1947.6484375 315.171875 c 128,-1,699
 1947.6484375 308.80755065 1947.6484375 308.80755065 1944.95996094 309.841796875 c 0,700,701
 1942.7329583 310.693594562 1942.7329583 310.693594562 1942.90583401 307.20918968 c 0,702,703
 1942.95237845 306.271060869 1942.95237845 306.271060869 1943.14746094 304.942382812 c 0,704,705
 1944.01384056 299.0078125 1944.01384056 299.0078125 1940.70996094 299.0078125 c 128,-1,706
 1937.40820312 299.0078125 1937.40820312 299.0078125 1937.40820312 294.34375 c 128,-1,707
 1937.40820312 289.678208559 1937.40820312 289.678208559 1933.35253906 286.208007812 c 128,-1,708
 1929.30425534 282.738940065 1929.30425534 282.738940065 1930.62890625 279.270507812 c 128,-1,709
 1931.95868942 275.806659628 1931.95868942 275.806659628 1929.42578125 277.375976562 c 128,-1,710
 1926.88871612 278.943433666 1926.88871612 278.943433666 1925.75976562 274.606445312 c 128,-1,711
 1924.62355014 270.266802905 1924.62355014 270.266802905 1921.29003906 270.817382812 c 128,-1,712
 1917.9508572 271.356541657 1917.9508572 271.356541657 1918.61230469 265.72265625 c 128,-1,713
 1919.27117389 260.082676074 1919.27117389 260.082676074 1916.0625 258.8515625 c 128,-1,714
 1912.85860252 257.613006457 1912.85860252 257.613006457 1913.84570312 256.020507812 c 0,715,716
 1914.25290558 255.35990239 1914.25290558 255.35990239 1913.41702698 254.594636343 c 128,-1,717
 1912.58114837 253.829370296 1912.58114837 253.829370296 1910.99902344 253.4140625 c 0,718,719
 1907.15690214 252.409180085 1907.15690214 252.409180085 1908.18847656 247.03515625 c 128,-1,720
 1909.21160442 241.6640625 1909.21160442 241.6640625 1905.90429688 241.6640625 c 128,-1,721
 1902.59179688 241.6640625 1902.59179688 241.6640625 1902.59179688 236.543945312 c 128,-1,722
 1902.59179688 231.423828125 1902.59179688 231.423828125 1899.51953125 231.423828125 c 128,-1,723
 1896.44824219 231.423828125 1896.44824219 231.423828125 1896.44824219 229.227539062 c 128,-1,724
 1896.44824219 227.036132812 1896.44824219 227.036132812 1893.46289062 224.05078125 c 128,-1,725
 1890.48073606 221.068626687 1890.48073606 221.068626687 1891.55371094 218.260742188 c 128,-1,726
 1892.6336504 215.457872984 1892.6336504 215.457872984 1890.125 213.908203125 c 128,-1,727
 1887.62033023 212.358922855 1887.62033023 212.358922855 1889.28027344 215.040039062 c 2,728,-1
 1888.57324219 216.258789062 l 1,729,730
 1886.20800781 214.796288769 1886.20800781 214.796288769 1886.20800781 209.869140625 c 128,-1,731
 1886.20800781 204.939408736 1886.20800781 204.939408736 1882.05566406 202.721679688 c 128,-1,732
 1877.90336728 200.496346979 1877.90336728 200.496346979 1879.1015625 198.553710938 c 0,733,734
 1879.60020754 197.751192641 1879.60020754 197.751192641 1879.01634575 197.179795539 c 128,-1,735
 1878.43248396 196.608398438 1878.43248396 196.608398438 1877.11523438 196.608398438 c 0,736,737
 1873.91992188 196.608398438 1873.91992188 196.608398438 1873.91992188 191.774414062 c 128,-1,738
 1873.91992188 186.944877134 1873.91992188 186.944877134 1868.79980469 183.096679688 c 128,-1,739
 1863.6796875 179.249931915 1863.6796875 179.249931915 1863.6796875 176.666015625 c 128,-1,740
 1863.6796875 174.080078125 1863.6796875 174.080078125 1860.60839844 174.080078125 c 128,-1,741
 1857.53613281 174.080078125 1857.53613281 174.080078125 1857.53613281 167.715820312 c 0,742,743
 1857.53613281 164.105841576 1857.53613281 164.105841576 1856.87143639 162.984251317 c 128,-1,744
 1856.20673997 161.862661058 1856.20673997 161.862661058 1854.46386719 162.534179688 c 0,745,746
 1851.39160156 163.709080707 1851.39160156 163.709080707 1851.39160156 159.677734375 c 128,-1,747
 1851.39160156 155.6484375 1851.39160156 155.6484375 1849.36914062 155.6484375 c 0,748,749
 1846.57484926 155.6484375 1846.57484926 155.6484375 1843.14975898 151.935788433 c 128,-1,750
 1839.72466871 148.223139367 1839.72466871 148.223139367 1840.54296875 146.083984375 c 128,-1,751
 1841.34923283 143.987404853 1841.34923283 143.987404853 1834.36759229 136.505909458 c 128,-1,752
 1827.38595176 129.024414062 1827.38595176 129.024414062 1824.625 129.024414062 c 0,753,754
 1822.71972656 129.024414062 1822.71972656 129.024414062 1822.71972656 123.12109375 c 128,-1,755
 1822.71972656 117.215930589 1822.71972656 117.215930589 1818.41894531 116.090820312 c 128,-1,756
 1814.1160983 114.962005724 1814.1160983 114.962005724 1815.6796875 112.4296875 c 128,-1,757
 1817.25731113 109.890030907 1817.25731113 109.890030907 1813.61132812 111.29296875 c 0,758,759
 1811.67997158 112.034075254 1811.67997158 112.034075254 1811.07922363 111.705444336 c 128,-1,760
 1810.47847568 111.376813417 1810.47847568 111.376813417 1811.046875 109.890625 c 0,761,762
 1811.86429455 107.767238556 1811.86429455 107.767238556 1808.43147438 104.059400528 c 128,-1,763
 1804.99865421 100.3515625 1804.99865421 100.3515625 1802.21484375 100.3515625 c 0,764,765
 1800.19238281 100.3515625 1800.19238281 100.3515625 1800.19238281 97.2802734375 c 128,-1,766
 1800.19238281 94.2080078125 1800.19238281 94.2080078125 1797.85742188 94.2080078125 c 0,767,768
 1795.27618693 94.2080078125 1795.27618693 94.2080078125 1792.67409477 90.3006921909 c 128,-1,769
 1790.07200261 86.3933765693 1790.07200261 86.3933765693 1790.01855469 82.431640625 c 0,770,771
 1789.95235205 77.82421875 1789.95235205 77.82421875 1785.92285156 77.82421875 c 128,-1,772
 1781.89052867 77.82421875 1781.89052867 77.82421875 1783.06542969 74.751953125 c 128,-1,773
 1784.24683304 71.6796875 1784.24683304 71.6796875 1780.95605469 71.6796875 c 128,-1,774
 1777.6640625 71.6796875 1777.6640625 71.6796875 1777.6640625 68.6083984375 c 128,-1,775
 1777.6640625 65.5361328125 1777.6640625 65.5361328125 1774.59179688 65.5361328125 c 128,-1,776
 1771.51953125 65.5361328125 1771.51953125 65.5361328125 1771.51953125 62.244140625 c 128,-1,777
 1771.51953125 58.9537378028 1771.51953125 58.9537378028 1768.44824219 60.134765625 c 128,-1,778
 1765.37597656 61.3112108976 1765.37597656 61.3112108976 1765.37597656 58.158203125 c 0,779,780
 1765.37597656 55.4397135169 1765.37597656 55.4397135169 1762.56774326 52.2960286335 c 128,-1,781
 1759.75950995 49.15234375 1759.75950995 49.15234375 1757.33203125 49.15234375 c 0,782,783
 1755.13574219 49.15234375 1755.13574219 49.15234375 1755.13574219 46.080078125 c 128,-1,784
 1755.13574219 43.0078125 1755.13574219 43.0078125 1752.06445312 43.0078125 c 128,-1,785
 1748.9921875 43.0078125 1748.9921875 43.0078125 1748.9921875 39.935546875 c 128,-1,786
 1748.9921875 36.8642578125 1748.9921875 36.8642578125 1745.91992188 36.8642578125 c 128,-1,787
 1742.84765625 36.8642578125 1742.84765625 36.8642578125 1742.84765625 34.66796875 c 0,788,789
 1742.84765625 32.2404900498 1742.84765625 32.2404900498 1739.70397137 29.4322567437 c 128,-1,790
 1736.56028648 26.6240234375 1736.56028648 26.6240234375 1733.84179688 26.6240234375 c 0,791,792
 1730.6887891 26.6240234375 1730.6887891 26.6240234375 1731.86523438 23.5517578125 c 128,-1,793
 1733.0462622 20.48046875 1733.0462622 20.48046875 1729.75585938 20.48046875 c 128,-1,794
 1726.46386719 20.48046875 1726.46386719 20.48046875 1726.46386719 17.408203125 c 128,-1,795
 1726.46386719 14.3359375 1726.46386719 14.3359375 1723.39160156 14.3359375 c 128,-1,796
 1720.3203125 14.3359375 1720.3203125 14.3359375 1720.3203125 11.0439453125 c 128,-1,797
 1720.3203125 7.75316696473 1720.3203125 7.75316696473 1717.24804688 8.9345703125 c 128,-1,798
 1714.17578125 10.1094713323 1714.17578125 10.1094713323 1714.17578125 6.0771484375 c 128,-1,799
 1714.17578125 2.04764795026 1714.17578125 2.04764795026 1709.56835938 1.9814453125 c 0,800,801
 1705.60662343 1.92799738718 1705.60662343 1.92799738718 1701.69930781 -0.674094771592 c 128,-1,802
 1697.79199219 -3.27618693036 1697.79199219 -3.27618693036 1697.79199219 -5.857421875 c 0,803,804
 1697.79199219 -8.1923828125 1697.79199219 -8.1923828125 1694.71972656 -8.1923828125 c 128,-1,805
 1691.6484375 -8.1923828125 1691.6484375 -8.1923828125 1691.6484375 -10.21484375 c 0,806,807
 1691.6484375 -12.9986542109 1691.6484375 -12.9986542109 1687.94059947 -16.4314743797 c 128,-1,808
 1684.23276144 -19.8642945485 1684.23276144 -19.8642945485 1682.109375 -19.046875 c 0,809,810
 1679.31233957 -17.9771364615 1679.31233957 -17.9771364615 1680.70703125 -21.611328125 c 128,-1,811
 1682.10996909 -25.2573111338 1682.10996909 -25.2573111338 1679.5703125 -23.6796875 c 128,-1,812
 1677.03799428 -22.116098304 1677.03799428 -22.116098304 1675.90917969 -26.4189453125 c 128,-1,813
 1674.78406941 -30.7197265625 1674.78406941 -30.7197265625 1668.87890625 -30.7197265625 c 128,-1,814
 1662.97558594 -30.7197265625 1662.97558594 -30.7197265625 1662.97558594 -32.625 c 0,815,816
 1662.97558594 -35.3859517564 1662.97558594 -35.3859517564 1655.49409054 -42.3675922919 c 128,-1,817
 1648.01259515 -49.3492328273 1648.01259515 -49.3492328273 1645.91601562 -48.54296875 c 128,-1,818
 1643.77686063 -47.7246687069 1643.77686063 -47.7246687069 1640.06421157 -51.1497589816 c 128,-1,819
 1636.3515625 -54.5748492562 1636.3515625 -54.5748492562 1636.3515625 -57.369140625 c 0,820,821
 1636.3515625 -59.3916015625 1636.3515625 -59.3916015625 1632.32226562 -59.3916015625 c 128,-1,822
 1628.29091929 -59.3916015625 1628.29091929 -59.3916015625 1629.46582031 -62.4638671875 c 0,823,824
 1630.13733894 -64.2067399651 1630.13733894 -64.2067399651 1629.01574868 -64.8714363888 c 128,-1,825
 1627.89415842 -65.5361328125 1627.89415842 -65.5361328125 1624.28417969 -65.5361328125 c 0,826,827
 1617.91992188 -65.5361328125 1617.91992188 -65.5361328125 1617.91992188 -68.6083984375 c 128,-1,828
 1617.91992188 -71.6796875 1617.91992188 -71.6796875 1615.33398438 -71.6796875 c 128,-1,829
 1612.75006809 -71.6796875 1612.75006809 -71.6796875 1608.90332031 -76.7998046875 c 128,-1,830
 1605.05512287 -81.919921875 1605.05512287 -81.919921875 1600.22558594 -81.919921875 c 128,-1,831
 1595.39160156 -81.919921875 1595.39160156 -81.919921875 1595.39160156 -85.115234375 c 0,832,833
 1595.39160156 -86.4324839584 1595.39160156 -86.4324839584 1594.82020446 -87.0163457475 c 128,-1,834
 1594.24880736 -87.6002075366 1594.24880736 -87.6002075366 1593.44628906 -87.1015625 c 0,835,836
 1591.50365302 -85.9033672772 1591.50365302 -85.9033672772 1589.27832031 -90.0556640625 c 128,-1,837
 1587.06059126 -94.2080078125 1587.06059126 -94.2080078125 1582.13085938 -94.2080078125 c 128,-1,838
 1577.20371123 -94.2080078125 1577.20371123 -94.2080078125 1575.74121094 -96.5732421875 c 1,839,-1
 1576.95996094 -97.2802734375 l 2,840,841
 1579.64107715 -95.6203302299 1579.64107715 -95.6203302299 1578.09179688 -98.125 c 128,-1,842
 1576.54212702 -100.633650403 1576.54212702 -100.633650403 1573.73925781 -99.5537109375 c 128,-1,843
 1570.93137331 -98.4807360622 1570.93137331 -98.4807360622 1567.94921875 -101.462890625 c 128,-1,844
 1564.96386719 -104.448242188 1564.96386719 -104.448242188 1562.77246094 -104.448242188 c 128,-1,845
 1560.57617188 -104.448242188 1560.57617188 -104.448242188 1560.57617188 -107.51953125 c 128,-1,846
 1560.57617188 -110.591796875 1560.57617188 -110.591796875 1555.45605469 -110.591796875 c 128,-1,847
 1550.3359375 -110.591796875 1550.3359375 -110.591796875 1550.3359375 -113.904296875 c 128,-1,848
 1550.3359375 -117.211604421 1550.3359375 -117.211604421 1544.96484375 -116.188476562 c 128,-1,849
 1539.59081992 -115.156902141 1539.59081992 -115.156902141 1538.5859375 -118.999023438 c 0,850,851
 1538.1706297 -120.581148374 1538.1706297 -120.581148374 1537.40536366 -121.417026977 c 128,-1,852
 1536.64009761 -122.25290558 1536.64009761 -122.25290558 1535.97949219 -121.845703125 c 0,853,854
 1534.38699354 -120.858602516 1534.38699354 -120.858602516 1533.1484375 -124.0625 c 128,-1,855
 1531.91732393 -127.271173895 1531.91732393 -127.271173895 1526.27734375 -126.612304688 c 128,-1,856
 1520.64345834 -125.9508572 1520.64345834 -125.9508572 1521.18261719 -129.290039062 c 128,-1,857
 1521.7331971 -132.623550139 1521.7331971 -132.623550139 1517.39355469 -133.759765625 c 128,-1,858
 1513.05656633 -134.888716122 1513.05656633 -134.888716122 1514.62402344 -137.42578125 c 128,-1,859
 1516.19334037 -139.958689416 1516.19334037 -139.958689416 1512.72949219 -138.62890625 c 128,-1,860
 1509.26105993 -137.304255336 1509.26105993 -137.304255336 1505.79199219 -141.352539062 c 128,-1,861
 1502.32179144 -145.408203125 1502.32179144 -145.408203125 1497.65625 -145.408203125 c 128,-1,862
 1492.9921875 -145.408203125 1492.9921875 -145.408203125 1492.9921875 -148.709960938 c 128,-1,863
 1492.9921875 -152.013840558 1492.9921875 -152.013840558 1487.05761719 -151.147460938 c 0,864,865
 1482.32297544 -151.436038869 1482.32297544 -151.436038869 1482.15820312 -152.959960938 c 0,866,867
 1482.69571784 -154.357206278 1482.69571784 -154.357206278 1481.41525286 -155.002821889 c 128,-1,868
 1480.13478788 -155.6484375 1480.13478788 -155.6484375 1476.828125 -155.6484375 c 0,869,870
 1470.46386719 -155.6484375 1470.46386719 -155.6484375 1470.46386719 -158.719726562 c 128,-1,871
 1470.46386719 -161.79327696 1470.46386719 -161.79327696 1468.92773438 -161.551757812 c 0,872,873
 1458.17578125 -159.84498054 1458.17578125 -159.84498054 1458.17578125 -164.864257812 c 0,874,875
 1458.17578125 -167.935546875 1458.17578125 -167.935546875 1449.984375 -167.935546875 c 128,-1,876
 1441.79199219 -167.935546875 1441.79199219 -167.935546875 1441.79199219 -171.0390625 c 128,-1,877
 1441.79199219 -174.137121049 1441.79199219 -174.137121049 1435.70410156 -173.06640625 c 0,878,879
 1432.07579561 -172.425096853 1432.07579561 -172.425096853 1431.08679199 -172.832641602 c 128,-1,880
 1430.09778838 -173.24018635 1430.09778838 -173.24018635 1430.8046875 -175.083984375 c 128,-1,881
 1431.48065814 -176.846048688 1431.48065814 -176.846048688 1430.36718494 -177.510914969 c 128,-1,882
 1429.25371173 -178.17578125 1429.25371173 -178.17578125 1425.62792969 -178.17578125 c 0,883,884
 1419.26367188 -178.17578125 1419.26367188 -178.17578125 1419.26367188 -181.248046875 c 128,-1,885
 1419.26367188 -184.3203125 1419.26367188 -184.3203125 1411.07226562 -184.3203125 c 128,-1,886
 1402.87988281 -184.3203125 1402.87988281 -184.3203125 1402.87988281 -187.391601562 c 128,-1,887
 1402.87988281 -190.46515196 1402.87988281 -190.46515196 1401.34375 -190.223632812 c 0,888,889
 1397.79606882 -189.734822629 1397.79606882 -189.734822629 1395.0546875 -189.982204861 c 128,-1,890
 1392.31330618 -190.229587093 1392.31330618 -190.229587093 1390.82617188 -191.214084201 c 128,-1,891
 1389.33903757 -192.19858131 1389.33903757 -192.19858131 1389.86523438 -193.56640625 c 0,892,893
 1390.54461593 -195.340265629 1390.54461593 -195.340265629 1389.54259491 -195.936408992 c 128,-1,894
 1388.5405739 -196.532552356 1388.5405739 -196.532552356 1385.19042969 -196.3515625 c 0,895,896
 1374.20800781 -195.750045485 1374.20800781 -195.750045485 1374.20800781 -199.362304688 c 0,897,898
 1374.20800781 -202.122070312 1374.20800781 -202.122070312 1365.61132812 -202.122070312 c 128,-1,899
 1357.0138037 -202.122070312 1357.0138037 -202.122070312 1356.22167969 -204.482421875 c 128,-1,900
 1355.43859533 -206.84765625 1355.43859533 -206.84765625 1347.41503906 -206.84765625 c 128,-1,901
 1339.39160156 -206.84765625 1339.39160156 -206.84765625 1339.39160156 -209.919921875 c 128,-1,902
 1339.39160156 -212.9921875 1339.39160156 -212.9921875 1331.41992188 -212.9921875 c 128,-1,903
 1323.44138611 -212.9921875 1323.44138611 -212.9921875 1322.37304688 -215.79296875 c 128,-1,904
 1321.29623852 -218.587711476 1321.29623852 -218.587711476 1315.49707031 -218.64453125 c 0,905,906
 1300.48046875 -218.774618571 1300.48046875 -218.774618571 1300.48046875 -222.192382812 c 0,907,908
 1300.48046875 -225.246180767 1300.48046875 -225.246180767 1291.89355469 -224.916015625 c 128,-1,909
 1283.30860638 -224.575157421 1283.30860638 -224.575157421 1282.50878906 -226.974609375 c 128,-1,910
 1281.70320878 -229.375976562 1281.70320878 -229.375976562 1267.54296875 -229.375976562 c 128,-1,911
 1253.37597656 -229.375976562 1253.37597656 -229.375976562 1253.37597656 -232.448242188 c 128,-1,912
 1253.37597656 -235.51953125 1253.37597656 -235.51953125 1242.11230469 -235.51953125 c 128,-1,913
 1230.84765625 -235.51953125 1230.84765625 -235.51953125 1230.84765625 -238.591796875 c 128,-1,914
 1230.84765625 -241.6640625 1230.84765625 -241.6640625 1214.46386719 -241.6640625 c 128,-1,915
 1198.08007812 -241.6640625 1198.08007812 -241.6640625 1198.08007812 -244.736328125 c 128,-1,916
 1198.08007812 -247.807617188 1198.08007812 -247.807617188 1195.90917969 -247.807617188 c 128,-1,917
 1193.73981541 -247.807617188 1193.73981541 -247.807617188 1195.13574219 -245.555664062 c 128,-1,918
 1196.5147109 -243.311378646 1196.5147109 -243.311378646 1192.69335938 -245.268554688 c 128,-1,919
 1188.85508775 -247.239366393 1188.85508775 -247.239366393 1175.69042969 -247.638671875 c 128,-1,920
 1162.51395446 -248.052810949 1162.51395446 -248.052810949 1160.33007812 -250.977539062 c 128,-1,921
 1158.14470471 -253.904488263 1158.14470471 -253.904488263 1131.0078125 -253.4140625 c 128,-1,922
 1103.86326992 -252.925161765 1103.86326992 -252.925161765 1103.87207031 -254.771484375 c 128,-1,923
 1103.87207031 -256.616979241 1103.87207031 -256.616979241 997.887695312 -255.17578125 c 0,924,925
 886.910378896 -252.309193406 886.910378896 -252.309193406 886.866210938 -250.783203125 c 0,926,927
 888.661194217 -248.618212016 888.661194217 -248.618212016 884.558677018 -248.296099462 c 0,928,929
 882.030427253 -248.097591826 882.030427253 -248.097591826 866.81640625 -247.624023438 c 0,930,931
 849.919921875 -247.093348275 849.919921875 -247.093348275 849.919921875 -244.3828125 c 128,-1,932
 849.919921875 -241.6640625 849.919921875 -241.6640625 833.536132812 -241.6640625 c 128,-1,933
 817.15234375 -241.6640625 817.15234375 -241.6640625 817.15234375 -238.591796875 c 128,-1,934
 817.15234375 -235.51953125 817.15234375 -235.51953125 805.887695312 -235.51953125 c 128,-1,935
 794.624023438 -235.51953125 794.624023438 -235.51953125 794.624023438 -232.448242188 c 128,-1,936
 794.624023438 -229.375976562 794.624023438 -229.375976562 780.45703125 -229.375976562 c 128,-1,937
 766.296131142 -229.375976562 766.296131142 -229.375976562 765.516601562 -227.046875 c 128,-1,938
 764.745083667 -224.721679688 764.745083667 -224.721679688 755.947265625 -224.721679688 c 0,939,940
 749.421074676 -224.277472119 749.421074676 -224.277472119 749.79296875 -223.09375 c 0,941,942
 752.097495801 -221.667649383 752.097495801 -221.667649383 747.754018956 -220.317428474 c 0,943,944
 743.20851001 -218.904403508 743.20851001 -218.904403508 734.12109375 -218.393554688 c 0,945,946
 726.30282341 -217.94618772 726.30282341 -217.94618772 725.478515625 -215.469726562 c 128,-1,947
 724.649155031 -212.9921875 724.649155031 -212.9921875 716.630859375 -212.9921875 c 128,-1,948
 708.608398438 -212.9921875 708.608398438 -212.9921875 708.608398438 -209.919921875 c 128,-1,949
 708.608398438 -206.84765625 708.608398438 -206.84765625 700.29296875 -206.84765625 c 0,950,951
 693.553759931 -206.347045272 693.553759931 -206.347045272 693.248046875 -204.799804688 c 0,952,953
 694.383921621 -202.964861245 694.383921621 -202.964861245 689.188113122 -202.52104042 c 0,954,955
 685.851390317 -202.236020858 685.851390317 -202.236020858 680.6171875 -202.649414062 c 0,956,957
 676.180337611 -203.003153296 676.180337611 -203.003153296 674.150390625 -199.373046875 c 128,-1,958
 672.123857137 -195.744138072 672.123857137 -195.744138072 664.514648438 -196.259765625 c 0,959,960
 659.9202005 -196.567478611 659.9202005 -196.567478611 658.653329545 -196.044673809 c 128,-1,961
 657.38645859 -195.521869007 657.38645859 -195.521869007 658.120117188 -193.618164062 c 128,-1,962
 658.826123921 -191.767459689 658.826123921 -191.767459689 657.607051148 -191.115663438 c 128,-1,963
 656.387978374 -190.463867188 656.387978374 -190.463867188 652.221679688 -190.463867188 c 0,964,965
 645.11911767 -190.463867188 645.11911767 -190.463867188 645.631835938 -188.078125 c 0,966,967
 646.02739322 -186.242446204 646.02739322 -186.242446204 639.244519989 -184.250334222 c 128,-1,968
 632.461646758 -182.258222241 632.461646758 -182.258222241 630.323242188 -183.583007812 c 0,969,970
 629.666451213 -183.985722457 629.666451213 -183.985722457 629.201389669 -183.337047579 c 128,-1,971
 628.736328125 -182.688372702 628.736328125 -182.688372702 628.736328125 -181.37109375 c 0,972,973
 628.736328125 -178.17578125 628.736328125 -178.17578125 623.467773438 -178.17578125 c 128,-1,974
 618.203125 -178.17578125 618.203125 -178.17578125 615.21875 -175.19140625 c 128,-1,975
 612.231537837 -172.204194087 612.231537837 -172.204194087 609.13671875 -173.393554688 c 0,976,977
 607.69308689 -173.95105766 607.69308689 -173.95105766 607.025512695 -173.535644531 c 128,-1,978
 606.357938501 -173.120231403 606.357938501 -173.120231403 606.637695312 -171.837890625 c 0,979,980
 607.229059021 -169.096966771 607.229059021 -169.096966771 600.064453125 -167.756835938 c 0,981,982
 595.903201217 -166.65444603 595.903201217 -166.65444603 595.967773438 -166.12890625 c 0,983,984
 602.59218391 -165.478248764 602.59218391 -165.478248764 593.712159563 -163.018992094 c 0,985,986
 589.451168327 -161.838942275 589.451168327 -161.838942275 585.215820312 -161.822265625 c 0,987,988
 577.536132812 -161.792488402 577.536132812 -161.792488402 577.536132812 -158.858398438 c 128,-1,989
 577.536132812 -155.91722428 577.536132812 -155.91722428 571.904296875 -155.274414062 c 128,-1,990
 566.270930267 -154.622634256 566.270930267 -154.622634256 566.661132812 -152.4375 c 128,-1,991
 567.048134569 -150.254875684 567.048134569 -150.254875684 561.029296875 -151.131835938 c 128,-1,992
 555.0078125 -152.014797095 555.0078125 -152.014797095 555.0078125 -148.709960938 c 128,-1,993
 555.0078125 -145.408203125 555.0078125 -145.408203125 550.635742188 -145.408203125 c 128,-1,994
 546.262554346 -145.408203125 546.262554346 -145.408203125 541.224609375 -139.970703125 c 128,-1,995
 536.185203056 -134.536571563 536.185203056 -134.536571563 534.364257812 -137.41015625 c 128,-1,996
 532.542314976 -140.294899075 532.542314976 -140.294899075 532.510742188 -136.704101562 c 128,-1,997
 532.482340132 -133.120117188 532.482340132 -133.120117188 529.1875 -133.120117188 c 128,-1,998
 525.898263954 -133.120117188 525.898263954 -133.120117188 527.078125 -130.047851562 c 0,999,1000
 527.599098014 -128.687373232 527.599098014 -128.687373232 526.472620081 -127.740921586 c 128,-1,1001
 525.346142148 -126.794469939 525.346142148 -126.794469939 523.060908565 -126.544234664 c 128,-1,1002
 520.775674981 -126.293999389 520.775674981 -126.293999389 517.631835938 -126.735351562 c 0,1003,1004
 516.998275048 -126.834963448 516.998275048 -126.834963448 516.546989086 -126.303945684 c 128,-1,1005
 516.095703125 -125.772927919 516.095703125 -125.772927919 516.095703125 -124.927734375 c 0,1006,1007
 516.095703125 -122.879882812 516.095703125 -122.879882812 513.024414062 -122.879882812 c 128,-1,1008
 509.952148438 -122.879882812 509.952148438 -122.879882812 509.952148438 -119.807617188 c 128,-1,1009
 509.952148438 -116.736328125 509.952148438 -116.736328125 504.765625 -116.736328125 c 128,-1,1010
 499.580104091 -116.736328125 499.580104091 -116.736328125 498.40625 -113.6640625 c 128,-1,1011
 497.223516528 -110.591796875 497.223516528 -110.591796875 493.583007812 -110.591796875 c 128,-1,1012
 489.939934295 -110.591796875 489.939934295 -110.591796875 486.58984375 -105.471679688 c 128,-1,1013
 483.232496727 -100.3515625 483.232496727 -100.3515625 476.114257812 -100.3515625 c 128,-1,1014
 468.9921875 -100.3515625 468.9921875 -100.3515625 468.9921875 -98.1806640625 c 128,-1,1015
 468.9921875 -96.0176729369 468.9921875 -96.0176729369 471.551757812 -97.458984375 c 1,1016,1017
 469.842056284 -94.2328723757 469.842056284 -94.2328723757 464.24609375 -93.767578125 c 0,1018,1019
 461.561827848 -93.5449268742 461.561827848 -93.5449268742 460.372583342 -92.7451338315 c 128,-1,1020
 459.183338837 -91.9453407887 459.183338837 -91.9453407887 459.663085938 -90.685546875 c 128,-1,1021
 460.120166158 -89.4988963028 460.120166158 -89.4988963028 459.292529186 -88.7816747139 c 128,-1,1022
 458.464892213 -88.064453125 458.464892213 -88.064453125 456.637695312 -88.064453125 c 128,-1,1023
 454.975308059 -88.064453125 454.975308059 -88.064453125 453.942230516 -87.3257492671 c 128,-1,1024
 452.909152973 -86.5870454092 452.909152973 -86.5870454092 453.120117188 -85.5498046875 c 128,-1,1025
 453.331058889 -84.5170692718 453.331058889 -84.5170692718 451.977520127 -83.557603765 c 128,-1,1026
 450.623981365 -82.5981382583 450.623981365 -82.5981382583 448.51171875 -82.283203125 c 0,1027,1028
 445.903769343 -81.8993084669 445.903769343 -81.8993084669 442.904996546 -80.0264214255 c 128,-1,1029
 439.906223748 -78.1535343841 439.906223748 -78.1535343841 438.306917517 -76.0406358661 c 128,-1,1030
 436.707611285 -73.9277373481 436.707611285 -73.9277373481 437.713867188 -72.923828125 c 1,1031,-1
 434.518554688 -71.6796875 l 2,1032,1033
 430.080078125 -71.6796875 430.080078125 -71.6796875 430.080078125 -68.6083984375 c 128,-1,1034
 430.080078125 -65.5361328125 430.080078125 -65.5361328125 423.715820312 -65.5361328125 c 0,1035,1036
 420.105841576 -65.5361328125 420.105841576 -65.5361328125 418.984251317 -64.8714363888 c 128,-1,1037
 417.862661058 -64.2067399651 417.862661058 -64.2067399651 418.534179688 -62.4638671875 c 0,1038,1039
 419.711693259 -59.3916015625 419.711693259 -59.3916015625 415.461914062 -59.3916015625 c 128,-1,1040
 411.212944504 -59.3916015625 411.212944504 -59.3916015625 412.390625 -56.3203125 c 128,-1,1041
 413.56893706 -53.248046875 413.56893706 -53.248046875 410.77734375 -53.248046875 c 128,-1,1042
 407.995615609 -53.248046875 407.995615609 -53.248046875 406.907226562 -50.4267578125 c 128,-1,1043
 405.826072754 -47.612374498 405.826072754 -47.612374498 400.547851562 -48.619140625 c 128,-1,1044
 395.263671875 -49.6282858857 395.263671875 -49.6282858857 395.263671875 -46.3203125 c 128,-1,1045
 395.263671875 -43.0078125 395.263671875 -43.0078125 392.192382812 -43.0078125 c 0,1046,1047
 390.924435533 -43.0078125 390.924435533 -43.0078125 390.14960461 -42.5564873378 c 128,-1,1048
 389.374773687 -42.1051621756 389.374773687 -42.1051621756 389.555664062 -41.4716796875 c 0,1049,1050
 390.403807515 -38.4731483446 390.403807515 -38.4731483446 386.377443387 -34.5964374535 c 128,-1,1051
 382.351079258 -30.7197265625 382.351079258 -30.7197265625 378.388671875 -30.7197265625 c 0,1052,1053
 372.736328125 -30.7197265625 372.736328125 -30.7197265625 372.736328125 -27.6484375 c 128,-1,1054
 372.736328125 -24.576171875 372.736328125 -24.576171875 370.713867188 -24.576171875 c 0,1055,1056
 368.35281374 -24.576171875 368.35281374 -24.576171875 364.589062384 -21.0032308703 c 128,-1,1057
 360.825311029 -17.4302898657 360.825311029 -17.4302898657 361.697265625 -16.0205078125 c 0,1058,1059
 362.127174231 -15.3254766924 362.127174231 -15.3254766924 361.49550717 -14.8307070962 c 128,-1,1060
 360.863840108 -14.3359375 360.863840108 -14.3359375 359.546875 -14.3359375 c 0,1061,1062
 356.3515625 -14.3359375 356.3515625 -14.3359375 356.3515625 -11.263671875 c 128,-1,1063
 356.3515625 -8.1923828125 356.3515625 -8.1923828125 353.280273438 -8.1923828125 c 128,-1,1064
 350.208007812 -8.1923828125 350.208007812 -8.1923828125 350.208007812 -5.33984375 c 128,-1,1065
 350.208007812 -2.48733500208 350.208007812 -2.48733500208 347.0078125 -1.259765625 c 128,-1,1066
 343.800320088 -0.0287147379206 343.800320088 -0.0287147379206 344.852539062 1.6640625 c 1,1067,-1
 339.860351562 2.4677734375 l 2,1068,1069
 333.82421875 1.58550970451 333.82421875 1.58550970451 333.82421875 4.8896484375 c 128,-1,1070
 333.82421875 8.1923828125 333.82421875 8.1923828125 330.62890625 8.1923828125 c 0,1071,1072
 329.311965586 8.1923828125 329.311965586 8.1923828125 328.704086628 8.72645355084 c 128,-1,1073
 328.09620767 9.26052428918 328.09620767 9.26052428918 328.560546875 10.009765625 c 0,1074,1075
 329.662747971 11.7952581649 329.662747971 11.7952581649 326.927384187 14.0513783858 c 128,-1,1076
 324.192020403 16.3074986067 324.192020403 16.3074986067 322.713867188 14.8330078125 c 0,1077,1078
 322.087765529 14.203722295 322.087765529 14.203722295 321.763305664 14.3591308594 c 128,-1,1079
 321.438845799 14.5145394237 321.438845799 14.5145394237 321.607421875 15.3603515625 c 0,1080,1081
 322.321554888 18.8892673134 322.321554888 18.8892673134 321.473732904 20.4704999768 c 128,-1,1082
 320.625910919 22.0517326403 320.625910919 22.0517326403 318.463867188 21.22265625 c 0,1083,1084
 315.391601562 20.0412529022 315.391601562 20.0412529022 315.391601562 23.33203125 c 128,-1,1085
 315.391601562 26.6240234375 315.391601562 26.6240234375 312.197265625 26.6240234375 c 128,-1,1086
 309.004320421 26.6240234375 309.004320421 26.6240234375 310.272460938 28.671875 c 128,-1,1087
 311.537727977 30.7197265625 311.537727977 30.7197265625 308.346679688 30.7197265625 c 128,-1,1088
 305.15234375 30.7197265625 305.15234375 30.7197265625 305.15234375 34.7490234375 c 128,-1,1089
 305.15234375 38.7822013434 305.15234375 38.7822013434 301.751953125 37.478515625 c 0,1090,1091
 299.759429242 36.7147514169 299.759429242 36.7147514169 299.280395508 37.3122558594 c 128,-1,1092
 298.801361774 37.9097603018 298.801361774 37.9097603018 299.443359375 40.35546875 c 128,-1,1093
 300.111288051 42.9092706048 300.111288051 42.9092706048 299.51550293 43.5109863281 c 128,-1,1094
 298.919717809 44.1127020515 298.919717809 44.1127020515 296.381835938 43.4482421875 c 0,1095,1096
 294.017519403 43.8377545001 294.017519403 43.8377545001 293.544921875 44.5029296875 c 0,1097,1098
 294.868854984 46.637216484 294.868854984 46.637216484 291.819335938 49.1728515625 c 128,-1,1099
 288.767578125 51.7044435582 288.767578125 51.7044435582 288.767578125 50.2783203125 c 128,-1,1100
 288.767578125 48.8595528134 288.767578125 48.8595528134 285.696289062 51.9326171875 c 128,-1,1101
 282.624023438 55.0048828125 282.624023438 55.0048828125 282.624023438 57.1953125 c 128,-1,1102
 282.624023438 59.3916015625 282.624023438 59.3916015625 279.79296875 59.3916015625 c 128,-1,1103
 276.951885548 59.3916015625 276.951885548 59.3916015625 275.834960938 63.6923828125 c 128,-1,1104
 274.706584841 67.9922709591 274.706584841 67.9922709591 272.470703125 66.6162109375 c 2,1105,-1
 270.525390625 66.91796875 l 1,1106,1107
 271.143491212 70.4581325394 271.143491212 70.4581325394 270.24812245 72.1231504777 c 128,-1,1108
 269.352753687 73.788168416 269.352753687 73.788168416 267.263671875 72.9853515625 c 0,1109,1110
 264.192382812 71.8069270085 264.192382812 71.8069270085 264.192382812 74.818359375 c 128,-1,1111
 264.192382812 77.82421875 264.192382812 77.82421875 261.120117188 77.82421875 c 128,-1,1112
 258.047851562 77.82421875 258.047851562 77.82421875 258.047851562 82.052734375 c 0,1113,1114
 258.047851562 86.5222342028 258.047851562 86.5222342028 255.758807232 90.3651210076 c 128,-1,1115
 253.469762902 94.2080078125 253.469762902 94.2080078125 250.80859375 94.2080078125 c 0,1116,1117
 247.807617188 94.2080078125 247.807617188 94.2080078125 247.807617188 97.2802734375 c 128,-1,1118
 247.807617188 100.3515625 247.807617188 100.3515625 244.515625 100.3515625 c 128,-1,1119
 241.223845872 100.3515625 241.223845872 100.3515625 242.447265625 103.53125 c 2,1120,-1
 241.484375 105.359375 l 1,1121,1122
 239.741226343 104.280527113 239.741226343 104.280527113 235.582527234 108.100578862 c 128,-1,1123
 231.423828125 111.920630612 231.423828125 111.920630612 231.423828125 114.600585938 c 0,1124,1125
 231.423828125 116.736328125 231.423828125 116.736328125 228.3515625 116.736328125 c 128,-1,1126
 225.279785156 116.736328125 225.279785156 116.736328125 225.280273438 122.879882812 c 128,-1,1127
 225.280273438 129.024414062 225.280273438 129.024414062 223.129882812 129.024414062 c 0,1128,1129
 219.428519329 129.024414062 219.428519329 129.024414062 213.370352034 136.343613749 c 128,-1,1130
 207.312184739 143.662813436 207.312184739 143.662813436 208.19921875 147.061523438 c 0,1131,1132
 209.371930636 151.551757812 209.371930636 151.551757812 206.064453125 151.551757812 c 128,-1,1133
 202.751953125 151.551757812 202.751953125 151.551757812 202.751953125 153.599609375 c 128,-1,1134
 202.751953125 155.6484375 202.751953125 155.6484375 199.439453125 155.6484375 c 128,-1,1135
 196.131534319 155.6484375 196.131534319 155.6484375 197.135742188 159.482421875 c 0,1136,1137
 197.73039946 161.763650204 197.73039946 161.763650204 197.085449219 162.32019043 c 128,-1,1138
 196.440498978 162.876730655 196.440498978 162.876730655 193.956054688 162.227539062 c 128,-1,1139
 191.509312169 161.58581857 191.509312169 161.58581857 190.911987305 162.064575195 c 128,-1,1140
 190.314662441 162.543331821 190.314662441 162.543331821 191.078125 164.536132812 c 0,1141,1142
 192.372798895 167.907470703 192.372798895 167.907470703 191.110229492 170.993774414 c 128,-1,1143
 189.847660089 174.080078125 189.847660089 174.080078125 187.171875 174.080078125 c 128,-1,1144
 184.3203125 174.080078125 184.3203125 174.080078125 184.3203125 176.276367188 c 128,-1,1145
 184.3203125 178.399658203 184.3203125 178.399658203 181.359985352 181.359985352 c 128,-1,1146
 178.399658203 184.3203125 178.399658203 184.3203125 176.276367188 184.3203125 c 128,-1,1147
 174.080078125 184.3203125 174.080078125 184.3203125 174.080078125 190.463867188 c 128,-1,1148
 174.080078125 196.608398438 174.080078125 196.608398438 171.07421875 196.608398438 c 128,-1,1149
 168.064523437 196.608398438 168.064523437 196.608398438 169.139648438 199.408203125 c 128,-1,1150
 170.21693898 202.210803255 170.21693898 202.210803255 166.005859375 203.315429688 c 128,-1,1151
 161.791992188 204.41531564 161.791992188 204.41531564 161.791992188 209.791992188 c 128,-1,1152
 161.791992188 215.172433544 161.791992188 215.172433544 158.868164062 216.2890625 c 128,-1,1153
 155.949574083 217.415006994 155.949574083 217.415006994 156.703125 221.34765625 c 128,-1,1154
 157.462581841 225.280273438 157.462581841 225.280273438 154.505859375 225.280273438 c 128,-1,1155
 151.551757812 225.280273438 151.551757812 225.280273438 151.551757812 228.3515625 c 128,-1,1156
 151.551757812 231.423828125 151.551757812 231.423828125 148.25 231.423828125 c 128,-1,1157
 144.945703081 231.423828125 144.945703081 231.423828125 145.801757812 237.276367188 c 128,-1,1158
 146.66212552 243.120572226 146.66212552 243.120572226 143.47265625 242.908203125 c 128,-1,1159
 140.290593923 242.690022125 140.290593923 242.690022125 139.637695312 248.3203125 c 128,-1,1160
 138.98891809 253.952148438 138.98891809 253.952148438 135.838867188 253.952148438 c 128,-1,1161
 132.684076209 253.952148438 132.684076209 253.952148438 133.852539062 256.998046875 c 0,1162,1163
 134.358845878 258.319232132 134.358845878 258.319232132 133.985351562 259.044433594 c 128,-1,1164
 133.611857247 259.769635056 133.611857247 259.769635056 132.536132812 259.55859375 c 0,1165,1166
 130.048460872 259.07576152 130.048460872 259.07576152 129.392578125 265.891601562 c 0,1167,1168
 129.05867379 269.396864829 129.05867379 269.396864829 128.23690249 270.800791848 c 128,-1,1169
 127.415131189 272.204718866 127.415131189 272.204718866 126.013671875 271.666992188 c 0,1170,1171
 123.286107361 270.620014008 123.286107361 270.620014008 122.194335938 274.780273438 c 0,1172,1173
 121.744560631 276.496598426 121.744560631 276.496598426 120.908602276 277.399021998 c 128,-1,1174
 120.072643921 278.30144557 120.072643921 278.30144557 119.34765625 277.852539062 c 128,-1,1175
 118.621981254 277.402928116 118.621981254 277.402928116 118.012908869 278.30516233 c 128,-1,1176
 117.403836485 279.207396545 117.403836485 279.207396545 117.2734375 280.923828125 c 0,1177,1178
 116.956857937 285.083825864 116.956857937 285.083825864 113.458984375 287.641601562 c 128,-1,1179
 109.955712557 290.200417655 109.955712557 290.200417655 111.057617188 294.430664062 c 128,-1,1180
 112.166170631 298.656160169 112.166170631 298.656160169 108.30859375 299.663085938 c 128,-1,1181
 104.448242188 300.672924185 104.448242188 300.672924185 104.448242188 304.962890625 c 128,-1,1182
 104.448242188 309.248046875 104.448242188 309.248046875 102.400390625 309.248046875 c 128,-1,1183
 100.3515625 309.248046875 100.3515625 309.248046875 100.3515625 315.391601562 c 128,-1,1184
 100.3515625 321.536621094 100.3515625 321.536621094 97.2802734375 321.536132812 c 128,-1,1185
 94.2067230401 321.536132812 94.2067230401 321.536132812 94.4482421875 323.072265625 c 0,1186,1187
 96.152776589 333.82421875 96.152776589 333.82421875 90.9111328125 333.82421875 c 0,1188,1189
 87.6141781297 333.82421875 87.6141781297 333.82421875 88.4892578125 341.284179688 c 128,-1,1190
 89.3551849842 348.738630729 89.3551849842 348.738630729 85.453125 349.762695312 c 128,-1,1191
 81.5524385668 350.780324289 81.5524385668 350.780324289 82.478515625 355.614257812 c 128,-1,1192
 83.3971074954 360.448242188 83.3971074954 360.448242188 81.0595703125 360.448242188 c 128,-1,1193
 78.7209478814 360.448242188 78.7209478814 360.448242188 78.2646484375 366.080078125 c 128,-1,1194
 77.816918213 371.71579349 77.816918213 371.71579349 74.7470703125 373.985351562 c 128,-1,1195
 71.6796875 376.259660326 71.6796875 376.259660326 71.6796875 382.689453125 c 128,-1,1196
 71.6796875 389.120117188 71.6796875 389.120117188 68.6083984375 389.120117188 c 128,-1,1197
 65.5361328125 389.120117188 65.5361328125 389.120117188 65.5361328125 396.221679688 c 0,1198,1199
 65.5361328125 400.387978374 65.5361328125 400.387978374 64.884336562 401.607051148 c 128,-1,1200
 64.2325403115 402.826123921 64.2325403115 402.826123921 62.3818359375 402.120117188 c 128,-1,1201
 60.4852774733 401.390052018 60.4852774733 401.390052018 59.9575718105 402.621419338 c 128,-1,1202
 59.4298661477 403.852786659 59.4298661477 403.852786659 59.7294921875 408.3046875 c 0,1203,1204
 60.2257721947 415.706967498 60.2257721947 415.706967498 56.2275390625 418.734375 c 128,-1,1205
 52.2238344916 421.757658957 52.2238344916 421.757658957 55.2958984375 421.852539062 c 128,-1,1206
 58.3638848318 421.956678687 58.3638848318 421.956678687 56.3203125 423.455078125 c 128,-1,1207
 54.2743170553 424.960320874 54.2743170553 424.960320874 54.087890625 431.103515625 c 0,1208,1209
 54.0073674332 433.851552553 54.0073674332 433.851552553 53.2722918293 435.399596387 c 128,-1,1210
 52.5372162255 436.947640222 52.5372162255 436.947640222 51.4306640625 436.705078125 c 128,-1,1211
 50.4095531872 436.478896576 50.4095531872 436.478896576 49.7833481046 437.080187911 c 128,-1,1212
 49.157143022 437.681479245 49.157143022 437.681479245 49.294921875 438.752929688 c 0,1213,1214
 49.7233385022 442.625977897 49.7233385022 442.625977897 49.546947338 446.128291377 c 128,-1,1215
 49.3705561737 449.630604857 49.3705561737 449.630604857 48.5969328704 451.998010706 c 128,-1,1216
 47.823309567 454.365416555 47.823309567 454.365416555 46.806640625 454.143554688 c 0,1217,1218
 44.4671094377 453.635421217 44.4671094377 453.635421217 43.6171875 460.799804688 c 128,-1,1219
 42.7694017719 467.974880127 42.7694017719 467.974880127 39.7412109375 470.297851562 c 128,-1,1220
 36.7098458116 472.62148428 36.7098458116 472.62148428 37.0283203125 474.393554688 c 0,1221,1222
 38.1262323368 480.472720666 38.1262323368 480.472720666 36.9183279031 486.002229575 c 128,-1,1223
 35.7104234694 491.531738483 35.7104234694 491.531738483 33.2802734375 491.55078125 c 0,1224,1225
 29.6885495152 491.580559573 29.6885495152 491.580559573 32.767578125 493.568359375 c 128,-1,1226
 35.8447822471 495.555248985 35.8447822471 495.555248985 33.234375 495.584960938 c 128,-1,1227
 30.623420012 495.615270531 30.623420012 495.615270531 31.4111328125 502.784179688 c 128,-1,1228
 32.2080341552 509.952148438 32.2080341552 509.952148438 29.4140625 509.952148438 c 128,-1,1229
 26.6240234375 509.952148438 26.6240234375 509.952148438 26.6240234375 524.288085938 c 128,-1,1230
 26.6240234375 538.624023438 26.6240234375 538.624023438 23.5517578125 538.624023438 c 128,-1,1231
 20.48046875 538.624023438 20.48046875 538.624023438 20.48046875 549.887695312 c 128,-1,1232
 20.48046875 561.15234375 20.48046875 561.15234375 17.7001953125 561.15234375 c 128,-1,1233
 14.9185551375 561.15234375 14.9185551375 561.15234375 14.8583984375 569.856445312 c 0,1234,1235
 14.6821131935 593.919921875 14.6821131935 593.919921875 11.263671875 593.919921875 c 0,1236,1237
 8.46889957616 593.919921875 8.46889957616 593.919921875 8.28540039062 597.557739258 c 128,-1,1238
 8.10190120509 601.195556641 8.10190120509 601.195556641 10.751953125 604.052734375 c 2,1239,-1
 11.0537109375 605.552734375 l 1,1240,1241
 9.18891060175 604.513396559 9.18891060175 604.513396559 8.60919198658 612.956877504 c 0,1242,1243
 8.48566607442 614.756006699 8.48566607442 614.756006699 8.4169921875 617.000976562 c 0,1244,1245
 8.04619589053 629.698532053 8.04619589053 629.698532053 5.7646484375 631.782226562 c 1,1246,-1
 5.1357421875 630.978515625 l 1,1247,-1
 4.587890625 629.458007812 l 1,1248,1249
 2.4020452462 630.807529742 2.4020452462 630.807529742 3.384765625 659.465820312 c 128,-1,1250
 4.37508815783 688.127929688 4.37508815783 688.127929688 2.1865234375 688.127929688 c 128,-1,1251
 0 688.127929688 0 688.127929688 0 769.146484375 c 0,1252,1253
 0.11475161598 848.419645753 0.11475161598 848.419645753 2.1962890625 848.803710938 c 2,1254,-1
 3.74644067878 864.00856718 l 2,1255,1256
 3.68245344589 868.214518639 3.68245344589 868.214518639 3.4921875 873.774414062 c 0,1257,1258
 3.22747757441 904.381115549 3.22747757441 904.381115549 6.015625 904.268554688 c 0,1259,1260
 7.3360872562 903.453941156 7.3360872562 903.453941156 7.63113258483 906.080412893 c 128,-1,1261
 7.92997806132 908.740713266 7.92997806132 908.740713266 8.20703125 924.16015625 c 0,1262,1263
 8.41066419731 935.197354991 8.41066419731 935.197354991 9.45161136613 937.963287627 c 128,-1,1264
 10.492558535 940.729220262 10.492558535 940.729220262 14.3359375 940.44140625 c 0,1265,1266
 14.6130302445 940.418835437 14.6130302445 940.418835437 14.7605048233 942.715875106 c 128,-1,1267
 14.907979402 945.012914776 14.907979402 945.012914776 14.8931410101 948.977484269 c 128,-1,1268
 14.8783026181 952.942053762 14.8783026181 952.942053762 14.69921875 957.603515625 c 0,1269,1270
 14.0349624135 974.84765625 14.0349624135 974.84765625 17.259765625 974.84765625 c 128,-1,1271
 20.48046875 974.84765625 20.48046875 974.84765625 20.48046875 986.235351562 c 2,1272,-1
 22.384765625 996.439453125 l 1,1273,1274
 25.0525201762 994.791191236 25.0525201762 994.791191236 25.997260249 999.579728521 c 0,1275,1276
 26.7323585114 1003.30566917 26.7323585114 1003.30566917 26.8701171875 1012.57714844 c 0,1277,1278
 27.0737423542 1026.04785156 27.0737423542 1026.04785156 29.4609375 1026.04785156 c 128,-1,1279
 31.8537713956 1026.04785156 31.8537713956 1026.04785156 31.0732421875 1034.22460938 c 128,-1,1280
 30.2921592247 1042.39463267 30.2921592247 1042.39463267 33.5771484375 1043.65527344 c 128,-1,1281
 36.8642578125 1044.91853929 36.8642578125 1044.91853929 36.8642578125 1055.96386719 c 128,-1,1282
 36.8642578125 1067.0078125 36.8642578125 1067.0078125 39.935546875 1067.0078125 c 0,1283,1284
 44.4164250031 1067.0078125 44.4164250031 1067.0078125 43.115234375 1079.80761719 c 0,1285,1286
 42.7460170101 1083.39160156 42.7460170101 1083.39160156 45.9521484375 1083.39160156 c 128,-1,1287
 49.15234375 1083.39160156 49.15234375 1083.39160156 49.15234375 1091.58398438 c 128,-1,1288
 49.15234375 1099.77636719 49.15234375 1099.77636719 51.8095703125 1099.77636719 c 128,-1,1289
 54.4649179528 1099.77636719 54.4649179528 1099.77636719 54.24609375 1107.45605469 c 128,-1,1290
 54.0294677086 1115.13168379 54.0294677086 1115.13168379 57.6767578125 1118.74511719 c 128,-1,1291
 61.3238174449 1122.35753175 61.3238174449 1122.35753175 60.037109375 1128.81640625 c 0,1292,1293
 59.2186978226 1132.90636374 59.2186978226 1132.90636374 59.6051025391 1133.85461426 c 128,-1,1294
 59.9915072555 1134.80286477 59.9915072555 1134.80286477 62.1416015625 1133.97753906 c 128,-1,1295
 64.211402145 1133.1828704 64.211402145 1133.1828704 64.8737674788 1134.31479914 c 128,-1,1296
 65.5361328125 1135.44672788 65.5361328125 1135.44672788 65.5361328125 1139.77832031 c 0,1297,1298
 65.5361328125 1146.87988281 65.5361328125 1146.87988281 68.6083984375 1146.87988281 c 128,-1,1299
 71.6796875 1146.87988281 71.6796875 1146.87988281 71.6796875 1155.07226562 c 128,-1,1300
 71.6796875 1163.26367188 71.6796875 1163.26367188 74.751953125 1163.26367188 c 128,-1,1301
 77.8237304688 1163.26367188 77.8237304688 1163.26367188 77.82421875 1169.40820312 c 128,-1,1302
 77.82421875 1175.55175781 77.82421875 1175.55175781 79.8720703125 1175.55175781 c 128,-1,1303
 81.919921875 1175.55175781 81.919921875 1175.55175781 81.919921875 1181.01464844 c 2,1304,-1
 83.2666015625 1185.12597656 l 1,1305,1306
 84.5379968839 1184.20290418 84.5379968839 1184.20290418 85.9403935185 1184.93290654 c 128,-1,1307
 87.3427901531 1185.6629089 87.3427901531 1185.6629089 88.2708695023 1187.76045284 c 128,-1,1308
 89.1989488515 1189.85799678 89.1989488515 1189.85799678 88.708984375 1191.73144531 c 0,1309,1310
 87.7374170068 1195.4704073 87.7374170068 1195.4704073 90.9716796875 1196.70800781 c 128,-1,1311
 94.2080078125 1197.95385094 94.2080078125 1197.95385094 94.2080078125 1206.20507812 c 128,-1,1312
 94.2080078125 1214.46386719 94.2080078125 1214.46386719 97.1416015625 1214.46386719 c 128,-1,1313
 100.08277572 1214.46386719 100.08277572 1214.46386719 100.725585938 1220.09570312 c 128,-1,1314
 101.37758818 1225.73099226 101.37758818 1225.73099226 103.53125 1225.34863281 c 128,-1,1315
 105.690845799 1224.97775728 105.690845799 1224.97775728 105.579101562 1230.46386719 c 128,-1,1316
 105.469197264 1235.95757656 105.469197264 1235.95757656 108.543945312 1235.97265625 c 128,-1,1317
 111.615619738 1235.98803559 111.615619738 1235.98803559 110.955078125 1241.61523438 c 128,-1,1318
 110.297170187 1247.25230921 110.297170187 1247.25230921 113.515625 1248.48144531 c 128,-1,1319
 116.738477217 1249.71438387 116.738477217 1249.71438387 116.766601562 1255.13183594 c 128,-1,1320
 116.800311328 1260.54354984 116.800311328 1260.54354984 118.676757812 1257.57910156 c 128,-1,1321
 120.54816565 1254.61406246 120.54816565 1254.61406246 121.96875 1260.26269531 c 0,1322,1323
 122.652153001 1262.99264492 122.652153001 1262.99264492 123.746173669 1264.17135075 c 128,-1,1324
 124.840194337 1265.35005659 124.840194337 1265.35005659 126.203125 1264.82421875 c 128,-1,1325
 127.707867634 1264.24868215 127.707867634 1264.24868215 128.366140848 1265.41652921 c 128,-1,1326
 129.024414062 1266.58437626 129.024414062 1266.58437626 129.024414062 1269.82617188 c 0,1327,1328
 129.024414062 1275.90429688 129.024414062 1275.90429688 132.029296875 1275.90429688 c 128,-1,1329
 135.040562465 1275.90429688 135.040562465 1275.90429688 133.826171875 1279.05761719 c 0,1330,1331
 133.251130738 1280.56700238 133.251130738 1280.56700238 133.669799805 1281.23474121 c 128,-1,1332
 134.088468871 1281.90248004 134.088468871 1281.90248004 135.428710938 1281.61816406 c 128,-1,1333
 136.749798971 1281.34135072 136.749798971 1281.34135072 137.672971208 1282.73967959 c 128,-1,1334
 138.596143445 1284.13800847 138.596143445 1284.13800847 138.911132812 1286.89160156 c 0,1335,1336
 139.583565476 1292.7531844 139.583565476 1292.7531844 143.365234375 1293.7421875 c 128,-1,1337
 147.145268828 1294.73571734 147.145268828 1294.73571734 146.396484375 1298.62109375 c 128,-1,1338
 145.650358422 1302.51698387 145.650358422 1302.51698387 149.677734375 1304.66796875 c 128,-1,1339
 153.715717445 1306.82711875 153.715717445 1306.82711875 152.514648438 1308.77441406 c 128,-1,1340
 151.304152885 1310.71972656 151.304152885 1310.71972656 154.106445312 1310.71972656 c 128,-1,1341
 156.903259809 1310.71972656 156.903259809 1310.71972656 156.482421875 1316.86425781 c 128,-1,1342
 156.057930031 1323.0078125 156.057930031 1323.0078125 159.662109375 1323.0078125 c 128,-1,1343
 163.269205729 1323.0078125 163.269205729 1323.0078125 162.293945312 1328.12792969 c 128,-1,1344
 161.311404306 1333.24804688 161.311404306 1333.24804688 165.8671875 1333.24804688 c 128,-1,1345
 170.4212497 1333.24804688 170.4212497 1333.24804688 169.241210938 1336.3203125 c 128,-1,1346
 168.062786383 1339.39160156 168.062786383 1339.39160156 171.07421875 1339.39160156 c 0,1347,1348
 176.01907966 1339.39160156 176.01907966 1339.39160156 174.3203125 1350.14355469 c 0,1349,1350
 174.220735144 1350.77762815 174.220735144 1350.77762815 174.79540234 1351.22865782 c 128,-1,1351
 175.370069537 1351.6796875 175.370069537 1351.6796875 176.276367188 1351.6796875 c 0,1352,1353
 178.380760351 1351.6796875 178.380760351 1351.6796875 181.350536426 1354.62653684 c 128,-1,1354
 184.3203125 1357.57338618 184.3203125 1357.57338618 184.3203125 1359.66210938 c 128,-1,1355
 184.3203125 1361.78773878 184.3203125 1361.78773878 187.391601562 1360.61425781 c 128,-1,1356
 190.558730651 1359.39613124 190.558730651 1359.39613124 190.949954572 1364.67303198 c 0,1357,1358
 191.11993184 1366.96571686 191.11993184 1366.96571686 190.8125 1370.62402344 c 128,-1,1359
 190.516504696 1374.20800781 190.516504696 1374.20800781 194.518554688 1374.20800781 c 128,-1,1360
 198.529201165 1374.20800781 198.529201165 1374.20800781 197.243164062 1377.56152344 c 128,-1,1361
 195.958270953 1380.90717626 195.958270953 1380.90717626 198.711914062 1379.99316406 c 0,1362,1363
 201.750316339 1378.97938664 201.750316339 1378.97938664 205.269911382 1383.02322754 c 128,-1,1364
 208.789506424 1387.06706843 208.789506424 1387.06706843 208.36328125 1391.08398438 c 0,1365,1366
 208.140498206 1393.18503367 208.140498206 1393.18503367 208.704856485 1394.30973549 c 128,-1,1367
 209.269214763 1395.4344373 209.269214763 1395.4344373 210.431640625 1395.20019531 c 128,-1,1368
 211.487755088 1394.98853298 211.487755088 1394.98853298 212.239971294 1396.04147739 c 128,-1,1369
 212.9921875 1397.0944218 212.9921875 1397.0944218 212.9921875 1398.78417969 c 0,1370,1371
 212.9921875 1402.87988281 212.9921875 1402.87988281 215.163085938 1402.87988281 c 128,-1,1372
 217.329421436 1402.87988281 217.329421436 1402.87988281 215.79296875 1400.3203125 c 1,1373,-1
 217.697265625 1400.55078125 l 2,1374,1375
 221.142823008 1403.34274837 221.142823008 1403.34274837 220.016601562 1405.15820312 c 0,1376,1377
 219.552262357 1405.90744446 219.552262357 1405.90744446 220.160141316 1406.4415152 c 128,-1,1378
 220.768020274 1406.97558594 220.768020274 1406.97558594 222.084960938 1406.97558594 c 0,1379,1380
 225.280273438 1406.97558594 225.280273438 1406.97558594 225.280273438 1413.24316406 c 0,1381,1382
 225.962724907 1417.79878134 225.962724907 1417.79878134 227.34375 1418.22949219 c 0,1383,1384
 229.404796667 1416.95157206 229.404796667 1416.95157206 230.793945312 1420.58007812 c 0,1385,1386
 232.349494895 1424.63446724 232.349494895 1424.63446724 235.446301022 1427.9121149 c 128,-1,1387
 238.543107149 1431.18976257 238.543107149 1431.18976257 239.979492188 1430.30273438 c 0,1388,1389
 240.674523308 1429.87282577 240.674523308 1429.87282577 241.169292904 1430.50449283 c 128,-1,1390
 241.6640625 1431.13615989 241.6640625 1431.13615989 241.6640625 1432.453125 c 0,1391,1392
 241.6640625 1435.6484375 241.6640625 1435.6484375 244.736328125 1435.6484375 c 128,-1,1393
 247.807617188 1435.6484375 247.807617188 1435.6484375 247.807617188 1438.71972656 c 128,-1,1394
 247.807617188 1441.79199219 247.807617188 1441.79199219 250.879882812 1441.79199219 c 128,-1,1395
 253.952148438 1441.79199219 253.952148438 1441.79199219 253.952148438 1444.86425781 c 128,-1,1396
 253.952148438 1447.93554688 253.952148438 1447.93554688 256 1447.93554688 c 128,-1,1397
 258.047851562 1447.93554688 258.047851562 1447.93554688 258.047851562 1453.05566406 c 128,-1,1398
 258.047851562 1458.17578125 258.047851562 1458.17578125 260.28515625 1458.17578125 c 0,1399,1400
 263.299669186 1458.17578125 263.299669186 1458.17578125 267.381662598 1462.11372007 c 128,-1,1401
 271.463656009 1466.05165889 271.463656009 1466.05165889 270.73046875 1468.25195312 c 0,1402,1403
 269.781197215 1471.11402106 269.781197215 1471.11402106 273.125976562 1469.82910156 c 128,-1,1404
 276.48046875 1468.54446034 276.48046875 1468.54446034 276.48046875 1472.578125 c 128,-1,1405
 276.48046875 1476.60839844 276.48046875 1476.60839844 279.551757812 1476.60839844 c 128,-1,1406
 282.624023438 1476.60839844 282.624023438 1476.60839844 282.624023438 1479.93066406 c 128,-1,1407
 282.624023438 1483.25342333 282.624023438 1483.25342333 285.537109375 1480.83691406 c 0,1408,1409
 287.326192851 1479.35101542 287.326192851 1479.35101542 287.673583984 1479.69665527 c 128,-1,1410
 288.020975118 1480.04229512 288.020975118 1480.04229512 287.344726562 1482.63378906 c 0,1411,1412
 286.240335853 1486.84765625 286.240335853 1486.84765625 289.551757812 1486.84765625 c 128,-1,1413
 292.864257812 1486.84765625 292.864257812 1486.84765625 292.864257812 1489.91992188 c 128,-1,1414
 292.864257812 1492.9921875 292.864257812 1492.9921875 295.935546875 1492.9921875 c 128,-1,1415
 299.0078125 1492.9921875 299.0078125 1492.9921875 299.0078125 1496.06445312 c 128,-1,1416
 299.0078125 1499.13574219 299.0078125 1499.13574219 302.080078125 1499.13574219 c 128,-1,1417
 305.15234375 1499.13574219 305.15234375 1499.13574219 305.15234375 1502.44824219 c 128,-1,1418
 305.15234375 1505.75966415 305.15234375 1505.75966415 309.366210938 1504.65527344 c 128,-1,1419
 313.576664085 1503.55684261 313.576664085 1503.55684261 311.163085938 1506.46289062 c 128,-1,1420
 308.746576675 1509.37597656 308.746576675 1509.37597656 312.069335938 1509.37597656 c 128,-1,1421
 315.391601562 1509.37597656 315.391601562 1509.37597656 315.391601562 1512.44824219 c 128,-1,1422
 315.391601562 1515.51953125 315.391601562 1515.51953125 319.421875 1515.51953125 c 128,-1,1423
 323.455539665 1515.51953125 323.455539665 1515.51953125 322.170898438 1518.87402344 c 128,-1,1424
 320.885978944 1522.21880278 320.885978944 1522.21880278 323.748046875 1521.26953125 c 0,1425,1426
 325.948341108 1520.53634399 325.948341108 1520.53634399 329.886279929 1524.6183374 c 128,-1,1427
 333.82421875 1528.70033081 333.82421875 1528.70033081 333.82421875 1531.71484375 c 0,1428,1429
 333.82421875 1533.95214844 333.82421875 1533.95214844 338.944335938 1533.95214844 c 128,-1,1430
 344.064453125 1533.95214844 344.064453125 1533.95214844 344.064453125 1536 c 128,-1,1431
 344.064453125 1538.04785156 344.064453125 1538.04785156 347.135742188 1538.04785156 c 128,-1,1432
 350.208007812 1538.04785156 350.208007812 1538.04785156 350.208007812 1541.12011719 c 128,-1,1433
 350.208007812 1544.19238281 350.208007812 1544.19238281 353.280273438 1544.19238281 c 128,-1,1434
 356.3515625 1544.19238281 356.3515625 1544.19238281 356.3515625 1547.26367188 c 128,-1,1435
 356.3515625 1550.3359375 356.3515625 1550.3359375 359.546875 1550.3359375 c 0,1436,1437
 360.863840108 1550.3359375 360.863840108 1550.3359375 361.49550717 1550.8307071 c 128,-1,1438
 362.127174231 1551.32547669 362.127174231 1551.32547669 361.697265625 1552.02050781 c 0,1439,1440
 360.810237435 1553.45689285 360.810237435 1553.45689285 364.087885096 1556.55369898 c 128,-1,1441
 367.365532757 1559.65050511 367.365532757 1559.65050511 371.419921875 1561.20605469 c 0,1442,1443
 375.048427939 1562.59520333 375.048427939 1562.59520333 373.770507812 1564.65625 c 0,1444,1445
 373.08516061 1565.76116125 373.08516061 1565.76116125 375.187550876 1566.34099337 c 0,1446,1447
 376.560784539 1566.71972656 376.560784539 1566.71972656 378.756835938 1566.71972656 c 0,1448,1449
 385.024414062 1566.71972656 385.024414062 1566.71972656 385.024414062 1569.91503906 c 0,1450,1451
 385.024414062 1571.23197973 385.024414062 1571.23197973 385.558484801 1571.83985868 c 128,-1,1452
 386.092555539 1572.44773764 386.092555539 1572.44773764 386.841796875 1571.98339844 c 0,1453,1454
 388.657251634 1570.85717699 388.657251634 1570.85717699 391.44921875 1574.30273438 c 2,1455,-1
 391.6796875 1576.20703125 l 1,1456,1457
 389.120117188 1574.67057856 389.120117188 1574.67057856 389.120117188 1576.83691406 c 128,-1,1458
 389.120117188 1579.0078125 389.120117188 1579.0078125 393.215820312 1579.0078125 c 0,1459,1460
 394.905578196 1579.0078125 394.905578196 1579.0078125 395.958522607 1579.76002871 c 128,-1,1461
 397.011467017 1580.51224491 397.011467017 1580.51224491 396.799804688 1581.56835938 c 128,-1,1462
 396.5655627 1582.73078524 396.5655627 1582.73078524 397.690264513 1583.29514352 c 128,-1,1463
 398.814966327 1583.85950179 398.814966327 1583.85950179 400.916015625 1583.63671875 c 0,1464,1465
 404.932931568 1583.21049358 404.932931568 1583.21049358 408.976772464 1586.73008862 c 128,-1,1466
 413.020613361 1590.24968366 413.020613361 1590.24968366 412.006835938 1593.28808594 c 0,1467,1468
 411.092823736 1596.04172905 411.092823736 1596.04172905 414.438476562 1594.75683594 c 128,-1,1469
 417.791992188 1593.47079884 417.791992188 1593.47079884 417.791992188 1597.48144531 c 128,-1,1470
 417.791992188 1601.4834953 417.791992188 1601.4834953 421.375976562 1601.1875 c 0,1471,1472
 431.796081176 1601.14685932 431.796081176 1601.14685932 431.385742188 1604.60839844 c 0,1473,1474
 430.212261222 1607.6796875 430.212261222 1607.6796875 432.337890625 1607.6796875 c 128,-1,1475
 434.426613816 1607.6796875 434.426613816 1607.6796875 437.373463158 1610.64946357 c 128,-1,1476
 440.3203125 1613.61923965 440.3203125 1613.61923965 440.3203125 1615.72363281 c 0,1477,1478
 440.3203125 1616.62993046 440.3203125 1616.62993046 440.771342176 1617.20459766 c 128,-1,1479
 441.222371852 1617.77926486 441.222371852 1617.77926486 441.856445312 1617.6796875 c 0,1480,1481
 452.608398438 1615.98092034 452.608398438 1615.98092034 452.608398438 1620.92578125 c 0,1482,1483
 452.608398438 1623.93721362 452.608398438 1623.93721362 455.6796875 1622.75878906 c 0,1484,1485
 457.300745396 1622.13615047 457.300745396 1622.13615047 458.02634926 1622.93273152 c 128,-1,1486
 458.751953125 1623.72931257 458.751953125 1623.72931257 458.751953125 1626.1328125 c 0,1487,1488
 458.751953125 1630.68859569 458.751953125 1630.68859569 463.872070312 1629.70605469 c 128,-1,1489
 468.9921875 1628.73079427 468.9921875 1628.73079427 468.9921875 1632.33789062 c 128,-1,1490
 468.9921875 1635.94206997 468.9921875 1635.94206997 475.135742188 1635.51757812 c 128,-1,1491
 481.280273438 1635.09674019 481.280273438 1635.09674019 481.280273438 1637.89355469 c 128,-1,1492
 481.280273438 1640.69584711 481.280273438 1640.69584711 483.225585938 1639.48535156 c 128,-1,1493
 485.172881252 1638.28428255 485.172881252 1638.28428255 487.33203125 1642.32226562 c 128,-1,1494
 489.483016134 1646.34964158 489.483016134 1646.34964158 493.37890625 1645.60351562 c 128,-1,1495
 497.264282662 1644.85473117 497.264282662 1644.85473117 498.2578125 1648.63476562 c 128,-1,1496
 499.246815599 1652.41643452 499.246815599 1652.41643452 505.108398438 1653.08886719 c 0,1497,1498
 507.861991534 1653.40385655 507.861991534 1653.40385655 509.260320409 1654.32702879 c 128,-1,1499
 510.658649284 1655.25020103 510.658649284 1655.25020103 510.381835938 1656.57128906 c 128,-1,1500
 510.097519961 1657.91153113 510.097519961 1657.91153113 510.765258789 1658.3302002 c 128,-1,1501
 511.432997617 1658.74886926 511.432997617 1658.74886926 512.942382812 1658.17382812 c 0,1502,1503
 516.095703125 1656.95943754 516.095703125 1656.95943754 516.095703125 1659.97070312 c 128,-1,1504
 516.095703125 1662.97558594 516.095703125 1662.97558594 522.173828125 1662.97558594 c 0,1505,1506
 525.415623741 1662.97558594 525.415623741 1662.97558594 526.583470795 1663.63385915 c 128,-1,1507
 527.751317849 1664.29213237 527.751317849 1664.29213237 527.17578125 1665.796875 c 128,-1,1508
 526.649943412 1667.15980566 526.649943412 1667.15980566 527.828649246 1668.25382633 c 128,-1,1509
 529.00735508 1669.347847 529.00735508 1669.347847 531.737304688 1670.03125 c 0,1510,1511
 537.385937539 1671.45183435 537.385937539 1671.45183435 534.420898438 1673.32324219 c 0,1512,1513
 532.469066804 1674.55871917 532.469066804 1674.55871917 533.567400521 1674.94494244 c 0,1514,1515
 534.342974486 1675.21766894 534.342974486 1675.21766894 536.868164062 1675.23339844 c 0,1516,1517
 542.285616128 1675.26152278 542.285616128 1675.26152278 543.518554688 1678.484375 c 128,-1,1518
 544.747690795 1681.70282981 544.747690795 1681.70282981 550.384765625 1681.04492188 c 128,-1,1519
 556.011964406 1680.38438026 556.011964406 1680.38438026 556.02734375 1683.45605469 c 128,-1,1520
 556.042423436 1686.53080274 556.042423436 1686.53080274 561.536132812 1686.42089844 c 128,-1,1521
 567.022242719 1686.3091542 567.022242719 1686.3091542 566.651367188 1688.46875 c 128,-1,1522
 566.26900774 1690.62241182 566.26900774 1690.62241182 571.904296875 1691.27441406 c 128,-1,1523
 577.536132812 1691.91722428 577.536132812 1691.91722428 577.536132812 1694.85839844 c 128,-1,1524
 577.536132812 1697.79199219 577.536132812 1697.79199219 585.794921875 1697.79199219 c 128,-1,1525
 594.04614906 1697.79199219 594.04614906 1697.79199219 595.291992188 1701.02832031 c 128,-1,1526
 596.529592703 1704.26258299 596.529592703 1704.26258299 600.268554688 1703.29101562 c 0,1527,1528
 602.142003225 1702.80105115 602.142003225 1702.80105115 604.239547164 1703.7291305 c 128,-1,1529
 606.337091104 1704.65720985 606.337091104 1704.65720985 607.067093461 1706.05960648 c 128,-1,1530
 607.797095817 1707.46200312 607.797095817 1707.46200312 606.874023438 1708.73339844 c 1,1531,-1
 610.985351562 1710.08007812 l 2,1532,1533
 616.448242188 1710.08007812 616.448242188 1710.08007812 616.448242188 1712.12792969 c 128,-1,1534
 616.448242188 1714.17578125 616.448242188 1714.17578125 622.591796875 1714.17578125 c 128,-1,1535
 628.736816406 1714.17578125 628.736816406 1714.17578125 628.736328125 1717.24804688 c 128,-1,1536
 628.736328125 1720.3203125 628.736328125 1720.3203125 636.927734375 1720.3203125 c 128,-1,1537
 645.120117188 1720.3203125 645.120117188 1720.3203125 645.120117188 1723.39160156 c 128,-1,1538
 645.120117188 1726.46386719 645.120117188 1726.46386719 652.221679688 1726.46386719 c 0,1539,1540
 656.553272123 1726.46386719 656.553272123 1726.46386719 657.68520086 1727.12623252 c 128,-1,1541
 658.817129597 1727.78859785 658.817129597 1727.78859785 658.022460938 1729.85839844 c 128,-1,1542
 657.197135228 1732.00849274 657.197135228 1732.00849274 658.145385742 1732.39489746 c 128,-1,1543
 659.093636257 1732.78130218 659.093636257 1732.78130218 663.18359375 1731.96289062 c 0,1544,1545
 669.642468248 1730.67618256 669.642468248 1730.67618256 673.254882812 1734.32324219 c 128,-1,1546
 676.868316215 1737.97053229 676.868316215 1737.97053229 684.543945312 1737.75390625 c 128,-1,1547
 692.223632812 1737.53508205 692.223632812 1737.53508205 692.223632812 1740.19042969 c 128,-1,1548
 692.223632812 1742.84765625 692.223632812 1742.84765625 700.416015625 1742.84765625 c 128,-1,1549
 708.608398438 1742.84765625 708.608398438 1742.84765625 708.608398438 1746.04785156 c 128,-1,1550
 708.608398438 1749.25398299 708.608398438 1749.25398299 712.192382812 1748.88476562 c 0,1551,1552
 724.9921875 1747.583575 724.9921875 1747.583575 724.9921875 1752.06445312 c 0,1553,1554
 724.9921875 1755.13574219 724.9921875 1755.13574219 736.036132812 1755.13574219 c 128,-1,1555
 747.081460713 1755.13574219 747.081460713 1755.13574219 748.344726562 1758.42285156 c 128,-1,1556
 749.605367327 1761.70784078 749.605367327 1761.70784078 757.775390625 1760.92675781 c 128,-1,1557
 765.952148438 1760.1462286 765.952148438 1760.1462286 765.952148438 1762.5390625 c 128,-1,1558
 765.952148438 1764.92625765 765.952148438 1764.92625765 779.422851562 1765.12988281 c 0,1559,1560
 795.132863448 1766.93280458 795.132863448 1766.93280458 795.560546875 1769.61523438 c 2,1561,-1
 805.764648438 1771.51953125 l 2,1562,1563
 817.15234375 1771.51953125 817.15234375 1771.51953125 817.15234375 1774.74023438 c 128,-1,1564
 817.15234375 1777.96503759 817.15234375 1777.96503759 834.396484375 1777.30078125 c 0,1565,1566
 839.057946238 1777.12169738 839.057946238 1777.12169738 843.022515731 1777.10685899 c 128,-1,1567
 846.987085224 1777.0920206 846.987085224 1777.0920206 849.284124894 1777.23949518 c 128,-1,1568
 851.581164563 1777.38696976 851.581164563 1777.38696976 851.55859375 1777.6640625 c 0,1569,1570
 851.270779738 1781.50744147 851.270779738 1781.50744147 854.036712373 1782.54838863 c 128,-1,1571
 856.802645009 1783.5893358 856.802645009 1783.5893358 867.83984375 1783.79296875 c 2,1572,-1
 887.993509436 1785.50131117 l 1,1573,1574
 886.611579927 1787.79202692 886.611579927 1787.79202692 890.382590017 1788.4102226 c 0,1575,1576
 895.658568852 1789.27513338 895.658568852 1789.27513338 918.225585938 1788.5078125 c 0,1577,1578
 943.563016444 1787.8167441 943.563016444 1787.8167441 943.196289062 1789.80371094 c 1,319,-1
1102.84765625 1775.62109375 m 0,1579,1580
 1182.21810554 1769.95096463 1182.21810554 1769.95096463 1192.95996094 1765.49414062 c 0,1581,1582
 1197.06349718 1763.78655727 1197.06349718 1763.78655727 1210.36816406 1761.47949219 c 0,1583,1584
 1279.47354547 1749.47006878 1279.47354547 1749.47006878 1329.15234375 1731.53808594 c 0,1585,1586
 1336.31258039 1728.95210005 1336.31258039 1728.95210005 1345.53613281 1726.53027344 c 128,-1,1587
 1354.73960959 1724.11325247 1354.73960959 1724.11325247 1360.54785156 1721.19042969 c 128,-1,1588
 1366.33769721 1718.27246094 1366.33769721 1718.27246094 1370.31640625 1718.27246094 c 128,-1,1589
 1374.28147241 1718.27246094 1374.28147241 1718.27246094 1385.79980469 1712.12792969 c 128,-1,1590
 1397.31453074 1705.984375 1397.31453074 1705.984375 1399.95117188 1705.984375 c 128,-1,1591
 1402.59269102 1705.984375 1402.59269102 1705.984375 1415.86914062 1699.83984375 c 128,-1,1592
 1429.14525577 1693.69628906 1429.14525577 1693.69628906 1431.39355469 1693.69628906 c 0,1593,1594
 1433.92087528 1693.69628906 1433.92087528 1693.69628906 1475.23191476 1672.85059319 c 128,-1,1595
 1516.54295424 1652.00489733 1516.54295424 1652.00489733 1519.11914062 1649.42871094 c 0,1596,1597
 1522.07688328 1646.47096828 1522.07688328 1646.47096828 1530.32226562 1642.25488281 c 128,-1,1598
 1538.52842924 1638.07398394 1538.52842924 1638.07398394 1546.80273438 1632.08691406 c 128,-1,1599
 1555.03867837 1626.11230469 1555.03867837 1626.11230469 1556.8125 1626.11230469 c 128,-1,1600
 1558.57603557 1626.11230469 1558.57603557 1626.11230469 1570.57519531 1617.91992188 c 128,-1,1601
 1582.57435505 1609.72753906 1582.57435505 1609.72753906 1584.58886719 1609.72753906 c 128,-1,1602
 1586.60096828 1609.72753906 1586.60096828 1609.72753906 1591.91503906 1605.12011719 c 128,-1,1603
 1597.21116213 1600.52211138 1597.21116213 1600.52211138 1609.75390625 1591.29589844 c 128,-1,1604
 1622.30738691 1582.05571057 1622.30738691 1582.05571057 1633.3828125 1573.37597656 c 128,-1,1605
 1644.4875557 1564.671875 1644.4875557 1564.671875 1645.87988281 1564.671875 c 128,-1,1606
 1647.27644361 1564.671875 1647.27644361 1564.671875 1650.51367188 1561.61035156 c 128,-1,1607
 1653.81917576 1558.48547631 1653.81917576 1558.48547631 1662.85351562 1550.85839844 c 0,1608,1609
 1721.23857026 1501.48833961 1721.23857026 1501.48833961 1759.57519531 1459.98339844 c 0,1610,1611
 1806.92552253 1408.72948172 1806.92552253 1408.72948172 1829.82128906 1377.28027344 c 0,1612,1613
 1838.75245164 1365.0134395 1838.75245164 1365.0134395 1842.51855469 1360.66601562 c 0,1614,1615
 1847.31503489 1355.14319097 1847.31503489 1355.14319097 1855.73925781 1341.95214844 c 0,1616,1617
 1859.98263938 1335.29589844 1859.98263938 1335.29589844 1861.69824219 1335.29589844 c 128,-1,1618
 1863.40319763 1335.29589844 1863.40319763 1335.29589844 1864.82714844 1330.68847656 c 128,-1,1619
 1866.24018145 1326.11461909 1866.24018145 1326.11461909 1875.20507812 1312.66015625 c 128,-1,1620
 1884.16015625 1299.24706838 1884.16015625 1299.24706838 1884.16015625 1297.57714844 c 128,-1,1621
 1884.16015625 1295.90018352 1884.16015625 1295.90018352 1890.97949219 1286.42089844 c 128,-1,1622
 1897.79935343 1276.91787137 1897.79935343 1276.91787137 1902.39257812 1267.71191406 c 128,-1,1623
 1906.9902768 1258.49876497 1906.9902768 1258.49876497 1909.39648438 1256.44824219 c 0,1624,1625
 1911.52699098 1254.63621337 1911.52699098 1254.63621337 1931.69246187 1213.66342914 c 128,-1,1626
 1951.85793275 1172.6906449 1951.85793275 1172.6906449 1951.80078125 1170.29394531 c 0,1627,1628
 1951.74417564 1168.11462933 1951.74417564 1168.11462933 1957.88769531 1156.09570312 c 128,-1,1629
 1964.03222656 1144.08004652 1964.03222656 1144.08004652 1964.03222656 1141.17089844 c 128,-1,1630
 1964.03222656 1138.25497762 1964.03222656 1138.25497762 1969.15234375 1128.06445312 c 128,-1,1631
 1974.27246094 1117.86861796 1974.27246094 1117.86861796 1974.27246094 1113.32910156 c 128,-1,1632
 1974.27246094 1108.78790902 1974.27246094 1108.78790902 1976.47851562 1106.58007812 c 128,-1,1633
 1978.68059208 1104.37977325 1978.68059208 1104.37977325 1980.39550781 1097.46679688 c 0,1634,1635
 1982.97830928 1087.03516618 1982.97830928 1087.03516618 1988.76171875 1072.12792969 c 0,1636,1637
 1990.36119706 1067.98651952 1990.36119706 1067.98651952 1991.35742188 1062.91210938 c 128,-1,1638
 1992.37719479 1057.76145246 1992.37719479 1057.76145246 1995.85839844 1048.57617188 c 0,1639,1640
 2001.82366483 1032.79762219 2001.82366483 1032.79762219 2014.39746094 970.751953125 c 0,1641,1642
 2019.60644124 945.084462357 2019.60644124 945.084462357 2021.36621094 939.0078125 c 128,-1,1643
 2023.13762167 932.884854339 2023.13762167 932.884854339 2025.375 909.311523438 c 128,-1,1644
 2027.60116244 885.839489563 2027.60116244 885.839489563 2029.63476562 873.471679688 c 0,1645,1646
 2034.08138274 846.504490815 2034.08138274 846.504490815 2034.04040527 769.601928711 c 128,-1,1647
 2033.99942781 692.699366607 2033.99942781 692.699366607 2029.52148438 661.50390625 c 0,1648,1649
 2027.29485605 645.994597384 2027.29485605 645.994597384 2024.53027344 622.591796875 c 0,1650,1651
 2018.73376221 573.612267382 2018.73376221 573.612267382 2010.40917969 544.168945312 c 0,1652,1653
 2007.41791014 533.631039749 2007.41791014 533.631039749 2003.9375 517.120117188 c 0,1654,1655
 1998.20039639 489.866049809 1998.20039639 489.866049809 1988.67480469 463.872070312 c 0,1656,1657
 1982.65612501 447.444867765 1982.65612501 447.444867765 1980.41601562 439.295898438 c 0,1658,1659
 1976.47801031 424.970275174 1976.47801031 424.970275174 1968.85546875 408.192382812 c 0,1660,1661
 1964.03222656 397.567398274 1964.03222656 397.567398274 1964.03222656 394.33203125 c 128,-1,1662
 1964.03222656 391.080474604 1964.03222656 391.080474604 1958.16992188 380.108398438 c 128,-1,1663
 1952.29628249 369.091317399 1952.29628249 369.091317399 1950.84277344 363.249023438 c 0,1664,1665
 1949.16171124 356.519649438 1949.16171124 356.519649438 1929.32021056 317.084134278 c 128,-1,1666
 1909.47870989 277.648619117 1909.47870989 277.648619117 1905.37207031 272.870117188 c 0,1667,1668
 1900.55284769 267.270166308 1900.55284769 267.270166308 1900.54394531 265.010742188 c 128,-1,1669
 1900.54394531 262.763701548 1900.54394531 262.763701548 1893.99511719 253.747070312 c 128,-1,1670
 1887.46451258 244.76771015 1887.46451258 244.76771015 1881.72265625 232.959960938 c 128,-1,1671
 1875.99783601 221.18359375 1875.99783601 221.18359375 1874.28320312 221.18359375 c 128,-1,1672
 1872.57019346 221.18359375 1872.57019346 221.18359375 1867.77636719 210.944335938 c 128,-1,1673
 1862.9829149 200.704101562 1862.9829149 200.704101562 1861.62695312 200.704101562 c 128,-1,1674
 1860.2786365 200.704101562 1860.2786365 200.704101562 1853.36816406 190.048828125 c 128,-1,1675
 1846.4387241 179.355401878 1846.4387241 179.355401878 1843.68652344 176.225585938 c 128,-1,1676
 1840.87926874 173.014215885 1840.87926874 173.014215885 1830.91210938 159.744140625 c 128,-1,1677
 1820.95489 146.487299278 1820.95489 146.487299278 1817.72265625 142.84765625 c 128,-1,1678
 1814.52832031 139.262467194 1814.52832031 139.262467194 1814.52832031 137.57421875 c 128,-1,1679
 1814.52832031 135.885140262 1814.52832031 135.885140262 1809.40820312 131.072265625 c 128,-1,1680
 1804.28808594 126.259284455 1804.28808594 126.259284455 1804.28808594 124.318359375 c 128,-1,1681
 1804.28808594 122.377828689 1804.28808594 122.377828689 1792.51171875 110.454101562 c 128,-1,1682
 1780.71738649 98.5103839104 1780.71738649 98.5103839104 1764.3515625 80.5732421875 c 0,1683,1684
 1739.09932551 52.9006744871 1739.09932551 52.9006744871 1711.42675781 27.6484375 c 0,1685,1686
 1693.48961609 11.2826135116 1693.48961609 11.2826135116 1681.54589844 -0.51171875 c 128,-1,1687
 1669.62217131 -12.2880859375 1669.62217131 -12.2880859375 1667.68164062 -12.2880859375 c 128,-1,1688
 1665.74071555 -12.2880859375 1665.74071555 -12.2880859375 1660.92773438 -17.408203125 c 128,-1,1689
 1656.11485974 -22.5283203125 1656.11485974 -22.5283203125 1654.42578125 -22.5283203125 c 128,-1,1690
 1652.73753281 -22.5283203125 1652.73753281 -22.5283203125 1649.15234375 -25.72265625 c 128,-1,1691
 1645.51270072 -28.9548900038 1645.51270072 -28.9548900038 1632.25585938 -38.912109375 c 128,-1,1692
 1618.98578411 -48.879268744 1618.98578411 -48.879268744 1615.77441406 -51.6865234375 c 128,-1,1693
 1612.64459812 -54.4387240991 1612.64459812 -54.4387240991 1601.95117188 -61.3681640625 c 128,-1,1694
 1591.29589844 -68.2786364986 1591.29589844 -68.2786364986 1591.29589844 -69.626953125 c 128,-1,1695
 1591.29589844 -70.9829148968 1591.29589844 -70.9829148968 1581.05566406 -75.7763671875 c 128,-1,1696
 1570.81640625 -80.5701934566 1570.81640625 -80.5701934566 1570.81640625 -82.283203125 c 128,-1,1697
 1570.81640625 -83.9978360129 1570.81640625 -83.9978360129 1559.04003906 -89.72265625 c 128,-1,1698
 1547.23228985 -95.4645125843 1547.23228985 -95.4645125843 1538.25292969 -101.995117188 c 128,-1,1699
 1529.23629845 -108.543945312 1529.23629845 -108.543945312 1526.98925781 -108.543945312 c 128,-1,1700
 1524.72983369 -108.552847693 1524.72983369 -108.552847693 1519.12988281 -113.372070312 c 0,1701,1702
 1514.35138088 -117.478709889 1514.35138088 -117.478709889 1474.91586572 -137.320210562 c 128,-1,1703
 1435.48035056 -157.161711235 1435.48035056 -157.161711235 1428.75097656 -158.842773438 c 0,1704,1705
 1422.9086826 -160.296282485 1422.9086826 -160.296282485 1411.89160156 -166.169921875 c 128,-1,1706
 1400.9195254 -172.032226562 1400.9195254 -172.032226562 1397.66796875 -172.032226562 c 128,-1,1707
 1394.43260173 -172.032226562 1394.43260173 -172.032226562 1383.80761719 -176.85546875 c 0,1708,1709
 1367.02972483 -184.478010311 1367.02972483 -184.478010311 1352.70410156 -188.416015625 c 0,1710,1711
 1344.55513223 -190.656125005 1344.55513223 -190.656125005 1328.12792969 -196.674804688 c 0,1712,1713
 1302.13395019 -206.20039639 1302.13395019 -206.20039639 1274.87988281 -211.9375 c 0,1714,1715
 1258.36896025 -215.417910142 1258.36896025 -215.417910142 1247.83105469 -218.409179688 c 0,1716,1717
 1218.38773262 -226.733762208 1218.38773262 -226.733762208 1169.40820312 -232.530273438 c 0,1718,1719
 1146.00540262 -235.294856053 1146.00540262 -235.294856053 1130.49609375 -237.521484375 c 0,1720,1721
 1099.30063339 -241.999427807 1099.30063339 -241.999427807 1022.39807129 -242.040405273 c 128,-1,1722
 945.495509185 -242.081382739 945.495509185 -242.081382739 918.528320312 -237.634765625 c 0,1723,1724
 906.160510437 -235.601162441 906.160510437 -235.601162441 882.688476562 -233.375 c 128,-1,1725
 859.115145661 -231.137621666 859.115145661 -231.137621666 852.9921875 -229.366210938 c 128,-1,1726
 846.915537643 -227.606441239 846.915537643 -227.606441239 821.248046875 -222.397460938 c 0,1727,1728
 759.202377811 -209.823664826 759.202377811 -209.823664826 743.423828125 -203.858398438 c 0,1729,1730
 734.238547541 -200.377194794 734.238547541 -200.377194794 729.087890625 -199.357421875 c 128,-1,1731
 724.013480484 -198.361197061 724.013480484 -198.361197061 719.872070312 -196.76171875 c 0,1732,1733
 704.964833824 -190.978309276 704.964833824 -190.978309276 694.533203125 -188.395507812 c 0,1734,1735
 687.620226746 -186.680592078 687.620226746 -186.680592078 685.419921875 -184.478515625 c 128,-1,1736
 683.212090976 -182.272460938 683.212090976 -182.272460938 678.670898438 -182.272460938 c 128,-1,1737
 674.131382037 -182.272460938 674.131382037 -182.272460938 663.935546875 -177.15234375 c 128,-1,1738
 653.745022376 -172.032226562 653.745022376 -172.032226562 650.829101562 -172.032226562 c 128,-1,1739
 647.919953477 -172.032226562 647.919953477 -172.032226562 635.904296875 -165.887695312 c 128,-1,1740
 623.885370672 -159.74417564 623.885370672 -159.74417564 621.706054688 -159.80078125 c 0,1741,1742
 619.309355103 -159.857932753 619.309355103 -159.857932753 578.336570864 -139.692461867 c 128,-1,1743
 537.363786626 -119.52699098 537.363786626 -119.52699098 535.551757812 -117.396484375 c 0,1744,1745
 533.501235026 -114.990276803 533.501235026 -114.990276803 524.288085938 -110.392578125 c 128,-1,1746
 515.082128634 -105.799353425 515.082128634 -105.799353425 505.579101562 -98.9794921875 c 128,-1,1747
 496.099816478 -92.16015625 496.099816478 -92.16015625 494.422851562 -92.16015625 c 128,-1,1748
 492.752931624 -92.16015625 492.752931624 -92.16015625 479.33984375 -83.205078125 c 128,-1,1749
 465.885380912 -74.2401814478 465.885380912 -74.2401814478 461.311523438 -72.8271484375 c 128,-1,1750
 456.704101562 -71.4031976307 456.704101562 -71.4031976307 456.704101562 -69.6982421875 c 128,-1,1751
 456.704101562 -67.9826393809 456.704101562 -67.9826393809 450.047851562 -63.7392578125 c 0,1752,1753
 436.856809034 -55.3150348889 436.856809034 -55.3150348889 431.333984375 -50.5185546875 c 0,1754,1755
 426.986560496 -46.7524516385 426.986560496 -46.7524516385 414.719726562 -37.8212890625 c 0,1756,1757
 383.270518283 -14.9255225305 383.270518283 -14.9255225305 332.016601562 32.4248046875 c 0,1758,1759
 290.511660386 70.7614297438 290.511660386 70.7614297438 241.141601562 129.146484375 c 0,1760,1761
 233.514523694 138.180824241 233.514523694 138.180824241 230.389648438 141.486328125 c 128,-1,1762
 227.328125 144.723556386 227.328125 144.723556386 227.328125 146.120117188 c 128,-1,1763
 227.328125 147.512444299 227.328125 147.512444299 218.624023438 158.6171875 c 128,-1,1764
 209.944289426 169.69261309 209.944289426 169.69261309 200.704101562 182.24609375 c 128,-1,1765
 191.477888625 194.788837865 191.477888625 194.788837865 186.879882812 200.084960938 c 128,-1,1766
 182.272460938 205.399031717 182.272460938 205.399031717 182.272460938 207.411132812 c 128,-1,1767
 182.272460938 209.425644946 182.272460938 209.425644946 174.080078125 221.424804688 c 128,-1,1768
 165.887695312 233.423964429 165.887695312 233.423964429 165.887695312 235.1875 c 128,-1,1769
 165.887695312 236.961321626 165.887695312 236.961321626 159.913085938 245.197265625 c 128,-1,1770
 153.926016061 253.471570765 153.926016061 253.471570765 149.745117188 261.677734375 c 128,-1,1771
 145.529031716 269.923116722 145.529031716 269.923116722 142.571289062 272.880859375 c 0,1772,1773
 139.995102674 275.457045764 139.995102674 275.457045764 119.149406806 316.768085242 c 128,-1,1774
 98.3037109375 358.079124721 98.3037109375 358.079124721 98.3037109375 360.606445312 c 0,1775,1776
 98.3037109375 362.854744231 98.3037109375 362.854744231 92.16015625 376.130859375 c 128,-1,1777
 86.015625 389.407308978 86.015625 389.407308978 86.015625 392.048828125 c 128,-1,1778
 86.015625 394.685469258 86.015625 394.685469258 79.8720703125 406.200195312 c 128,-1,1779
 73.7275390625 417.718527592 73.7275390625 417.718527592 73.7275390625 421.68359375 c 128,-1,1780
 73.7275390625 425.662302789 73.7275390625 425.662302789 70.8095703125 431.452148438 c 128,-1,1781
 67.886747535 437.26039041 67.886747535 437.26039041 65.4697265625 446.463867188 c 128,-1,1782
 63.0478999499 455.687419606 63.0478999499 455.687419606 60.4619140625 462.84765625 c 0,1783,1784
 42.5299312197 512.526454531 42.5299312197 512.526454531 30.5205078125 581.631835938 c 0,1785,1786
 28.2134427268 594.93650282 28.2134427268 594.93650282 26.505859375 599.040039062 c 0,1787,1788
 23.0115961475 607.469252634 23.0115961475 607.469252634 16.1435546875 688.127929688 c 0,1789,1790
 14.369111532 708.99196408 14.369111532 708.99196408 14.3758544922 767.027099609 c 128,-1,1791
 14.3825974524 825.062235139 14.3825974524 825.062235139 16.1640625 846.84765625 c 0,1792,1793
 22.7784257528 927.79980567 22.7784257528 927.79980567 26.1220703125 935.935546875 c 0,1794,1795
 27.6187309043 939.577087278 27.6187309043 939.577087278 34.6416015625 976.896484375 c 0,1796,1797
 40.0740598981 1005.72315054 40.0740598981 1005.72315054 55.720703125 1058.81640625 c 0,1798,1799
 57.8342040397 1065.9863249 57.8342040397 1065.9863249 60.662109375 1072.71191406 c 128,-1,1800
 63.48828125 1079.42695521 63.48828125 1079.42695521 63.48828125 1083.34082031 c 128,-1,1801
 63.48828125 1087.24645171 63.48828125 1087.24645171 65.5361328125 1088.51171875 c 128,-1,1802
 67.583984375 1089.77808316 67.583984375 1089.77808316 67.583984375 1095.40820312 c 128,-1,1803
 67.583984375 1101.03676694 67.583984375 1101.03676694 70.58984375 1105.01855469 c 128,-1,1804
 73.5948179196 1108.99264634 73.5948179196 1108.99264634 73.60546875 1113.08789062 c 128,-1,1805
 73.6143439834 1117.18292332 73.6143439834 1117.18292332 79.611328125 1129.47167969 c 128,-1,1806
 85.6115259417 1141.77244067 85.6115259417 1141.77244067 87.654296875 1147.90429688 c 0,1807,1808
 92.7064592217 1163.09812598 92.7064592217 1163.09812598 114.501314192 1208.85553148 c 128,-1,1809
 136.296169163 1254.61293697 136.296169163 1254.61293697 139.391601562 1256.53027344 c 0,1810,1811
 141.420445506 1257.78180986 141.420445506 1257.78180986 148.556640625 1271.96191406 c 128,-1,1812
 155.699496864 1286.14637242 155.699496864 1286.14637242 157.209960938 1286.17480469 c 128,-1,1813
 158.715251008 1286.21203801 158.715251008 1286.21203801 163.732421875 1296.41503906 c 128,-1,1814
 168.740167471 1306.62402344 168.740167471 1306.62402344 170.05078125 1306.62402344 c 128,-1,1815
 171.363411694 1306.62402344 171.363411694 1306.62402344 177.21875 1318.40039062 c 128,-1,1816
 183.097983926 1330.20513764 183.097983926 1330.20513764 186.875 1335.29589844 c 0,1817,1818
 208.800577881 1364.88345094 208.800577881 1364.88345094 213.98046875 1370.28613281 c 0,1819,1820
 217.086655088 1373.5218175 217.086655088 1373.5218175 217.124023438 1375.40625 c 128,-1,1821
 217.161390852 1377.28173833 217.161390852 1377.28173833 222.244140625 1382.10351562 c 128,-1,1822
 227.328125 1386.92637292 227.328125 1386.92637292 227.328125 1389.32714844 c 128,-1,1823
 227.328125 1391.72871732 227.328125 1391.72871732 230.912109375 1395.05175781 c 128,-1,1824
 234.493724155 1398.36359784 234.493724155 1398.36359784 239.206054688 1404.2109375 c 0,1825,1826
 263.659423828 1434.52807617 263.659423828 1434.52807617 310.565673828 1481.43432617 c 128,-1,1827
 357.471923828 1528.34057617 357.471923828 1528.34057617 387.7890625 1552.79394531 c 0,1828,1829
 393.636402158 1557.50627584 393.636402158 1557.50627584 396.948242188 1561.08789062 c 128,-1,1830
 400.271282678 1564.671875 400.271282678 1564.671875 402.672851562 1564.671875 c 128,-1,1831
 405.07362708 1564.671875 405.07362708 1564.671875 409.896484375 1569.75585938 c 128,-1,1832
 414.718261666 1574.83860915 414.718261666 1574.83860915 416.59375 1574.87597656 c 128,-1,1833
 418.478182505 1574.91334491 418.478182505 1574.91334491 421.713867188 1578.01953125 c 0,1834,1835
 427.116549062 1583.19942212 427.116549062 1583.19942212 456.704101562 1605.125 c 0,1836,1837
 461.794862358 1608.90201607 461.794862358 1608.90201607 473.599609375 1614.78125 c 128,-1,1838
 485.375976562 1620.63658831 485.375976562 1620.63658831 485.375976562 1621.94921875 c 128,-1,1839
 485.375976562 1623.25983253 485.375976562 1623.25983253 495.584960938 1628.26757812 c 128,-1,1840
 505.787961989 1633.28474899 505.787961989 1633.28474899 505.825195312 1634.79003906 c 128,-1,1841
 505.853627577 1636.30050314 505.853627577 1636.30050314 520.038085938 1643.44335938 c 128,-1,1842
 534.21819014 1650.57955449 534.21819014 1650.57955449 535.469726562 1652.60839844 c 0,1843,1844
 537.387063034 1655.70383084 537.387063034 1655.70383084 583.144468524 1677.49868581 c 128,-1,1845
 628.901874015 1699.29354078 628.901874015 1699.29354078 644.095703125 1704.34570312 c 0,1846,1847
 650.227559326 1706.38847406 650.227559326 1706.38847406 662.528320312 1712.38867188 c 128,-1,1848
 674.817076682 1718.38565602 674.817076682 1718.38565602 678.912109375 1718.39453125 c 128,-1,1849
 683.007353661 1718.40518208 683.007353661 1718.40518208 686.981445312 1721.41015625 c 128,-1,1850
 690.963233056 1724.41601562 690.963233056 1724.41601562 696.591796875 1724.41601562 c 128,-1,1851
 702.221916841 1724.41601562 702.221916841 1724.41601562 703.48828125 1726.46386719 c 128,-1,1852
 704.75354829 1728.51171875 704.75354829 1728.51171875 708.659179688 1728.51171875 c 128,-1,1853
 712.561791678 1728.51171875 712.561791678 1728.51171875 719.288085938 1731.41015625 c 0,1854,1855
 727.070985793 1734.76625366 727.070985793 1734.76625366 762.879882812 1744.95703125 c 0,1856,1857
 789.540714587 1752.54034875 789.540714587 1752.54034875 815.103515625 1757.35839844 c 0,1858,1859
 852.417632662 1764.37909901 852.417632662 1764.37909901 856.064453125 1765.87792969 c 0,1860,1861
 859.137541306 1767.14446834 859.137541306 1767.14446834 883.711914062 1769.36914062 c 128,-1,1862
 908.332134787 1771.60863617 908.332134787 1771.60863617 920.576171875 1773.7421875 c 0,1863,1864
 942.507366161 1777.55965262 942.507366161 1777.55965262 1000.7142334 1778.16064453 c 128,-1,1865
 1058.92110064 1778.76163644 1058.92110064 1778.76163644 1102.84765625 1775.62109375 c 1024,1866,-1
EndSplineSet
EndChar

StartChar: dollar
Encoding: 36 36 7
Width: 2048
GlyphClass: 2
Flags: W
LayerCount: 2
Fore
SplineSet
1629.29785156 1573.546875 m 1,0,-1
 1629.29785156 1619.05761719 l 1,1,-1
 1838.6484375 1619.05761719 l 1,2,-1
 2048 1619.05761719 l 1,3,-1
 2048 1113.88476562 l 1,4,-1
 2048 608.7109375 l 1,5,-1
 1838.6484375 608.7109375 l 1,6,-1
 1629.29785156 608.7109375 l 1,7,-1
 1629.29785156 654.22265625 l 1,8,-1
 1629.29785156 699.733398438 l 1,9,-1
 1447.25292969 699.733398438 l 1,10,-1
 1265.20898438 699.733398438 l 1,11,-1
 1265.20898438 745.244140625 l 1,12,-1
 1265.20898438 790.755859375 l 1,13,-1
 1128.67578125 790.755859375 l 1,14,-1
 992.142578125 790.755859375 l 1,15,-1
 992.142578125 836.266601562 l 1,16,-1
 992.142578125 881.77734375 l 1,17,-1
 855.609375 881.77734375 l 1,18,-1
 719.075195312 881.77734375 l 1,19,-1
 719.075195312 927.2890625 l 1,20,-1
 719.075195312 972.799804688 l 1,21,-1
 628.053710938 972.799804688 l 1,22,-1
 537.03125 972.799804688 l 1,23,-1
 537.03125 1018.31152344 l 1,24,-1
 537.03125 1063.82226562 l 1,25,-1
 446.008789062 1063.82226562 l 1,26,-1
 354.986328125 1063.82226562 l 1,27,-1
 354.986328125 1113.88476562 l 1,28,-1
 354.986328125 1163.94628906 l 1,29,-1
 446.008789062 1163.94628906 l 1,30,-1
 537.03125 1163.94628906 l 1,31,-1
 537.03125 1209.45800781 l 1,32,-1
 537.03125 1254.96875 l 1,33,-1
 628.053710938 1254.96875 l 1,34,-1
 719.075195312 1254.96875 l 1,35,-1
 719.075195312 1300.48046875 l 1,36,-1
 719.075195312 1345.99121094 l 1,37,-1
 855.609375 1345.99121094 l 1,38,-1
 992.142578125 1345.99121094 l 1,39,-1
 992.142578125 1391.50195312 l 1,40,-1
 992.142578125 1437.01367188 l 1,41,-1
 1128.67578125 1437.01367188 l 1,42,-1
 1265.20898438 1437.01367188 l 1,43,-1
 1265.20898438 1482.52441406 l 1,44,-1
 1265.20898438 1528.03515625 l 1,45,-1
 1447.25292969 1528.03515625 l 1,46,-1
 1629.29785156 1528.03515625 l 1,47,-1
 1629.29785156 1573.546875 l 1,0,-1
1174.18652344 1113.88476562 m 1,48,-1
 1174.18652344 1427.91113281 l 1,49,-1
 1087.71582031 1427.91113281 l 1,50,-1
 1001.24414062 1427.91113281 l 1,51,-1
 1001.24414062 1382.40039062 l 1,52,-1
 1001.24414062 1336.88867188 l 1,53,-1
 864.7109375 1336.88867188 l 1,54,-1
 728.177734375 1336.88867188 l 1,55,-1
 728.177734375 1291.37792969 l 1,56,-1
 728.177734375 1245.86621094 l 1,57,-1
 637.155273438 1245.86621094 l 1,58,-1
 546.133789062 1245.86621094 l 1,59,-1
 546.133789062 1200.35546875 l 1,60,-1
 546.133789062 1154.84472656 l 1,61,-1
 455.111328125 1154.84472656 l 1,62,-1
 364.088867188 1154.84472656 l 1,63,-1
 364.088867188 1113.88476562 l 1,64,-1
 364.088867188 1072.92480469 l 1,65,-1
 455.111328125 1072.92480469 l 1,66,-1
 546.133789062 1072.92480469 l 1,67,-1
 546.133789062 1027.41308594 l 1,68,-1
 546.133789062 981.90234375 l 1,69,-1
 637.155273438 981.90234375 l 1,70,-1
 728.177734375 981.90234375 l 1,71,-1
 728.177734375 936.390625 l 1,72,-1
 728.177734375 890.879882812 l 1,73,-1
 864.7109375 890.879882812 l 1,74,-1
 1001.24414062 890.879882812 l 1,75,-1
 1001.24414062 845.369140625 l 1,76,-1
 1001.24414062 799.857421875 l 1,77,-1
 1087.71582031 799.857421875 l 1,78,-1
 1174.18652344 799.857421875 l 1,79,-1
 1174.18652344 1113.88476562 l 1,48,-1
EndSplineSet
EndChar

StartChar: percent
Encoding: 37 37 8
Width: 2048
GlyphClass: 2
Flags: W
LayerCount: 2
Fore
SplineSet
1219.69824219 1751.04003906 m 1,0,-1
 1219.69824219 1792 l 1,1,-1
 1315.27148438 1792 l 1,2,-1
 1410.84472656 1792 l 1,3,-1
 1410.84472656 1655.46679688 l 1,4,-1
 1410.84472656 1518.93359375 l 1,5,-1
 1365.33300781 1518.93359375 l 1,6,-1
 1319.82226562 1518.93359375 l 1,7,-1
 1319.82226562 1473.421875 l 1,8,-1
 1319.82226562 1427.91113281 l 1,9,-1
 1228.79980469 1427.91113281 l 1,10,-1
 1137.77734375 1427.91113281 l 1,11,-1
 1137.77734375 1386.95117188 l 1,12,-1
 1137.77734375 1345.99121094 l 1,13,-1
 1274.31152344 1345.99121094 l 1,14,-1
 1410.84472656 1345.99121094 l 1,15,-1
 1410.84472656 1300.48046875 l 1,16,-1
 1410.84472656 1254.96875 l 1,17,-1
 1456.35546875 1254.96875 l 1,18,-1
 1501.86621094 1254.96875 l 1,19,-1
 1501.86621094 1209.45800781 l 1,20,-1
 1501.86621094 1163.94628906 l 1,21,-1
 1547.37792969 1163.94628906 l 1,22,-1
 1592.88867188 1163.94628906 l 1,23,-1
 1592.88867188 1113.88476562 l 1,24,-1
 1592.88867188 1063.82226562 l 1,25,-1
 1547.37792969 1063.82226562 l 1,26,-1
 1501.86621094 1063.82226562 l 1,27,-1
 1501.86621094 1018.31152344 l 1,28,-1
 1501.86621094 972.799804688 l 1,29,-1
 1456.35546875 972.799804688 l 1,30,-1
 1410.84472656 972.799804688 l 1,31,-1
 1410.84472656 927.2890625 l 1,32,-1
 1410.84472656 881.77734375 l 1,33,-1
 1274.31152344 881.77734375 l 1,34,-1
 1137.77734375 881.77734375 l 1,35,-1
 1137.77734375 840.817382812 l 1,36,-1
 1137.77734375 799.857421875 l 1,37,-1
 1228.79980469 799.857421875 l 1,38,-1
 1319.82226562 799.857421875 l 1,39,-1
 1319.82226562 754.346679688 l 1,40,-1
 1319.82226562 708.8359375 l 1,41,-1
 1365.33300781 708.8359375 l 1,42,-1
 1410.84472656 708.8359375 l 1,43,-1
 1410.84472656 572.301757812 l 1,44,-1
 1410.84472656 435.768554688 l 1,45,-1
 1315.27148438 435.768554688 l 1,46,-1
 1219.69824219 435.768554688 l 1,47,-1
 1219.69824219 476.728515625 l 1,48,-1
 1219.69824219 517.688476562 l 1,49,-1
 1128.67578125 517.688476562 l 1,50,-1
 1037.65332031 517.688476562 l 1,51,-1
 1037.65332031 563.200195312 l 1,52,-1
 1037.65332031 608.7109375 l 1,53,-1
 946.630859375 608.7109375 l 1,54,-1
 855.609375 608.7109375 l 1,55,-1
 855.609375 654.22265625 l 1,56,-1
 855.609375 699.733398438 l 1,57,-1
 632.604492188 699.733398438 l 1,58,-1
 409.599609375 699.733398438 l 1,59,-1
 409.599609375 654.22265625 l 1,60,-1
 409.599609375 608.7109375 l 1,61,-1
 204.799804688 608.7109375 l 1,62,-1
 0 608.7109375 l 1,63,-1
 0 1113.88476562 l 1,64,-1
 0 1619.05761719 l 1,65,-1
 204.799804688 1619.05761719 l 1,66,-1
 409.599609375 1619.05761719 l 1,67,-1
 409.599609375 1573.546875 l 1,68,-1
 409.599609375 1528.03515625 l 1,69,-1
 632.604492188 1528.03515625 l 1,70,-1
 855.609375 1528.03515625 l 1,71,-1
 855.609375 1573.546875 l 1,72,-1
 855.609375 1619.05761719 l 1,73,-1
 946.630859375 1619.05761719 l 1,74,-1
 1037.65332031 1619.05761719 l 1,75,-1
 1037.65332031 1664.56933594 l 1,76,-1
 1037.65332031 1710.08007812 l 1,77,-1
 1128.67578125 1710.08007812 l 1,78,-1
 1219.69824219 1710.08007812 l 1,79,-1
 1219.69824219 1751.04003906 l 1,0,-1
1401.7421875 1655.46679688 m 1,80,-1
 1401.7421875 1782.89746094 l 1,81,-1
 1315.27148438 1782.89746094 l 1,82,-1
 1228.79980469 1782.89746094 l 1,83,-1
 1228.79980469 1710.08007812 l 1,84,-1
 1228.79980469 1637.26269531 l 1,85,-1
 1278.86230469 1637.26269531 l 1,86,-1
 1328.92480469 1637.26269531 l 1,87,-1
 1328.92480469 1582.6484375 l 1,88,-1
 1328.92480469 1528.03515625 l 1,89,-1
 1365.33300781 1528.03515625 l 1,90,-1
 1401.7421875 1528.03515625 l 1,91,-1
 1401.7421875 1655.46679688 l 1,80,-1
582.541992188 1113.88476562 m 1,92,-1
 582.541992188 1327.78710938 l 1,93,-1
 450.559570312 1327.78710938 l 1,94,-1
 318.578125 1327.78710938 l 1,95,-1
 318.578125 1113.88476562 l 1,96,-1
 318.578125 899.982421875 l 1,97,-1
 450.559570312 899.982421875 l 1,98,-1
 582.541992188 899.982421875 l 1,99,-1
 582.541992188 1113.88476562 l 1,92,-1
1401.7421875 572.301757812 m 1,100,-1
 1401.7421875 699.733398438 l 1,101,-1
 1365.33300781 699.733398438 l 1,102,-1
 1328.92480469 699.733398438 l 1,103,-1
 1328.92480469 645.120117188 l 1,104,-1
 1328.92480469 590.506835938 l 1,105,-1
 1278.86230469 590.506835938 l 1,106,-1
 1228.79980469 590.506835938 l 1,107,-1
 1228.79980469 517.688476562 l 1,108,-1
 1228.79980469 444.87109375 l 1,109,-1
 1315.27148438 444.87109375 l 1,110,-1
 1401.7421875 444.87109375 l 1,111,-1
 1401.7421875 572.301757812 l 1,100,-1
EndSplineSet
EndChar

StartChar: ampersand
Encoding: 38 38 9
Width: 2048
GlyphClass: 2
Flags: W
LayerCount: 2
Fore
SplineSet
672 0 m 2,0,1
 192 0 192 0 192 384 c 128,-1,2
 192 768 192 768 512 928 c 1,3,4
 320 1088 320 1088 320 1376 c 128,-1,5
 320 1664 320 1664 672 1664 c 2,6,-1
 896 1664 l 2,7,8
 1280 1664 1280 1664 1280 1216 c 1,9,10
 1216 960 1216 960 960 864 c 1,11,12
 1152 704 1152 704 1280 576 c 1,13,-1
 1664 960 l 1,14,-1
 1856 768 l 1,15,-1
 1472 384 l 1,16,-1
 1728 160 l 1,17,-1
 1536 0 l 1,18,-1
 1312 192 l 1,19,20
 1216 64 1216 64 960 0 c 1,21,-1
 672 0 l 2,0,1
768 1408 m 0,22,23
 576 1408 576 1408 576 1280 c 0,24,25
 576 1216 576 1216 640 1152 c 2,26,-1
 768 1024 l 1,27,-1
 960 1152 l 1,28,29
 1024 1184 1024 1184 1024 1296 c 128,-1,30
 1024 1408 1024 1408 896 1408 c 0,31,32
 832 1408 832 1408 768 1408 c 0,22,23
544 640 m 0,33,34
 448 544 448 544 448 400 c 128,-1,35
 448 256 448 256 672 256 c 2,36,-1
 896 256 l 1,37,38
 992 288 992 288 1088 384 c 1,39,40
 896 576 896 576 704 736 c 1,41,42
 608 704 608 704 544 640 c 0,33,34
EndSplineSet
Validated: 1
EndChar

StartChar: quotesingle
Encoding: 39 39 10
Width: 2048
GlyphClass: 2
Flags: W
LayerCount: 2
Fore
SplineSet
832 1664 m 1,0,-1
 1216 1664 l 1,1,-1
 1216 1280 l 1,2,-1
 1024 960 l 1,3,-1
 832 1280 l 1,4,-1
 832 1664 l 1,0,-1
EndSplineSet
Validated: 1
EndChar

StartChar: parenleft
Encoding: 40 40 11
Width: 2048
GlyphClass: 2
Flags: W
LayerCount: 2
Fore
SplineSet
1152 1792 m 1,0,-1
 1248 1536 l 1,1,2
 896 1536 896 1536 896 896 c 256,3,4
 896 256 896 256 1248 128 c 1,5,-1
 1152 -128 l 1,6,7
 640 128 640 128 640 896 c 256,8,9
 640 1664 640 1664 1152 1792 c 1,0,-1
EndSplineSet
Validated: 1
EndChar

StartChar: parenright
Encoding: 41 41 12
Width: 2048
GlyphClass: 2
Flags: W
LayerCount: 2
Fore
SplineSet
896 1792 m 1,0,-1
 800 1536 l 1,1,2
 1152 1536 1152 1536 1152 896 c 256,3,4
 1152 256 1152 256 800 128 c 1,5,-1
 896 -128 l 1,6,7
 1408 128 1408 128 1408 896 c 256,8,9
 1408 1664 1408 1664 896 1792 c 1,0,-1
EndSplineSet
Validated: 9
EndChar

StartChar: asterisk
Encoding: 42 42 13
Width: 2048
GlyphClass: 2
Flags: W
LayerCount: 2
Fore
SplineSet
192 960 m 1,0,-1
 704 960 l 1,1,-1
 384 1344 l 1,2,-1
 576 1536 l 1,3,-1
 1024 960 l 1,4,-1
 1472 1536 l 1,5,-1
 1664 1344 l 1,6,-1
 1344 960 l 1,7,-1
 1856 960 l 1,8,9
 1856 704 1856 704 1856 704 c 1,10,11
 1739 704 1739 704 1344 704 c 1,12,13
 1344 704 1344 704 1664 320 c 1,14,15
 1664 320 1664 320 1472 128 c 1,16,17
 1472 128 1472 128 1024 704 c 1,18,19
 1024 704 1024 704 576 128 c 1,20,21
 576 128 576 128 384 320 c 1,22,23
 704 704 704 704 704 704 c 1,24,25
 601 704 601 704 192 704 c 1,26,-1
 192 960 l 1,0,-1
EndSplineSet
Validated: 1
EndChar

StartChar: plus
Encoding: 43 43 14
Width: 2048
GlyphClass: 2
Flags: W
LayerCount: 2
Fore
SplineSet
192 960 m 1,0,-1
 894 960 l 1,1,2
 894 1178 894 1178 896 1664 c 1,3,4
 976 1663 976 1663 1152 1664 c 1,5,-1
 1150 962 l 1,6,-1
 1856 960 l 1,7,-1
 1856 704 l 1,8,-1
 1152 704 l 1,9,-1
 1152 0 l 1,10,-1
 896 0 l 1,11,-1
 896 704 l 1,12,-1
 192 704 l 1,13,-1
 192 960 l 1,0,-1
EndSplineSet
Validated: 33
EndChar

StartChar: comma
Encoding: 44 44 15
Width: 2048
GlyphClass: 2
Flags: W
LayerCount: 2
Fore
SplineSet
832 576 m 1,0,-1
 1216 576 l 1,1,-1
 1216 192 l 1,2,-1
 1024 -128 l 1,3,-1
 832 -128 l 1,4,-1
 1024 192 l 1,5,-1
 832 192 l 1,6,-1
 832 576 l 1,0,-1
EndSplineSet
Validated: 1
EndChar

StartChar: hyphen
Encoding: 45 45 16
Width: 2048
GlyphClass: 2
Flags: W
LayerCount: 2
Fore
SplineSet
192 960 m 1,0,-1
 1856 960 l 1,1,2
 1856 669 1856 669 1856 704 c 1,3,4
 1855 704 1855 704 192 704 c 1,5,-1
 192 960 l 1,0,-1
EndSplineSet
Validated: 37
EndChar

StartChar: period
Encoding: 46 46 17
Width: 2048
GlyphClass: 2
Flags: W
LayerCount: 2
Fore
SplineSet
832 576 m 1,0,-1
 1216 576 l 1,1,-1
 1216 192 l 1,2,-1
 832 192 l 1,3,-1
 832 576 l 1,0,-1
EndSplineSet
Validated: 1
EndChar

StartChar: slash
Encoding: 47 47 18
Width: 2048
GlyphClass: 2
Flags: W
LayerCount: 2
Fore
SplineSet
1632 1664 m 1,0,-1
 728 0 l 1,1,-1
 432 0 l 1,2,-1
 1336 1664 l 1,3,-1
 1632 1664 l 1,0,-1
EndSplineSet
Validated: 1
EndChar

StartChar: zero
Encoding: 48 48 19
Width: 2048
GlyphClass: 2
Flags: W
LayerCount: 2
Fore
SplineSet
192 960 m 0,0,1
 192 1664 192 1664 896 1664 c 0,2,3
 1024 1664 1024 1664 1152 1664 c 0,4,5
 1856 1664 1856 1664 1856 960 c 0,6,7
 1856 832 1856 832 1856 704 c 0,8,9
 1856 0 1856 0 1152 0 c 0,10,11
 1013 0 1013 0 896 0 c 0,12,13
 192 0 192 0 192 704 c 0,14,15
 192 864 192 864 192 960 c 0,0,1
448 992 m 0,16,17
 448 832 448 832 447 671 c 0,18,19
 448 256 448 256 858 256 c 0,20,21
 1024 256 1024 256 1184 256 c 0,22,23
 1600 256 1600 256 1600 672 c 0,24,25
 1600 800 1600 800 1602 996 c 0,26,27
 1600 1408 1600 1408 1184 1408 c 0,28,29
 1056 1408 1056 1408 864 1408 c 0,30,31
 448 1408 448 1408 448 992 c 0,16,17
1408 1408 m 1,32,-1
 1600 1216 l 1,33,-1
 640 256 l 1,34,-1
 448 448 l 1,35,-1
 1408 1408 l 1,32,-1
EndSplineSet
Validated: 5
EndChar

StartChar: one
Encoding: 49 49 20
Width: 2048
GlyphClass: 2
Flags: W
LayerCount: 2
Fore
SplineSet
192 0 m 1,0,-1
 192 256 l 1,1,-1
 896 256 l 1,2,-1
 896 1344 l 1,3,-1
 576 1088 l 1,4,-1
 576 1408 l 1,5,-1
 896 1664 l 1,6,-1
 1152 1664 l 1,7,-1
 1152 1408 l 1,8,-1
 1152 256 l 1,9,-1
 1856 256 l 1,10,-1
 1856 0 l 1,11,-1
 192 0 l 1,0,-1
EndSplineSet
Validated: 1
EndChar

StartChar: two
Encoding: 50 50 21
Width: 2048
GlyphClass: 2
Flags: W
LayerCount: 2
Fore
SplineSet
384 1216 m 1,0,-1
 192 1408 l 1,1,2
 434 1664 434 1664 1024 1664 c 0,3,4
 1856 1664 1856 1664 1856 1088 c 0,5,6
 1856 736 1856 736 576 256 c 1,7,-1
 1856 256 l 1,8,-1
 1856 0 l 1,9,-1
 192 0 l 1,10,-1
 192 352 l 1,11,12
 1664 928 1664 928 1600 1168 c 128,-1,13
 1536 1408 1536 1408 1024 1408 c 0,14,15
 496 1408 496 1408 384 1216 c 1,0,-1
EndSplineSet
Validated: 33
EndChar

StartChar: three
Encoding: 51 51 22
Width: 2048
GlyphClass: 2
Flags: W
LayerCount: 2
Fore
SplineSet
192 0 m 1,0,-1
 192 256 l 1,1,-1
 448 704 l 1,2,-1
 448 960 l 1,3,-1
 192 1408 l 1,4,-1
 192 1664 l 1,5,-1
 1376 1664 l 2,6,7
 1856 1664 1856 1664 1856 1216 c 0,8,9
 1856 832 1856 832 1536 832 c 1,10,11
 1856 832 1856 832 1856 416 c 128,-1,12
 1856 0 1856 0 1376 0 c 2,13,-1
 192 0 l 1,0,-1
192 1408 m 1,14,-1
 448 960 l 1,15,-1
 1376 960 l 2,16,17
 1600 960 1600 960 1600 1184 c 128,-1,18
 1600 1408 1600 1408 1408 1408 c 0,19,20
 896 1408 896 1408 192 1408 c 1,14,-1
448 704 m 1,21,-1
 192 256 l 1,22,-1
 1408 256 l 2,23,24
 1600 256 1600 256 1600 480 c 128,-1,25
 1600 704 1600 704 1376 704 c 0,26,27
 896 704 896 704 448 704 c 1,21,-1
EndSplineSet
Validated: 5
EndChar

StartChar: four
Encoding: 52 52 23
Width: 2048
GlyphClass: 2
Flags: W
LayerCount: 2
Fore
SplineSet
1600 0 m 1,0,-1
 1600 512 l 1,1,-1
 1856 512 l 1,2,-1
 1856 768 l 1,3,-1
 1600 768 l 1,4,-1
 1600 1664 l 1,5,-1
 1280 1664 l 1,6,-1
 192 832 l 1,7,-1
 192 512 l 1,8,-1
 1344 512 l 1,9,-1
 1344 0 l 1,10,-1
 1600 0 l 1,0,-1
1344 768 m 1,11,-1
 512 768 l 1,12,-1
 1344 1344 l 1,13,-1
 1344 768 l 1,11,-1
EndSplineSet
Validated: 9
EndChar

StartChar: five
Encoding: 53 53 24
Width: 2048
GlyphClass: 2
Flags: W
LayerCount: 2
Fore
SplineSet
384 448 m 1,0,-1
 192 256 l 1,1,2
 434 0 434 0 1024 0 c 0,3,4
 1856 0 1856 0 1856 576 c 256,5,6
 1856 1152 1856 1152 448 1152 c 1,7,-1
 448 1408 l 1,8,-1
 1856 1408 l 1,9,-1
 1856 1664 l 1,10,-1
 192 1664 l 1,11,-1
 192 960 l 1,12,13
 1664 896 1664 896 1600 576 c 128,-1,14
 1536 256 1536 256 1024 256 c 0,15,16
 496 256 496 256 384 448 c 1,0,-1
EndSplineSet
Validated: 41
EndChar

StartChar: six
Encoding: 54 54 25
Width: 2048
GlyphClass: 2
Flags: W
LayerCount: 2
Fore
SplineSet
1344 1664 m 1,0,1
 192 1664 192 1664 192 832 c 128,-1,2
 192 0 192 0 640 0 c 2,3,-1
 1408 0 l 2,4,5
 1856 0 1856 0 1856 480 c 128,-1,6
 1856 960 1856 960 1408 960 c 0,7,8
 1280 960 1280 960 640 960 c 0,9,10
 416 960 416 960 488 1096 c 128,-1,11
 560 1232 560 1232 768 1320 c 128,-1,12
 976 1408 976 1408 1344 1408 c 1,13,14
 1344 1536 1344 1536 1344 1664 c 1,0,1
640 256 m 0,15,16
 544 256 544 256 480 480 c 128,-1,17
 416 704 416 704 640 704 c 2,18,-1
 1408 704 l 2,19,20
 1600 704 1600 704 1600 480 c 128,-1,21
 1600 256 1600 256 1408 256 c 0,22,23
 896 256 896 256 640 256 c 0,15,16
EndSplineSet
Validated: 41
EndChar

StartChar: seven
Encoding: 55 55 26
Width: 2048
GlyphClass: 2
Flags: W
LayerCount: 2
Fore
SplineSet
1856 1664 m 1,0,-1
 952 0 l 1,1,-1
 656 0 l 1,2,-1
 1424 1408 l 1,3,-1
 192 1408 l 1,4,-1
 192 1664 l 1,5,-1
 1856 1664 l 1,0,-1
EndSplineSet
Validated: 1
EndChar

StartChar: eight
Encoding: 56 56 27
Width: 2048
GlyphClass: 2
Flags: W
LayerCount: 2
Fore
SplineSet
672 0 m 2,0,1
 192 0 192 0 192 416 c 128,-1,2
 192 832 192 832 512 832 c 1,3,4
 192 832 192 832 192 1248 c 128,-1,5
 192 1664 192 1664 672 1664 c 2,6,-1
 1376 1664 l 2,7,8
 1856 1664 1856 1664 1856 1216 c 0,9,10
 1856 832 1856 832 1536 832 c 1,11,12
 1856 832 1856 832 1856 416 c 128,-1,13
 1856 0 1856 0 1376 0 c 2,14,-1
 672 0 l 2,0,1
640 1408 m 0,15,16
 448 1408 448 1408 448 1184 c 128,-1,17
 448 960 448 960 672 960 c 2,18,-1
 1376 960 l 2,19,20
 1600 960 1600 960 1600 1184 c 128,-1,21
 1600 1408 1600 1408 1408 1408 c 0,22,23
 896 1408 896 1408 640 1408 c 0,15,16
672 704 m 256,24,25
 448 704 448 704 448 480 c 128,-1,26
 448 256 448 256 640 256 c 2,27,-1
 1408 256 l 2,28,29
 1600 256 1600 256 1600 480 c 128,-1,30
 1600 704 1600 704 1376 704 c 0,31,32
 896 704 896 704 672 704 c 256,24,25
EndSplineSet
Validated: 1
EndChar

StartChar: nine
Encoding: 57 57 28
Width: 2048
GlyphClass: 2
Flags: W
LayerCount: 2
Fore
SplineSet
704 0 m 1,0,1
 1856 0 1856 0 1856 832 c 128,-1,2
 1856 1664 1856 1664 1408 1664 c 2,3,-1
 640 1664 l 2,4,5
 192 1664 192 1664 192 1184 c 128,-1,6
 192 704 192 704 640 704 c 0,7,8
 768 704 768 704 1408 704 c 0,9,10
 1632 704 1632 704 1560 568 c 128,-1,11
 1488 432 1488 432 1280 344 c 128,-1,12
 1072 256 1072 256 704 256 c 1,13,14
 704 128 704 128 704 0 c 1,0,1
1408 1408 m 0,15,16
 1504 1408 1504 1408 1568 1184 c 128,-1,17
 1632 960 1632 960 1408 960 c 2,18,-1
 640 960 l 2,19,20
 448 960 448 960 448 1184 c 128,-1,21
 448 1408 448 1408 640 1408 c 0,22,23
 1152 1408 1152 1408 1408 1408 c 0,15,16
EndSplineSet
Validated: 41
EndChar

StartChar: colon
Encoding: 58 58 29
Width: 2048
GlyphClass: 2
Flags: W
LayerCount: 2
Fore
SplineSet
832 1472 m 1,0,-1
 1216 1472 l 1,1,-1
 1216 1088 l 1,2,-1
 832 1088 l 1,3,-1
 832 1472 l 1,0,-1
832 576 m 1,4,-1
 1216 576 l 1,5,-1
 1216 192 l 1,6,-1
 832 192 l 1,7,-1
 832 576 l 1,4,-1
EndSplineSet
Validated: 1
EndChar

StartChar: semicolon
Encoding: 59 59 30
Width: 2048
GlyphClass: 2
Flags: W
LayerCount: 2
Fore
SplineSet
832 1472 m 1,0,-1
 1216 1472 l 1,1,-1
 1216 1088 l 1,2,-1
 832 1088 l 1,3,-1
 832 1472 l 1,0,-1
832 576 m 1,4,-1
 1216 576 l 1,5,-1
 1216 192 l 1,6,-1
 1024 -128 l 1,7,-1
 832 -128 l 1,8,-1
 1024 192 l 1,9,-1
 832 192 l 1,10,-1
 832 576 l 1,4,-1
EndSplineSet
Validated: 1
EndChar

StartChar: less
Encoding: 60 60 31
Width: 2048
GlyphClass: 2
Flags: W
LayerCount: 2
Fore
SplineSet
1856 1664 m 1,0,-1
 192 1024 l 1,1,-1
 192 640 l 1,2,-1
 1856 0 l 1,3,-1
 1856 272 l 1,4,-1
 416 832 l 1,5,-1
 1856 1392 l 1,6,-1
 1856 1664 l 1,0,-1
EndSplineSet
Validated: 9
EndChar

StartChar: equal
Encoding: 61 61 32
Width: 2048
GlyphClass: 2
Flags: W
LayerCount: 2
Fore
SplineSet
192 1344 m 1,0,-1
 1856 1344 l 1,1,2
 1856 1053 1856 1053 1856 1088 c 1,3,4
 1855 1088 1855 1088 192 1088 c 1,5,-1
 192 1344 l 1,0,-1
192 576 m 1,6,-1
 1856 576 l 1,7,8
 1856 285 1856 285 1856 320 c 1,9,10
 1855 320 1855 320 192 320 c 1,11,-1
 192 576 l 1,6,-1
EndSplineSet
Validated: 37
EndChar

StartChar: greater
Encoding: 62 62 33
Width: 2048
GlyphClass: 2
Flags: W
LayerCount: 2
Fore
SplineSet
192 1664 m 1,0,-1
 1856 1024 l 1,1,-1
 1856 640 l 1,2,-1
 192 0 l 1,3,-1
 192 272 l 1,4,-1
 1632 832 l 1,5,-1
 192 1392 l 1,6,-1
 192 1664 l 1,0,-1
EndSplineSet
Validated: 1
EndChar

StartChar: question
Encoding: 63 63 34
Width: 2048
GlyphClass: 2
Flags: W
LayerCount: 2
Fore
SplineSet
384 1216 m 1,0,-1
 192 1408 l 1,1,2
 434 1664 434 1664 1024 1664 c 0,3,4
 1856 1664 1856 1664 1856 1152 c 256,5,6
 1856 640 1856 640 1152 640 c 1,7,-1
 1152 512 l 1,8,-1
 896 512 l 1,9,-1
 896 896 l 1,10,11
 1600 896 1600 896 1600 1152 c 128,-1,12
 1600 1408 1600 1408 1024 1408 c 0,13,14
 496 1408 496 1408 384 1216 c 1,0,-1
896 256 m 1,15,-1
 1152 256 l 1,16,-1
 1152 0 l 1,17,-1
 896 0 l 1,18,-1
 896 256 l 1,15,-1
EndSplineSet
Validated: 1
EndChar

StartChar: at
Encoding: 64 64 35
Width: 2048
GlyphClass: 2
Flags: W
LayerCount: 2
Fore
SplineSet
1344 832 m 2,0,1
 1344 1152 1344 1152 1024 1151 c 0,2,3
 704 1152 704 1152 704 832 c 256,4,5
 704 512 704 512 1024 512 c 2,6,-1
 1856 512 l 1,7,8
 1856 1664 1856 1664 1024 1664 c 256,9,10
 192 1664 192 1664 192 896 c 0,11,12
 192 0 192 0 1024 0 c 2,13,-1
 1856 0 l 1,14,-1
 1856 256 l 1,15,-1
 1024 256 l 2,16,17
 448 256 448 256 448 832 c 256,18,19
 448 1408 448 1408 1024 1408 c 256,20,21
 1600 1408 1600 1408 1600 704 c 1,22,-1
 1344 704 l 1,23,-1
 1344 832 l 2,0,1
EndSplineSet
Validated: 41
EndChar

StartChar: A
Encoding: 65 65 36
Width: 2048
GlyphClass: 2
Flags: W
LayerCount: 2
Fore
SplineSet
192 0 m 1,0,-1
 192 960 l 2,1,2
 192 1664 192 1664 896 1664 c 1,3,4
 1047 1668 1047 1668 1152 1664 c 1,5,6
 1856 1664 1856 1664 1856 960 c 0,7,8
 1856 768 1856 768 1856 0 c 1,9,-1
 1600 0 l 1,10,-1
 1600 704 l 1,11,-1
 448 704 l 1,12,-1
 448 0 l 1,13,-1
 192 0 l 1,0,-1
448 960 m 1,14,-1
 1600 960 l 1,15,-1
 1602 991 l 1,16,17
 1600 1408 1600 1408 1184 1409 c 0,18,19
 1124 1409 1124 1409 873 1410 c 0,20,21
 448 1408 448 1408 447 992 c 0,22,23
 449 961 449 961 448 960 c 1,14,-1
EndSplineSet
Validated: 33
EndChar

StartChar: B
Encoding: 66 66 37
Width: 2048
GlyphClass: 2
Flags: W
LayerCount: 2
Fore
SplineSet
192 0 m 1,0,-1
 192 1664 l 1,1,-1
 1376 1664 l 2,2,3
 1856 1664 1856 1664 1856 1216 c 0,4,5
 1856 832 1856 832 1536 832 c 1,6,7
 1856 832 1856 832 1856 416 c 128,-1,8
 1856 0 1856 0 1376 0 c 2,9,-1
 192 0 l 1,0,-1
448 1408 m 1,10,-1
 448 960 l 1,11,-1
 1376 960 l 2,12,13
 1600 960 1600 960 1600 1184 c 128,-1,14
 1600 1408 1600 1408 1408 1408 c 0,15,16
 896 1408 896 1408 448 1408 c 1,10,-1
448 704 m 1,17,-1
 448 256 l 1,18,-1
 1408 256 l 2,19,20
 1600 256 1600 256 1600 480 c 128,-1,21
 1600 704 1600 704 1376 704 c 0,22,23
 896 704 896 704 448 704 c 1,17,-1
EndSplineSet
Validated: 1
EndChar

StartChar: C
Encoding: 67 67 38
Width: 2048
GlyphClass: 2
Flags: W
LayerCount: 2
Fore
SplineSet
1856 1664 m 1,0,-1
 896 1664 l 2,1,2
 192 1663 192 1663 192 960 c 0,3,4
 192 864 192 864 192 704 c 0,5,6
 193 0 193 0 896 0 c 0,7,8
 1344 0 1344 0 1856 0 c 1,9,-1
 1856 256 l 1,10,-1
 864 256 l 2,11,12
 455 257 455 257 448 672 c 0,13,14
 448 800 448 800 448 992 c 0,15,16
 451 1418 451 1418 864 1408 c 1,17,18
 1248 1408 1248 1408 1856 1408 c 1,19,-1
 1856 1664 l 1,0,-1
EndSplineSet
Validated: 41
EndChar

StartChar: D
Encoding: 68 68 39
Width: 2048
GlyphClass: 2
Flags: W
LayerCount: 2
Fore
SplineSet
192 0 m 1,0,-1
 192 1664 l 1,1,-1
 1088 1664 l 2,2,3
 1856 1664 1856 1664 1856 832 c 256,4,5
 1856 0 1856 0 1088 0 c 0,6,7
 704 0 704 0 192 0 c 1,0,-1
448 1408 m 1,8,-1
 448 256 l 1,9,-1
 1184 256 l 2,10,11
 1600 256 1600 256 1600 832 c 128,-1,12
 1600 1408 1600 1408 1184 1408 c 0,13,14
 704 1408 704 1408 448 1408 c 1,8,-1
EndSplineSet
Validated: 1
EndChar

StartChar: E
Encoding: 69 69 40
Width: 2048
GlyphClass: 2
Flags: W
LayerCount: 2
Fore
SplineSet
1856 1664 m 1,0,-1
 896 1664 l 2,1,2
 192 1663 192 1663 192 960 c 0,3,4
 192 864 192 864 192 704 c 0,5,6
 193 0 193 0 896 0 c 0,7,8
 1344 0 1344 0 1856 0 c 1,9,-1
 1856 256 l 1,10,-1
 864 256 l 1,11,12
 455 289 455 289 448 704 c 1,13,14
 1344 704 1344 704 1600 704 c 1,15,16
 1600 832 1600 832 1600 960 c 1,17,18
 1152 960 1152 960 448 960 c 1,19,20
 451 1386 451 1386 864 1408 c 1,21,22
 1248 1408 1248 1408 1856 1408 c 1,23,-1
 1856 1664 l 1,0,-1
EndSplineSet
Validated: 9
EndChar

StartChar: F
Encoding: 70 70 41
Width: 2048
GlyphClass: 2
Flags: W
LayerCount: 2
Fore
SplineSet
192 0 m 1,0,-1
 192 1664 l 1,1,-1
 1856 1664 l 1,2,-1
 1856 1408 l 1,3,-1
 448 1408 l 1,4,-1
 448 960 l 1,5,-1
 1600 960 l 1,6,-1
 1600 704 l 1,7,-1
 448 704 l 1,8,-1
 448 0 l 1,9,-1
 192 0 l 1,0,-1
EndSplineSet
Validated: 1
EndChar

StartChar: G
Encoding: 71 71 42
Width: 2048
GlyphClass: 2
Flags: W
LayerCount: 2
Fore
SplineSet
1856 1665 m 1,0,-1
 896 1665 l 2,1,2
 192 1664 192 1664 192 961 c 0,3,4
 192 865 192 865 192 705 c 0,5,6
 193 1 193 1 896 1 c 0,7,8
 1344 1 1344 1 1856 1 c 1,9,-1
 1856 961 l 1,10,-1
 1088 961 l 1,11,-1
 1088 705 l 1,12,-1
 1600 705 l 1,13,-1
 1600 257 l 1,14,-1
 864 257 l 2,15,16
 455 258 455 258 448 673 c 0,17,18
 448 801 448 801 448 993 c 0,19,20
 451 1419 451 1419 864 1409 c 1,21,22
 1248 1409 1248 1409 1856 1409 c 1,23,-1
 1856 1665 l 1,0,-1
EndSplineSet
Validated: 41
EndChar

StartChar: H
Encoding: 72 72 43
Width: 2048
GlyphClass: 2
Flags: W
LayerCount: 2
Fore
SplineSet
192 0 m 1,0,-1
 192 1664 l 1,1,-1
 448 1664 l 1,2,-1
 448 960 l 1,3,-1
 1600 960 l 1,4,-1
 1600 1664 l 1,5,-1
 1856 1664 l 1,6,-1
 1856 0 l 1,7,-1
 1600 0 l 1,8,-1
 1600 704 l 1,9,-1
 448 704 l 1,10,-1
 448 0 l 1,11,-1
 192 0 l 1,0,-1
EndSplineSet
Validated: 1
EndChar

StartChar: I
Encoding: 73 73 44
Width: 2048
GlyphClass: 2
Flags: W
LayerCount: 2
Fore
SplineSet
192 0 m 1,0,-1
 192 256 l 1,1,-1
 896 256 l 1,2,-1
 896 1408 l 1,3,-1
 192 1408 l 1,4,-1
 192 1664 l 1,5,-1
 1856 1664 l 1,6,-1
 1856 1408 l 1,7,-1
 1152 1408 l 1,8,-1
 1152 256 l 1,9,-1
 1856 256 l 1,10,-1
 1856 0 l 1,11,-1
 192 0 l 1,0,-1
EndSplineSet
Validated: 1
EndChar

StartChar: J
Encoding: 74 74 45
Width: 2048
GlyphClass: 2
Flags: W
LayerCount: 2
Fore
SplineSet
192 0 m 1,0,-1
 1152 0 l 2,1,2
 1856 0 1856 0 1856 704 c 0,3,4
 1856 1024 1856 1024 1856 1664 c 1,5,-1
 1600 1664 l 1,6,7
 1600 1152 1600 1152 1600 672 c 0,8,9
 1600 256 1600 256 1184 256 c 2,10,-1
 192 256 l 1,11,-1
 192 0 l 1,0,-1
EndSplineSet
Validated: 9
EndChar

StartChar: K
Encoding: 75 75 46
Width: 2048
GlyphClass: 2
Flags: W
LayerCount: 2
Fore
SplineSet
192 0 m 1,0,-1
 192 1664 l 1,1,-1
 448 1664 l 1,2,-1
 448 960 l 1,3,-1
 1424 1664 l 1,4,-1
 1856 1664 l 1,5,-1
 720 832 l 1,6,-1
 1856 0 l 1,7,-1
 1424 0 l 1,8,-1
 448 704 l 1,9,-1
 448 0 l 1,10,-1
 192 0 l 1,0,-1
EndSplineSet
Validated: 1
EndChar

StartChar: L
Encoding: 76 76 47
Width: 2048
GlyphClass: 2
Flags: W
LayerCount: 2
Fore
SplineSet
192 0 m 1,0,-1
 192 1664 l 1,1,-1
 448 1664 l 1,2,-1
 448 256 l 1,3,-1
 1856 256 l 1,4,-1
 1856 0 l 1,5,-1
 192 0 l 1,0,-1
EndSplineSet
Validated: 1
EndChar

StartChar: M
Encoding: 77 77 48
Width: 2048
GlyphClass: 2
Flags: W
LayerCount: 2
Fore
SplineSet
192 0 m 1,0,-1
 192 1664 l 1,1,-1
 544 1664 l 1,2,-1
 1024 896 l 1,3,-1
 1504 1664 l 1,4,-1
 1856 1664 l 1,5,-1
 1856 0 l 1,6,-1
 1600 0 l 1,7,8
 1600 576 1600 576 1600 1344 c 1,9,10
 1408 1024 1408 1024 1216 704 c 1,11,-1
 832 704 l 1,12,-1
 449 1340 l 1,13,-1
 448 0 l 1,14,-1
 192 0 l 1,0,-1
EndSplineSet
Validated: 1
EndChar

StartChar: N
Encoding: 78 78 49
Width: 2048
GlyphClass: 2
Flags: W
LayerCount: 2
Fore
SplineSet
192 0 m 1,0,-1
 192 1664 l 1,1,-1
 512 1664 l 1,2,-1
 1600 320 l 1,3,-1
 1600 1664 l 1,4,-1
 1856 1664 l 1,5,-1
 1856 0 l 1,6,-1
 1536 0 l 1,7,-1
 447 1343 l 1,8,-1
 448 0 l 1,9,-1
 192 0 l 1,0,-1
EndSplineSet
Validated: 1
EndChar

StartChar: O
Encoding: 79 79 50
Width: 2048
GlyphClass: 2
Flags: W
LayerCount: 2
Fore
SplineSet
192 960 m 0,0,1
 192 1664 192 1664 896 1664 c 0,2,3
 1024 1664 1024 1664 1152 1664 c 0,4,5
 1856 1664 1856 1664 1856 960 c 0,6,7
 1856 832 1856 832 1856 704 c 0,8,9
 1856 0 1856 0 1152 0 c 0,10,11
 1013 0 1013 0 896 0 c 0,12,13
 192 0 192 0 192 704 c 0,14,15
 192 864 192 864 192 960 c 0,0,1
448 992 m 0,16,17
 448 832 448 832 447 671 c 0,18,19
 448 256 448 256 858 256 c 0,20,21
 1024 256 1024 256 1184 256 c 0,22,23
 1600 256 1600 256 1600 672 c 0,24,25
 1600 800 1600 800 1602 996 c 0,26,27
 1600 1408 1600 1408 1184 1408 c 0,28,29
 1056 1408 1056 1408 864 1408 c 0,30,31
 448 1408 448 1408 448 992 c 0,16,17
EndSplineSet
Validated: 1
EndChar

StartChar: P
Encoding: 80 80 51
Width: 2048
GlyphClass: 2
Flags: W
LayerCount: 2
Fore
SplineSet
192 0 m 1,0,-1
 192 1664 l 1,1,-1
 1408 1664 l 2,2,3
 1856 1664 1856 1664 1856 1184 c 128,-1,4
 1856 704 1856 704 1408 704 c 0,5,6
 1280 704 1280 704 448 704 c 1,7,8
 448 576 448 576 448 416 c 128,-1,9
 448 256 448 256 448 0 c 1,10,11
 320 0 320 0 192 0 c 1,0,-1
448 1408 m 1,12,-1
 448 960 l 1,13,-1
 1408 960 l 2,14,15
 1600 960 1600 960 1600 1184 c 128,-1,16
 1600 1408 1600 1408 1408 1408 c 0,17,18
 896 1408 896 1408 448 1408 c 1,12,-1
EndSplineSet
Validated: 1
EndChar

StartChar: Q
Encoding: 81 81 52
Width: 2048
GlyphClass: 2
Flags: W
LayerCount: 2
Fore
SplineSet
192 960 m 0,0,1
 192 1664 192 1664 896 1664 c 0,2,3
 1024 1664 1024 1664 1152 1664 c 0,4,5
 1856 1664 1856 1664 1856 960 c 0,6,7
 1856 832 1856 832 1856 704 c 1,8,-1
 1808 368 l 1,9,-1
 1760 272 l 1,10,-1
 1856 176 l 1,11,12
 1776 96 1776 96 1680 0 c 1,13,-1
 1584 96 l 1,14,-1
 1520 64 l 1,15,-1
 1152 0 l 1,16,17
 1013 0 1013 0 896 0 c 0,18,19
 192 0 192 0 192 704 c 0,20,21
 192 864 192 864 192 960 c 0,0,1
448 992 m 0,22,23
 448 832 448 832 447 671 c 0,24,25
 448 256 448 256 858 256 c 0,26,27
 1024 256 1024 256 1184 256 c 1,28,-1
 1344 288 l 1,29,-1
 1376 304 l 1,30,-1
 1216 464 l 1,31,32
 1328 576 1328 576 1392 640 c 1,33,-1
 1552 480 l 1,34,-1
 1584 544 l 1,35,-1
 1600 672 l 1,36,37
 1600 800 1600 800 1602 996 c 0,38,39
 1600 1408 1600 1408 1184 1408 c 0,40,41
 1056 1408 1056 1408 864 1408 c 0,42,43
 448 1408 448 1408 448 992 c 0,22,23
EndSplineSet
Validated: 1
EndChar

StartChar: R
Encoding: 82 82 53
Width: 2048
GlyphClass: 2
Flags: W
LayerCount: 2
Fore
SplineSet
192 0 m 1,0,-1
 192 1664 l 1,1,-1
 1408 1664 l 2,2,3
 1856 1664 1856 1664 1856 1216 c 0,4,5
 1856 704 1856 704 1408 704 c 0,6,7
 1280 704 1280 704 1088 704 c 1,8,-1
 1856 0 l 1,9,-1
 1472 0 l 1,10,-1
 704 704 l 1,11,-1
 448 704 l 1,12,13
 448 576 448 576 448 416 c 128,-1,14
 448 256 448 256 448 0 c 1,15,16
 320 0 320 0 192 0 c 1,0,-1
448 1408 m 1,17,-1
 448 960 l 1,18,-1
 1408 960 l 2,19,20
 1600 960 1600 960 1600 1184 c 128,-1,21
 1600 1408 1600 1408 1408 1408 c 0,22,23
 896 1408 896 1408 448 1408 c 1,17,-1
EndSplineSet
Validated: 1
EndChar

StartChar: S
Encoding: 83 83 54
Width: 2048
GlyphClass: 2
Flags: W
LayerCount: 2
Fore
SplineSet
1856 1408 m 1,0,-1
 640 1408 l 2,1,2
 448 1408 448 1408 448 1184 c 128,-1,3
 448 960 448 960 640 960 c 2,4,-1
 1408 960 l 2,5,6
 1856 960 1856 960 1856 480 c 128,-1,7
 1856 0 1856 0 1408 0 c 2,8,-1
 192 0 l 1,9,-1
 192 256 l 1,10,-1
 1408 256 l 2,11,12
 1600 256 1600 256 1600 480 c 128,-1,13
 1600 704 1600 704 1408 704 c 2,14,-1
 640 704 l 2,15,16
 192 704 192 704 192 1184 c 128,-1,17
 192 1664 192 1664 640 1664 c 2,18,-1
 1856 1664 l 1,19,-1
 1856 1408 l 1,0,-1
EndSplineSet
Validated: 1
EndChar

StartChar: T
Encoding: 84 84 55
Width: 2048
GlyphClass: 2
Flags: W
LayerCount: 2
Fore
SplineSet
192 1664 m 1,0,-1
 1856 1664 l 1,1,-1
 1856 1408 l 1,2,-1
 1152 1408 l 1,3,-1
 1152 0 l 1,4,-1
 896 0 l 1,5,-1
 896 1408 l 1,6,-1
 192 1408 l 1,7,-1
 192 1664 l 1,0,-1
EndSplineSet
Validated: 1
EndChar

StartChar: U
Encoding: 85 85 56
Width: 2048
GlyphClass: 2
Flags: W
LayerCount: 2
Fore
SplineSet
192 1664 m 1,0,-1
 192 672 l 2,1,2
 192 0 192 0 1024 0 c 256,3,4
 1856 0 1856 0 1856 672 c 2,5,-1
 1856 1664 l 1,6,-1
 1600 1664 l 1,7,-1
 1600 640 l 2,8,9
 1600 256 1600 256 1024 256 c 256,10,11
 448 256 448 256 448 640 c 2,12,-1
 448 1664 l 1,13,-1
 192 1664 l 1,0,-1
EndSplineSet
Validated: 9
EndChar

StartChar: V
Encoding: 86 86 57
Width: 2048
GlyphClass: 2
Flags: W
LayerCount: 2
Fore
SplineSet
192 1664 m 1,0,1
 192 1664 192 1664 832 0 c 1,2,-1
 1216 0 l 1,3,-1
 1856 1664 l 1,4,-1
 1584 1664 l 1,5,-1
 1024 224 l 1,6,7
 1024 224 1024 224 464 1664 c 1,8,9
 352 1664 352 1664 192 1664 c 1,0,1
EndSplineSet
Validated: 9
EndChar

StartChar: W
Encoding: 87 87 58
Width: 2048
GlyphClass: 2
Flags: W
LayerCount: 2
Fore
SplineSet
192 1664 m 1,0,-1
 192 0 l 1,1,-1
 544 0 l 1,2,3
 1024 768 1024 768 1024 768 c 1,4,-1
 1504 0 l 1,5,-1
 1856 0 l 1,6,-1
 1856 1664 l 1,7,-1
 1600 1664 l 1,8,-1
 1600 320 l 1,9,-1
 1216 960 l 1,10,-1
 832 960 l 1,11,-1
 448 320 l 1,12,-1
 448 1664 l 1,13,-1
 192 1664 l 1,0,-1
EndSplineSet
Validated: 9
EndChar

StartChar: X
Encoding: 88 88 59
Width: 2048
GlyphClass: 2
Flags: W
LayerCount: 2
Fore
SplineSet
192 1664 m 1,0,-1
 832 832 l 1,1,-1
 192 0 l 1,2,-1
 512 0 l 1,3,-1
 1024 640 l 1,4,-1
 1536 0 l 1,5,-1
 1856 0 l 1,6,-1
 1216 832 l 1,7,-1
 1856 1664 l 1,8,-1
 1536 1664 l 1,9,-1
 1024 1024 l 1,10,-1
 512 1664 l 1,11,-1
 192 1664 l 1,0,-1
EndSplineSet
Validated: 9
EndChar

StartChar: Y
Encoding: 89 89 60
Width: 2048
GlyphClass: 2
Flags: W
LayerCount: 2
Fore
SplineSet
192 1664 m 1,0,-1
 896 896 l 1,1,-1
 896 0 l 1,2,-1
 1152 0 l 1,3,-1
 1152 896 l 1,4,-1
 1856 1664 l 1,5,-1
 1504 1664 l 1,6,-1
 1024 1136 l 1,7,-1
 544 1664 l 1,8,-1
 192 1664 l 1,0,-1
EndSplineSet
Validated: 9
EndChar

StartChar: Z
Encoding: 90 90 61
Width: 2048
GlyphClass: 2
Flags: W
LayerCount: 2
Fore
SplineSet
192 1408 m 1,0,-1
 192 1664 l 1,1,-1
 1856 1664 l 1,2,-1
 1856 1344 l 1,3,-1
 512 256 l 1,4,-1
 1856 256 l 1,5,-1
 1856 0 l 1,6,-1
 192 0 l 1,7,-1
 192 320 l 1,8,-1
 1536 1408 l 1,9,-1
 192 1408 l 1,0,-1
EndSplineSet
Validated: 1
EndChar

StartChar: bracketleft
Encoding: 91 91 62
Width: 2048
GlyphClass: 2
Flags: W
LayerCount: 2
Fore
SplineSet
1344 1792 m 1,0,-1
 704 1792 l 1,1,-1
 704 -128 l 1,2,-1
 1344 -128 l 1,3,-1
 1344 128 l 1,4,-1
 960 128 l 1,5,-1
 960 1536 l 1,6,-1
 1344 1536 l 1,7,-1
 1344 1792 l 1,0,-1
EndSplineSet
Validated: 9
EndChar

StartChar: backslash
Encoding: 92 92 63
Width: 2048
GlyphClass: 2
Flags: W
LayerCount: 2
Fore
SplineSet
432 1664 m 1,0,-1
 1336 0 l 1,1,-1
 1632 0 l 1,2,-1
 728 1664 l 1,3,-1
 432 1664 l 1,0,-1
EndSplineSet
Validated: 9
EndChar

StartChar: bracketright
Encoding: 93 93 64
Width: 2048
GlyphClass: 2
Flags: W
LayerCount: 2
Fore
SplineSet
704 1792 m 1,0,-1
 1344 1792 l 1,1,-1
 1344 -128 l 1,2,-1
 704 -128 l 1,3,-1
 704 128 l 1,4,-1
 1088 128 l 1,5,-1
 1088 1536 l 1,6,-1
 704 1536 l 1,7,-1
 704 1792 l 1,0,-1
EndSplineSet
Validated: 1
EndChar

StartChar: asciicircum
Encoding: 94 94 65
Width: 2048
GlyphClass: 2
Flags: W
LayerCount: 2
Fore
SplineSet
512 832 m 1,0,1
 512 832 512 832 832 1664 c 1,2,-1
 1216 1664 l 1,3,-1
 1536 832 l 1,4,-1
 1264 832 l 1,5,-1
 1024 1440 l 1,6,7
 1024 1440 1024 1440 784 832 c 1,8,9
 672 832 672 832 512 832 c 1,0,1
EndSplineSet
Validated: 1
EndChar

StartChar: underscore
Encoding: 95 95 66
Width: 2048
GlyphClass: 2
Flags: W
LayerCount: 2
Fore
SplineSet
192 256 m 1,0,-1
 1856 256 l 1,1,2
 1856 -35 1856 -35 1856 0 c 1,3,4
 1855 0 1855 0 192 0 c 1,5,-1
 192 256 l 1,0,-1
EndSplineSet
Validated: 37
EndChar

StartChar: grave
Encoding: 96 96 67
Width: 2048
GlyphClass: 2
Flags: W
LayerCount: 2
Fore
SplineSet
1216 1664 m 1,0,-1
 832 1664 l 1,1,-1
 832 1280 l 1,2,-1
 1024 1280 l 1,3,-1
 1216 960 l 1,4,-1
 1408 960 l 1,5,-1
 1216 1280 l 1,6,-1
 1216 1664 l 1,0,-1
EndSplineSet
Validated: 9
EndChar

StartChar: a
Encoding: 97 97 68
Width: 2048
GlyphClass: 2
Flags: W
LayerCount: 2
Fore
SplineSet
288 96 m 1,0,-1
 288 960 l 2,1,2
 288 1568 288 1568 896 1568 c 2,3,4
 896 1568 896 1568 1152 1568 c 0,5,6
 1760 1568 1760 1568 1760 960 c 2,7,8
 1760 960 1760 960 1760 96 c 1,9,-1
 1600 96 l 1,10,-1
 1600 752 l 1,11,-1
 448 752 l 1,12,-1
 448 96 l 1,13,-1
 288 96 l 1,0,-1
448 912 m 1,14,-1
 1600 912 l 1,15,-1
 1602 991 l 1,16,17
 1600 1408 1600 1408 1184 1409 c 0,18,19
 1024 1408 1024 1408 873 1410 c 0,20,21
 448 1408 448 1408 447 992 c 1,22,23
 448 992 448 992 448 912 c 1,14,-1
EndSplineSet
Validated: 33
EndChar

StartChar: b
Encoding: 98 98 69
Width: 2048
GlyphClass: 2
Flags: W
LayerCount: 2
Fore
SplineSet
288 96 m 1,0,-1
 288 1568 l 1,1,-1
 1376 1568 l 2,2,3
 1760 1568 1760 1568 1760 1184 c 0,4,5
 1760 832 1760 832 1472 832 c 1,6,7
 1760 832 1760 832 1760 464 c 128,-1,8
 1760 96 1760 96 1376 96 c 2,9,-1
 288 96 l 1,0,-1
448 1408 m 1,10,-1
 448 912 l 1,11,-1
 1376 912 l 2,12,13
 1600 912 1600 912 1600 1160 c 128,-1,14
 1600 1408 1600 1408 1408 1408 c 0,15,16
 896 1408 896 1408 448 1408 c 1,10,-1
448 752 m 1,17,-1
 448 256 l 1,18,-1
 1408 256 l 2,19,20
 1600 256 1600 256 1600 504 c 128,-1,21
 1600 752 1600 752 1376 752 c 0,22,23
 896 752 896 752 448 752 c 1,17,-1
EndSplineSet
Validated: 1
EndChar

StartChar: c
Encoding: 99 99 70
Width: 2048
GlyphClass: 2
Flags: W
LayerCount: 2
Fore
SplineSet
1760 1568 m 1,0,-1
 896 1568 l 2,1,2
 288 1568 288 1568 288 960 c 0,3,4
 288 864 288 864 288 704 c 0,5,6
 288 96 288 96 896 96 c 0,7,8
 1344 96 1344 96 1760 96 c 1,9,-1
 1760 256 l 1,10,-1
 864 256 l 2,11,12
 455 257 455 257 448 672 c 0,13,14
 448 800 448 800 448 992 c 0,15,16
 451 1418 451 1418 864 1408 c 1,17,18
 1248 1408 1248 1408 1760 1408 c 1,19,-1
 1760 1568 l 1,0,-1
EndSplineSet
Validated: 41
EndChar

StartChar: d
Encoding: 100 100 71
Width: 2048
GlyphClass: 2
Flags: W
LayerCount: 2
Fore
SplineSet
288 96 m 1,0,-1
 288 1568 l 1,1,-1
 1088 1568 l 2,2,3
 1760 1568 1760 1568 1760 832 c 256,4,5
 1760 96 1760 96 1088 96 c 0,6,7
 704 96 704 96 288 96 c 1,0,-1
448 1408 m 1,8,-1
 448 256 l 1,9,-1
 1184 256 l 2,10,11
 1600 256 1600 256 1600 832 c 128,-1,12
 1600 1408 1600 1408 1184 1408 c 0,13,14
 704 1408 704 1408 448 1408 c 1,8,-1
EndSplineSet
Validated: 1
EndChar

StartChar: e
Encoding: 101 101 72
Width: 2048
GlyphClass: 2
Flags: W
LayerCount: 2
Fore
SplineSet
1760 1568 m 1,0,-1
 896 1568 l 2,1,2
 288 1568 288 1568 288 960 c 0,3,4
 288 864 288 864 288 704 c 0,5,6
 288 96 288 96 896 96 c 0,7,8
 1344 96 1344 96 1760 96 c 1,9,-1
 1760 256 l 1,10,-1
 864 256 l 1,11,12
 455 289 455 289 448 752 c 1,13,14
 1344 752 1344 752 1504 752 c 1,15,16
 1504 816 1504 816 1504 912 c 1,17,18
 1152 912 1152 912 448 912 c 1,19,20
 451 1386 451 1386 864 1408 c 1,21,22
 1248 1408 1248 1408 1760 1408 c 1,23,-1
 1760 1568 l 1,0,-1
EndSplineSet
Validated: 9
EndChar

StartChar: f
Encoding: 102 102 73
Width: 2048
GlyphClass: 2
Flags: W
LayerCount: 2
Fore
SplineSet
288 96 m 1,0,-1
 288 1568 l 1,1,-1
 1760 1568 l 1,2,-1
 1760 1408 l 1,3,-1
 448 1408 l 1,4,-1
 448 912 l 1,5,-1
 1504 912 l 1,6,-1
 1504 752 l 1,7,-1
 448 752 l 1,8,-1
 448 96 l 1,9,-1
 288 96 l 1,0,-1
EndSplineSet
Validated: 1
EndChar

StartChar: g
Encoding: 103 103 74
Width: 2048
GlyphClass: 2
Flags: W
LayerCount: 2
Fore
SplineSet
1760 1568 m 1,0,-1
 896 1568 l 2,1,2
 288 1568 288 1568 288 960 c 0,3,4
 288 864 288 864 288 704 c 0,5,6
 288 96 288 96 896 96 c 0,7,8
 1344 96 1344 96 1760 96 c 1,9,-1
 1760 912 l 1,10,-1
 1088 912 l 1,11,-1
 1088 752 l 1,12,-1
 1600 752 l 1,13,-1
 1600 257 l 1,14,-1
 864 257 l 2,15,16
 455 258 455 258 448 673 c 0,17,18
 448 801 448 801 448 993 c 0,19,20
 451 1419 451 1419 864 1409 c 1,21,22
 1248 1409 1248 1409 1760 1408 c 1,23,-1
 1760 1568 l 1,0,-1
EndSplineSet
Validated: 41
EndChar

StartChar: h
Encoding: 104 104 75
Width: 2048
GlyphClass: 2
Flags: W
LayerCount: 2
Fore
SplineSet
288 96 m 1,0,-1
 288 1568 l 1,1,-1
 448 1568 l 1,2,-1
 448 912 l 1,3,-1
 1600 912 l 1,4,-1
 1600 1568 l 1,5,-1
 1760 1568 l 1,6,-1
 1760 96 l 1,7,-1
 1600 96 l 1,8,-1
 1600 752 l 1,9,-1
 448 752 l 1,10,-1
 448 96 l 1,11,-1
 288 96 l 1,0,-1
EndSplineSet
Validated: 1
EndChar

StartChar: i
Encoding: 105 105 76
Width: 2048
GlyphClass: 2
Flags: W
LayerCount: 2
Fore
SplineSet
288 96 m 1,0,-1
 288 256 l 1,1,-1
 944 256 l 1,2,-1
 944 1408 l 1,3,-1
 288 1408 l 1,4,-1
 288 1568 l 1,5,-1
 1760 1568 l 1,6,-1
 1760 1408 l 1,7,-1
 1104 1408 l 1,8,-1
 1104 256 l 1,9,-1
 1760 256 l 1,10,-1
 1760 96 l 1,11,-1
 288 96 l 1,0,-1
EndSplineSet
Validated: 1
EndChar

StartChar: j
Encoding: 106 106 77
Width: 2048
GlyphClass: 2
Flags: W
LayerCount: 2
Fore
SplineSet
288 96 m 1,0,-1
 1152 96 l 2,1,2
 1760 96 1760 96 1760 704 c 0,3,4
 1760 1024 1760 1024 1760 1568 c 1,5,-1
 1600 1568 l 1,6,7
 1600 1152 1600 1152 1600 672 c 0,8,9
 1600 256 1600 256 1184 256 c 2,10,-1
 288 256 l 1,11,-1
 288 96 l 1,0,-1
EndSplineSet
Validated: 9
EndChar

StartChar: k
Encoding: 107 107 78
Width: 2048
GlyphClass: 2
Flags: W
LayerCount: 2
Fore
SplineSet
288 96 m 1,0,-1
 288 1568 l 1,1,-1
 448 1568 l 1,2,-1
 448 912 l 1,3,-1
 1456 1568 l 1,4,-1
 1760 1568 l 1,5,-1
 624 832 l 1,6,-1
 1760 96 l 1,7,-1
 1456 96 l 1,8,-1
 448 752 l 1,9,-1
 448 96 l 1,10,-1
 288 96 l 1,0,-1
EndSplineSet
Validated: 1
EndChar

StartChar: l
Encoding: 108 108 79
Width: 2048
GlyphClass: 2
Flags: W
LayerCount: 2
Fore
SplineSet
288 96 m 1,0,-1
 288 1568 l 1,1,-1
 448 1568 l 1,2,-1
 448 256 l 1,3,-1
 1760 256 l 1,4,-1
 1760 96 l 1,5,-1
 288 96 l 1,0,-1
EndSplineSet
Validated: 1
EndChar

StartChar: m
Encoding: 109 109 80
Width: 2048
GlyphClass: 2
Flags: W
LayerCount: 2
Fore
SplineSet
288 96 m 1,0,-1
 288 1568 l 1,1,-1
 496 1568 l 1,2,-1
 1024 864 l 1,3,-1
 1552 1568 l 1,4,-1
 1760 1568 l 1,5,-1
 1760 96 l 1,6,-1
 1600 96 l 1,7,8
 1600 576 1600 576 1600 1360 c 1,9,10
 1600 1360 1600 1360 1136 752 c 1,11,-1
 912 752 l 1,12,-1
 448 1360 l 1,13,-1
 448 96 l 1,14,-1
 288 96 l 1,0,-1
EndSplineSet
Validated: 1
EndChar

StartChar: n
Encoding: 110 110 81
Width: 2048
GlyphClass: 2
Flags: W
LayerCount: 2
Fore
SplineSet
288 96 m 1,0,-1
 288 1568 l 1,1,-1
 496 1568 l 1,2,-1
 1600 288 l 1,3,-1
 1600 1568 l 1,4,-1
 1760 1568 l 1,5,-1
 1760 96 l 1,6,-1
 1552 96 l 1,7,-1
 448 1376 l 1,8,-1
 448 96 l 1,9,-1
 288 96 l 1,0,-1
EndSplineSet
Validated: 1
EndChar

StartChar: o
Encoding: 111 111 82
Width: 2048
GlyphClass: 2
Flags: W
LayerCount: 2
Fore
SplineSet
288 960 m 0,0,1
 288 1568 288 1568 896 1568 c 0,2,3
 1024 1568 1024 1568 1152 1568 c 0,4,5
 1760 1568 1760 1568 1760 960 c 0,6,7
 1760 832 1760 832 1760 704 c 0,8,9
 1760 96 1760 96 1152 96 c 0,10,11
 1013 96 1013 96 896 96 c 0,12,13
 288 96 288 96 288 704 c 0,14,15
 288 864 288 864 288 960 c 0,0,1
448 992 m 0,16,17
 448 832 448 832 447 671 c 0,18,19
 448 256 448 256 858 256 c 0,20,21
 1024 256 1024 256 1184 256 c 0,22,23
 1600 256 1600 256 1600 672 c 0,24,25
 1600 800 1600 800 1602 996 c 0,26,27
 1600 1408 1600 1408 1184 1408 c 0,28,29
 1056 1408 1056 1408 864 1408 c 0,30,31
 448 1408 448 1408 448 992 c 0,16,17
EndSplineSet
Validated: 1
EndChar

StartChar: p
Encoding: 112 112 83
Width: 2048
GlyphClass: 2
Flags: W
LayerCount: 2
Fore
SplineSet
288 96 m 1,0,-1
 288 1568 l 1,1,-1
 1408 1568 l 2,2,3
 1760 1568 1760 1568 1760 1160 c 128,-1,4
 1760 752 1760 752 1408 752 c 0,5,6
 1280 752 1280 752 448 752 c 1,7,8
 448 576 448 576 448 416 c 128,-1,9
 448 256 448 256 448 96 c 1,10,11
 384 96 384 96 288 96 c 1,0,-1
448 1408 m 1,12,-1
 448 912 l 1,13,-1
 1408 912 l 2,14,15
 1600 912 1600 912 1600 1160 c 128,-1,16
 1600 1408 1600 1408 1408 1408 c 0,17,18
 896 1408 896 1408 448 1408 c 1,12,-1
EndSplineSet
Validated: 1
EndChar

StartChar: q
Encoding: 113 113 84
Width: 2048
GlyphClass: 2
Flags: W
LayerCount: 2
Fore
SplineSet
288 960 m 0,0,1
 288 1568 288 1568 896 1568 c 0,2,3
 1024 1568 1024 1568 1152 1568 c 0,4,5
 1760 1568 1760 1568 1760 960 c 0,6,7
 1760 832 1760 832 1760 592 c 1,8,-1
 1696 384 l 1,9,-1
 1648 320 l 1,10,-1
 1760 208 l 1,11,12
 1696 144 1696 144 1648 96 c 1,13,-1
 1536 208 l 1,14,-1
 1472 160 l 1,15,-1
 1248 96 l 1,16,17
 1013 96 1013 96 896 96 c 0,18,19
 288 96 288 96 288 704 c 0,20,21
 288 864 288 864 288 960 c 0,0,1
448 992 m 0,22,23
 448 832 448 832 447 671 c 0,24,25
 448 256 448 256 858 256 c 0,26,27
 1024 256 1024 256 1184 256 c 1,28,-1
 1344 288 l 1,29,-1
 1408 336 l 1,30,-1
 1248 496 l 1,31,32
 1328 576 1328 576 1360 608 c 1,33,-1
 1520 448 l 1,34,-1
 1584 544 l 1,35,-1
 1600 672 l 1,36,37
 1600 800 1600 800 1602 996 c 0,38,39
 1600 1408 1600 1408 1184 1408 c 0,40,41
 1056 1408 1056 1408 864 1408 c 0,42,43
 448 1408 448 1408 448 992 c 0,22,23
EndSplineSet
Validated: 1
EndChar

StartChar: r
Encoding: 114 114 85
Width: 2048
GlyphClass: 2
Flags: W
LayerCount: 2
Fore
SplineSet
288 96 m 1,0,-1
 288 1568 l 1,1,-1
 1408 1568 l 2,2,3
 1760 1568 1760 1568 1760 1168 c 0,4,5
 1760 752 1760 752 1408 752 c 0,6,7
 1280 752 1280 752 976 752 c 1,8,-1
 1760 96 l 1,9,-1
 1504 96 l 1,10,-1
 720 752 l 1,11,-1
 448 752 l 1,12,13
 448 576 448 576 448 416 c 128,-1,14
 448 256 448 256 448 96 c 1,15,16
 384 96 384 96 288 96 c 1,0,-1
448 1408 m 1,17,-1
 448 912 l 1,18,-1
 1408 912 l 2,19,20
 1600 912 1600 912 1600 1160 c 128,-1,21
 1600 1408 1600 1408 1408 1408 c 0,22,23
 896 1408 896 1408 448 1408 c 1,17,-1
EndSplineSet
Validated: 1
EndChar

StartChar: s
Encoding: 115 115 86
Width: 2048
GlyphClass: 2
Flags: W
LayerCount: 2
Fore
SplineSet
1760 1408 m 1,0,-1
 640 1408 l 2,1,2
 448 1408 448 1408 448 1160 c 128,-1,3
 448 912 448 912 640 912 c 2,4,-1
 1408 912 l 2,5,6
 1760 912 1760 912 1760 504 c 128,-1,7
 1760 96 1760 96 1408 96 c 2,8,-1
 288 96 l 1,9,-1
 288 256 l 1,10,-1
 1408 256 l 2,11,12
 1600 256 1600 256 1600 504 c 128,-1,13
 1600 752 1600 752 1408 752 c 2,14,-1
 640 752 l 2,15,16
 288 752 288 752 288 1160 c 128,-1,17
 288 1568 288 1568 640 1568 c 2,18,-1
 1760 1568 l 1,19,-1
 1760 1408 l 1,0,-1
EndSplineSet
Validated: 1
EndChar

StartChar: t
Encoding: 116 116 87
Width: 2048
GlyphClass: 2
Flags: W
LayerCount: 2
Fore
SplineSet
288 1568 m 1,0,-1
 1760 1568 l 1,1,-1
 1760 1408 l 1,2,-1
 1104 1408 l 1,3,-1
 1104 96 l 1,4,-1
 944 96 l 1,5,-1
 944 1408 l 1,6,-1
 288 1408 l 1,7,-1
 288 1568 l 1,0,-1
EndSplineSet
Validated: 1
EndChar

StartChar: u
Encoding: 117 117 88
Width: 2048
GlyphClass: 2
Flags: W
LayerCount: 2
Fore
SplineSet
288 1568 m 1,0,-1
 288 672 l 2,1,2
 288 96 288 96 1024 96 c 256,3,4
 1760 96 1760 96 1760 672 c 2,5,-1
 1760 1568 l 1,6,-1
 1600 1568 l 1,7,-1
 1600 640 l 2,8,9
 1600 256 1600 256 1024 256 c 256,10,11
 448 256 448 256 448 640 c 2,12,-1
 448 1568 l 1,13,-1
 288 1568 l 1,0,-1
EndSplineSet
Validated: 9
EndChar

StartChar: v
Encoding: 118 118 89
Width: 2048
GlyphClass: 2
Flags: W
LayerCount: 2
Fore
SplineSet
288 1568 m 1,0,1
 288 1568 288 1568 928 96 c 1,2,-1
 1120 96 l 1,3,-1
 1760 1568 l 1,4,-1
 1588 1568 l 1,5,-1
 1024 280 l 1,6,7
 1024 280 1024 280 460 1568 c 1,8,9
 352 1568 352 1568 288 1568 c 1,0,1
EndSplineSet
Validated: 9
EndChar

StartChar: w
Encoding: 119 119 90
Width: 2048
GlyphClass: 2
Flags: W
LayerCount: 2
Fore
SplineSet
288 1568 m 1,0,-1
 288 96 l 1,1,-1
 496 96 l 1,2,3
 1024 784 1024 784 1024 784 c 1,4,-1
 1552 96 l 1,5,-1
 1760 96 l 1,6,-1
 1760 1568 l 1,7,-1
 1600 1568 l 1,8,-1
 1600 304 l 1,9,-1
 1120 912 l 1,10,-1
 928 912 l 1,11,-1
 448 304 l 1,12,-1
 448 1568 l 1,13,-1
 288 1568 l 1,0,-1
EndSplineSet
Validated: 9
EndChar

StartChar: x
Encoding: 120 120 91
Width: 2048
GlyphClass: 2
Flags: W
LayerCount: 2
Fore
SplineSet
288 1568 m 1,0,-1
 912 832 l 1,1,-1
 288 96 l 1,2,-1
 496 96 l 1,3,-1
 1024 720 l 1,4,-1
 1552 96 l 1,5,-1
 1760 96 l 1,6,-1
 1136 832 l 1,7,-1
 1760 1568 l 1,8,-1
 1552 1568 l 1,9,-1
 1024 944 l 1,10,-1
 496 1568 l 1,11,-1
 288 1568 l 1,0,-1
EndSplineSet
Validated: 9
EndChar

StartChar: y
Encoding: 121 121 92
Width: 2048
GlyphClass: 2
Flags: W
LayerCount: 2
Fore
SplineSet
288 1568 m 1,0,-1
 944 928 l 1,1,-1
 944 96 l 1,2,-1
 1104 96 l 1,3,-1
 1104 928 l 1,4,-1
 1760 1568 l 1,5,-1
 1536 1568 l 1,6,-1
 1024 1072 l 1,7,-1
 512 1568 l 1,8,-1
 288 1568 l 1,0,-1
EndSplineSet
Validated: 9
EndChar

StartChar: z
Encoding: 122 122 93
Width: 2048
GlyphClass: 2
Flags: W
LayerCount: 2
Fore
SplineSet
288 1408 m 1,0,-1
 288 1568 l 1,1,-1
 1760 1568 l 1,2,-1
 1760 1360 l 1,3,-1
 480 256 l 1,4,-1
 1760 256 l 1,5,-1
 1760 96 l 1,6,-1
 288 96 l 1,7,-1
 288 304 l 1,8,-1
 1568 1408 l 1,9,-1
 288 1408 l 1,0,-1
EndSplineSet
Validated: 1
EndChar

StartChar: braceleft
Encoding: 123 123 94
Width: 2048
GlyphClass: 2
Flags: W
LayerCount: 2
Fore
SplineSet
1344 1792 m 1,0,-1
 1344 1536 l 1,1,2
 1024 1536 1024 1536 1024 1344 c 0,3,4
 1024 832 1024 832 768 832 c 1,5,6
 1024 832 1024 832 1024 320 c 0,7,8
 1024 128 1024 128 1344 128 c 1,9,-1
 1344 -128 l 1,10,11
 768 -128 768 -128 768 320 c 0,12,13
 768 704 768 704 384 704 c 1,14,-1
 384 960 l 1,15,16
 768 960 768 960 768 1344 c 0,17,18
 768 1792 768 1792 1344 1792 c 1,0,-1
EndSplineSet
Validated: 1
EndChar

StartChar: bar
Encoding: 124 124 95
Width: 2048
GlyphClass: 2
Flags: W
LayerCount: 2
Fore
SplineSet
896 1792 m 1,0,-1
 1152 1792 l 1,1,-1
 1152 -128 l 1,2,-1
 896 -128 l 1,3,-1
 896 1792 l 1,0,-1
EndSplineSet
Validated: 1
EndChar

StartChar: braceright
Encoding: 125 125 96
Width: 2048
GlyphClass: 2
Flags: W
LayerCount: 2
Fore
SplineSet
704 1792 m 1,0,-1
 704 1536 l 1,1,2
 1024 1536 1024 1536 1024 1344 c 0,3,4
 1024 832 1024 832 1280 832 c 1,5,6
 1024 832 1024 832 1024 320 c 0,7,8
 1024 128 1024 128 704 128 c 1,9,-1
 704 -128 l 1,10,11
 1280 -128 1280 -128 1280 320 c 0,12,13
 1280 704 1280 704 1664 704 c 1,14,-1
 1664 960 l 1,15,16
 1280 960 1280 960 1280 1344 c 0,17,18
 1280 1792 1280 1792 704 1792 c 1,0,-1
EndSplineSet
Validated: 9
EndChar

StartChar: asciitilde
Encoding: 126 126 97
Width: 2048
GlyphClass: 2
Flags: W
LayerCount: 2
Fore
SplineSet
192 960 m 1,0,1
 320 1152 320 1152 640 1152 c 0,2,3
 896 1152 896 1152 1024 960 c 128,-1,4
 1152 768 1152 768 1408 768 c 0,5,6
 1728 768 1728 768 1856 960 c 1,7,8
 1856 832 1856 832 1856 704 c 1,9,10
 1728 512 1728 512 1408 512 c 0,11,12
 1152 512 1152 512 1024 704 c 128,-1,13
 896 896 896 896 640 896 c 0,14,15
 320 896 320 896 192 704 c 1,16,-1
 192 960 l 1,0,1
EndSplineSet
Validated: 1
EndChar

